SplineFontDB: 3.2
FontName: nasin-nanpa
FullName: nasin-nanpa
FamilyName: nasin-nanpa
Weight: Regular
Copyright: jan Itan li mama. jan mute a li pona e pali ona.
Version: 4.0.1
ItalicAngle: 0
UnderlinePosition: 0
UnderlineWidth: 0
Ascent: 900
Descent: 100
InvalidEm: 0
sfntRevision: 0x00010000
LayerCount: 2
Layer: 0 0 "Back" 1
Layer: 1 0 "Fore" 0
XUID: [1021 700 1229584016 12833]
StyleMap: 0x0040
FSType: 0
OS2Version: 4
OS2_WeightWidthSlopeOnly: 0
OS2_UseTypoMetrics: 0
CreationTime: 1640950552
ModificationTime: 1718086698
PfmFamily: 81
TTFWeight: 400
TTFWidth: 5
LineGap: 0
VLineGap: 0
Panose: 0 0 8 9 0 0 0 6 0 0
OS2TypoAscent: 1000
OS2TypoAOffset: 0
OS2TypoDescent: 0
OS2TypoDOffset: 0
OS2TypoLinegap: 0
OS2WinAscent: 1000
OS2WinAOffset: 0
OS2WinDescent: 386
OS2WinDOffset: 0
HheadAscent: 1000
HheadAOffset: 0
HheadDescent: -386
HheadDOffset: 0
OS2SubXSize: 650
OS2SubYSize: 699
OS2SubXOff: 0
OS2SubYOff: 140
OS2SupXSize: 650
OS2SupYSize: 699
OS2SupXOff: 0
OS2SupYOff: 479
OS2StrikeYSize: 49
OS2StrikeYPos: 258
OS2CapHeight: 1000
OS2XHeight: 500
OS2Vendor: 'XXXX'
OS2CodePages: 00000001.00000000
OS2UnicodeRanges: 0000000f.00000000.00000000.00000000
Lookup: 4 0 0 "'liga' SPACE" { "'liga' SPACE"  } ['liga' ('DFLT' <'dflt' 'latn' > 'latn' <'dflt' > ) ]
Lookup: 4 0 0 "'liga' WORDS" { "'liga' WORD PLUS SPACE"  "'liga' WORD"  } ['liga' ('DFLT' <'dflt' 'latn' > 'latn' <'dflt' > ) ]
Lookup: 3 0 0 "'rand' RAND VARIATIONS" { "'rand' RAND VARIATIONS"  } ['rand' ('DFLT' <'dflt' 'latn' > 'latn' <'dflt' > ) ]
Lookup: 4 0 0 "'liga' VARIATIONS" { "'liga' VAR PLUS SPACE"  "'liga' VAR"  } ['liga' ('DFLT' <'dflt' 'latn' > 'latn' <'dflt' > ) ]
Lookup: 4 0 0 "'liga' START CONTAINER" { "'liga' START CONTAINER"  } ['liga' ('DFLT' <'dflt' 'latn' > 'latn' <'dflt' > ) ]
Lookup: 5 0 0 "'calt' SPECIFIC COMBOS" { "'calt' SPECIFIC COMBOS"  } ['calt' ('DFLT' <'dflt' 'latn' > 'latn' <'dflt' > ) ]

StartChar: combCartExtHalfTok
Encoding: 20 -1 20
Width: 0
HStem: -200 100<-541.562 41.5625> 900 100<-541.562 41.5625>
LayerCount: 2
Fore
SplineSet
-550 -150 m 4
 -550 -122 -528 -100 -500 -100 c 6
 0 -100 l 2
 28 -100 50 -122 50 -150 c 0
 50 -178 28 -200 0 -200 c 2
 -500 -200 l 6
 -528 -200 -550 -178 -550 -150 c 4
-550 950 m 4
 -550 978 -528 1000 -500 1000 c 6
 0 1000 l 2
 28 1000 50 978 50 950 c 0
 50 922 28 900 0 900 c 2
 -500 900 l 6
 -528 900 -550 922 -550 950 c 4
EndSplineSet
MultipleSubs2: "'cc01' CART" combCartExtHalfTok combCartExtNoneTok
MultipleSubs2: "'cc02' CONT" combCartExtHalfTok combCartExtNoneTok
Colour: fa6791
EndChar

StartChar: combLongGlyphExtHalfTok
Encoding: 21 -1 21
Width: 0
HStem: -200 100<-541.562 41.5625>
LayerCount: 2
Fore
SplineSet
-550 -150 m 4
 -550 -122 -528 -100 -500 -100 c 6
 0 -100 l 2
 28 -100 50 -122 50 -150 c 0
 50 -178 28 -200 0 -200 c 2
 -500 -200 l 6
 -528 -200 -550 -178 -550 -150 c 4
EndSplineSet
MultipleSubs2: "'cc01' CART" combLongGlyphExtHalfTok combCartExtNoneTok
MultipleSubs2: "'cc02' CONT" combLongGlyphExtHalfTok combCartExtNoneTok
Colour: fa6791
EndChar

StartChar: combCartExt1TickTok
Encoding: 23 -1 23
Width: 0
HStem: -300 200<-541.562 -458.438>
VStem: -550 100<-291.562 -108.438>
LayerCount: 2
Fore
SplineSet
-500 -100 m 0
 -472 -100 -450 -122 -450 -150 c 2
 -450 -250 l 2
 -450 -278 -472 -300 -500 -300 c 0
 -528 -300 -550 -278 -550 -250 c 2
 -550 -150 l 2
 -550 -122 -528 -100 -500 -100 c 0
EndSplineSet
MultipleSubs2: "'cc01' CART" combCartExt1TickTok combCartExtNoneTok
MultipleSubs2: "'cc02' CONT" combCartExt1TickTok combCartExtNoneTok
Colour: fa6791
EndChar

StartChar: combCartExt2TickTok
Encoding: 24 -1 24
Width: 0
HStem: -300 200<-641.562 -558.438 -441.562 -358.438>
VStem: -650 100<-291.562 -108.438> -450 100<-291.562 -108.438>
LayerCount: 2
Fore
SplineSet
-400 -100 m 0
 -372 -100 -350 -122 -350 -150 c 2
 -350 -250 l 2
 -350 -278 -372 -300 -400 -300 c 0
 -428 -300 -450 -278 -450 -250 c 2
 -450 -150 l 2
 -450 -122 -428 -100 -400 -100 c 0
-600 -100 m 0
 -572 -100 -550 -122 -550 -150 c 2
 -550 -250 l 2
 -550 -278 -572 -300 -600 -300 c 0
 -628 -300 -650 -278 -650 -250 c 2
 -650 -150 l 2
 -650 -122 -628 -100 -600 -100 c 0
EndSplineSet
MultipleSubs2: "'cc01' CART" combCartExt2TickTok combCartExtNoneTok
MultipleSubs2: "'cc02' CONT" combCartExt2TickTok combCartExtNoneTok
Colour: fa6791
EndChar

StartChar: combCartExt3TickTok
Encoding: 25 -1 25
Width: 0
HStem: -300 200<-741.562 -658.438 -541.562 -458.438 -341.562 -258.438>
VStem: -750 100<-291.562 -108.438> -550 100<-291.562 -108.438> -350 100<-291.562 -108.438>
CounterMasks: 1 70
LayerCount: 2
Fore
SplineSet
-300 -100 m 0
 -272 -100 -250 -122 -250 -150 c 2
 -250 -250 l 2
 -250 -278 -272 -300 -300 -300 c 0
 -328 -300 -350 -278 -350 -250 c 2
 -350 -150 l 2
 -350 -122 -328 -100 -300 -100 c 0
-500 -100 m 0
 -472 -100 -450 -122 -450 -150 c 2
 -450 -250 l 2
 -450 -278 -472 -300 -500 -300 c 0
 -528 -300 -550 -278 -550 -250 c 2
 -550 -150 l 2
 -550 -122 -528 -100 -500 -100 c 0
-700 -100 m 0
 -672 -100 -650 -122 -650 -150 c 2
 -650 -250 l 2
 -650 -278 -672 -300 -700 -300 c 0
 -728 -300 -750 -278 -750 -250 c 2
 -750 -150 l 2
 -750 -122 -728 -100 -700 -100 c 0
EndSplineSet
MultipleSubs2: "'cc01' CART" combCartExt3TickTok combCartExtNoneTok
MultipleSubs2: "'cc02' CONT" combCartExt3TickTok combCartExtNoneTok
Colour: fa6791
EndChar

StartChar: combCartExt4TickTok
Encoding: 26 -1 26
Width: 0
HStem: -300 200<-841.562 -758.438 -641.562 -558.438 -441.562 -358.438 -241.562 -158.438>
VStem: -850 100<-291.562 -108.438> -650 100<-291.562 -108.438> -450 100<-291.562 -108.438> -250 100<-291.562 -108.438>
LayerCount: 2
Fore
SplineSet
-400 -100 m 0
 -372 -100 -350 -122 -350 -150 c 2
 -350 -250 l 2
 -350 -278 -372 -300 -400 -300 c 0
 -428 -300 -450 -278 -450 -250 c 2
 -450 -150 l 2
 -450 -122 -428 -100 -400 -100 c 0
-200 -100 m 0
 -172 -100 -150 -122 -150 -150 c 2
 -150 -250 l 2
 -150 -278 -172 -300 -200 -300 c 0
 -228 -300 -250 -278 -250 -250 c 2
 -250 -150 l 2
 -250 -122 -228 -100 -200 -100 c 0
-600 -100 m 0
 -572 -100 -550 -122 -550 -150 c 2
 -550 -250 l 2
 -550 -278 -572 -300 -600 -300 c 0
 -628 -300 -650 -278 -650 -250 c 2
 -650 -150 l 2
 -650 -122 -628 -100 -600 -100 c 0
-800 -100 m 0
 -772 -100 -750 -122 -750 -150 c 2
 -750 -250 l 2
 -750 -278 -772 -300 -800 -300 c 0
 -828 -300 -850 -278 -850 -250 c 2
 -850 -150 l 2
 -850 -122 -828 -100 -800 -100 c 0
EndSplineSet
MultipleSubs2: "'cc01' CART" combCartExt4TickTok combCartExtNoneTok
MultipleSubs2: "'cc02' CONT" combCartExt4TickTok combCartExtNoneTok
Colour: fa6791
EndChar

StartChar: startCartTok
Encoding: 32 989584 32
Width: 500
HStem: -200 100<374.874 541.562> 900 100<374.874 541.562>
VStem: 10 100<147.915 652.085>
LayerCount: 2
Fore
SplineSet
110 250 m 2
 110 58 307 -100 500 -100 c 0
 528 -100 550 -122 550 -150 c 0
 550 -178 528 -200 500 -200 c 0
 251 -200 10 0 10 250 c 2
 10 550 l 2
 10 800 251 1000 500 1000 c 0
 528 1000 550 978 550 950 c 0
 550 922 528 900 500 900 c 0
 307 900 110 742 110 550 c 2
 110 250 l 2
EndSplineSet
Colour: aaafff
EndChar

StartChar: endCartTok
Encoding: 33 989585 33
Width: 500
HStem: -200 100<-41.5625 125.126> 900 100<-41.5625 125.126>
VStem: 390 100<147.915 652.085>
LayerCount: 2
Fore
SplineSet
0 -100 m 0
 193 -100 390 58 390 250 c 2
 390 550 l 2
 390 742 193 900 0 900 c 0
 -28 900 -50 922 -50 950 c 0
 -50 978 -28 1000 0 1000 c 0
 249 1000 490 800 490 550 c 2
 490 250 l 2
 490 0 249 -200 0 -200 c 0
 -28 -200 -50 -178 -50 -150 c 0
 -50 -122 -28 -100 0 -100 c 0
EndSplineSet
Colour: aaafff
EndChar

StartChar: combCartExtTok
Encoding: 34 989586 34
Width: 0
HStem: -200 100<-1041.56 41.5625> 900 100<-1041.56 41.5625>
LayerCount: 2
Fore
SplineSet
-1050 -150 m 0
 -1050 -122 -1028 -100 -1000 -100 c 2
 0 -100 l 2
 28 -100 50 -122 50 -150 c 0
 50 -178 28 -200 0 -200 c 2
 -1000 -200 l 2
 -1028 -200 -1050 -178 -1050 -150 c 0
-1050 950 m 0
 -1050 978 -1028 1000 -1000 1000 c 2
 0 1000 l 2
 28 1000 50 978 50 950 c 0
 50 922 28 900 0 900 c 2
 -1000 900 l 2
 -1028 900 -1050 922 -1050 950 c 0
EndSplineSet
Colour: aaafff
EndChar

StartChar: startLongPiTok
Encoding: 35 989587 35
Width: 1000
HStem: -200 100<550 1041.56>
VStem: 450 100<-100 891.562>
LayerCount: 2
Fore
SplineSet
500 900 m 0
 528 900 550 878 550 850 c 2
 550 -100 l 1
 1000 -100 l 2
 1028 -100 1050 -122 1050 -150 c 0
 1050 -178 1028 -200 1000 -200 c 2
 500 -200 l 2
 472 -200 450 -178 450 -150 c 2
 450 850 l 2
 450 878 472 900 500 900 c 0
EndSplineSet
Colour: aaafff
EndChar

StartChar: combLongPiExtTok
Encoding: 36 989588 36
Width: 0
HStem: -200 100<-1041.56 41.5625>
LayerCount: 2
Fore
SplineSet
-1050 -150 m 0
 -1050 -122 -1028 -100 -1000 -100 c 2
 0 -100 l 2
 28 -100 50 -122 50 -150 c 0
 50 -178 28 -200 0 -200 c 2
 -1000 -200 l 2
 -1028 -200 -1050 -178 -1050 -150 c 0
EndSplineSet
Colour: aaafff
EndChar

StartChar: startLongGlyphTok
Encoding: 39 989591 39
Width: 0
HStem: -200 100<-41.5625 41.5625>
VStem: -50 100<-191.562 -108.438>
LayerCount: 2
Fore
SplineSet
0 -200 m 0
 -28 -200 -50 -178 -50 -150 c 0
 -50 -122 -28 -100 0 -100 c 0
 28 -100 50 -122 50 -150 c 0
 50 -178 28 -200 0 -200 c 0
EndSplineSet
Colour: aaafff
EndChar

StartChar: endLongGlyphTok
Encoding: 40 989592 40
Width: 0
HStem: -200 100<-41.5625 41.5625>
VStem: -50 100<-191.562 -108.438>
LayerCount: 2
Fore
SplineSet
0 -200 m 0
 -28 -200 -50 -178 -50 -150 c 0
 -50 -122 -28 -100 0 -100 c 0
 28 -100 50 -122 50 -150 c 0
 50 -178 28 -200 0 -200 c 0
EndSplineSet
Colour: aaafff
EndChar

StartChar: combLongGlyphExtTok
Encoding: 41 989593 41
Width: 0
HStem: -200 100<-1041.56 41.5625>
LayerCount: 2
Fore
SplineSet
-1050 -150 m 0
 -1050 -122 -1028 -100 -1000 -100 c 2
 0 -100 l 2
 28 -100 50 -122 50 -150 c 0
 50 -178 28 -200 0 -200 c 2
 -1000 -200 l 2
 -1028 -200 -1050 -178 -1050 -150 c 0
EndSplineSet
Colour: aaafff
EndChar

StartChar: startRevLongGlyphTok
Encoding: 42 989594 42
Width: 0
HStem: -200 100<-41.5625 41.5625>
VStem: -50 100<-191.562 -108.438>
LayerCount: 2
Fore
SplineSet
0 -200 m 0
 -28 -200 -50 -178 -50 -150 c 0
 -50 -122 -28 -100 0 -100 c 0
 28 -100 50 -122 50 -150 c 0
 50 -178 28 -200 0 -200 c 0
EndSplineSet
Colour: aaafff
EndChar

StartChar: endRevLongGlyphTok
Encoding: 43 989595 43
Width: 0
HStem: -200 100<-41.5625 41.5625>
VStem: -50 100<-191.562 -108.438>
LayerCount: 2
Fore
SplineSet
0 -200 m 0
 -28 -200 -50 -178 -50 -150 c 0
 -50 -122 -28 -100 0 -100 c 0
 28 -100 50 -122 50 -150 c 0
 50 -178 28 -200 0 -200 c 0
EndSplineSet
Colour: aaafff
EndChar

StartChar: startCartAltTok
Encoding: 44 -1 44
Width: 500
HStem: -200 100<406.328 541.562> 310 180<61.2812 162.203> 900 100<406.328 541.562>
VStem: 165 100<31.6613 305.617 494.383 768.339>
CounterMasks: 1 e0
LayerCount: 2
Fore
SplineSet
500 900 m 0
 384 900 265 804 265 691 c 2
 265 525 l 2
 265 469 230 420 181 400 c 1
 230 380 265 331 265 275 c 2
 265 109 l 2
 265 -4 384 -100 500 -100 c 0
 528 -100 550 -122 550 -150 c 0
 550 -178 528 -200 500 -200 c 0
 331 -200 165 -62 165 109 c 2
 165 275 l 2
 165 294 149 310 130 310 c 0
 72 310 25 349 25 400 c 0
 25 451 72 490 130 490 c 0
 149 490 165 506 165 525 c 2
 165 691 l 2
 165 862 331 1000 500 1000 c 0
 528 1000 550 978 550 950 c 0
 550 922 528 900 500 900 c 0
EndSplineSet
Ligature2: "'liga' VAR" startCartTok VAR01
Colour: aaafff
EndChar

StartChar: endCartAltTok
Encoding: 45 -1 45
Width: 500
HStem: -200 100<-41.5625 93.6716> 310 180<337.797 438.719> 900 100<-41.5625 93.6716>
VStem: 235 100<31.6613 305.617 494.383 768.339>
CounterMasks: 1 e0
LayerCount: 2
Fore
SplineSet
235 691 m 2
 235 804 116 900 0 900 c 0
 -28 900 -50 922 -50 950 c 0
 -50 978 -28 1000 0 1000 c 0
 169 1000 335 862 335 691 c 2
 335 525 l 2
 335 506 351 490 370 490 c 0
 428 490 475 451 475 400 c 0
 475 349 428 310 370 310 c 0
 351 310 335 294 335 275 c 2
 335 109 l 2
 335 -62 169 -200 0 -200 c 0
 -28 -200 -50 -178 -50 -150 c 0
 -50 -122 -28 -100 0 -100 c 0
 116 -100 235 -4 235 109 c 2
 235 275 l 2
 235 331 270 380 319 400 c 1
 270 420 235 469 235 525 c 2
 235 691 l 2
EndSplineSet
Ligature2: "'liga' VAR" endCartTok VAR01
Colour: aaafff
EndChar

StartChar: aTok_startLongGlyphTok
Encoding: 48 -1 48
Width: 1000
HStem: -200 100<439.527 561.877 787.168 1041.56> 100 100<439.527 561.917>
VStem: 300 100<-60.4731 60.4731> 450 100<258.438 791.562> 600 450<-164 27.5>
LayerCount: 2
Fore
SplineSet
550 750 m 2
 550 300 l 2
 550 272 528 250 500 250 c 0
 472 250 450 272 450 300 c 2
 450 750 l 2
 450 778 472 800 500 800 c 0
 528 800 550 778 550 750 c 2
672 -102 m 1
 637 -160 573 -200 500 -200 c 0
 390 -200 300 -110 300 0 c 0
 300 110 390 200 500 200 c 0
 558 200 610 176 646 137 c 1
 678 109 692 72 709 36 c 0
 718 17 727 -1 737 -19 c 0
 765 -68 798 -100 856 -100 c 2
 1000 -100 l 2
 1028 -100 1050 -122 1050 -150 c 0
 1050 -178 1028 -200 1000 -200 c 2
 856 -200 l 2
 765 -200 709 -153 672 -102 c 1
500 -100 m 0
 555 -100 600 -55 600 0 c 0
 600 55 555 100 500 100 c 0
 445 100 400 55 400 0 c 0
 400 -55 445 -100 500 -100 c 0
EndSplineSet
Ligature2: "'liga' START CONTAINER" aTok startLongGlyphTok
Colour: aaafff
EndChar

StartChar: alasaTok_startLongGlyphTok
Encoding: 49 -1 49
Width: 1000
HStem: -200 100<311.238 1041.56> 2 101<300 378.384> 350 100<58.4375 200 300 541 639.728 779>
VStem: 200 100<-88.7619 4.24139 103 350 450 697> 541 101<275.605 350 450 529.538>
LayerCount: 2
Fore
SplineSet
642 350 m 1
 621 168 496 22 300 2 c 1
 300 -50 l 2
 300 -74 306 -84 311 -89 c 0
 316 -94 326 -100 350 -100 c 2
 1000 -100 l 2
 1028 -100 1050 -122 1050 -150 c 0
 1050 -178 1028 -200 1000 -200 c 2
 350 -200 l 2
 309 -200 269 -189 240 -160 c 0
 211 -131 200 -91 200 -50 c 2
 200 350 l 1
 100 350 l 2
 72 350 50 372 50 400 c 0
 50 428 72 450 100 450 c 2
 200 450 l 1
 200 750 l 2
 200 778 222 800 250 800 c 0
 479 800 619 646 642 450 c 1
 779 450 l 1
 715 515 l 2
 705 525 700 537 700 550 c 0
 700 577 723 600 750 600 c 0
 763 600 775 595 785 585 c 2
 935 435 l 2
 943 427 950 415 950 400 c 0
 950 385 943 373 935 365 c 2
 785 215 l 2
 775 205 763 200 750 200 c 0
 723 200 700 223 700 250 c 0
 700 263 705 275 715 285 c 2
 779 350 l 1
 642 350 l 1
300 350 m 1
 300 103 l 1
 441 121 522 221 541 350 c 1
 300 350 l 1
541 450 m 1
 522 578 441 679 300 697 c 1
 300 450 l 1
 541 450 l 1
EndSplineSet
Ligature2: "'liga' START CONTAINER" alasaTok startLongGlyphTok
Colour: aaafff
EndChar

StartChar: anuTok_startLongGlyphTok
Encoding: 50 -1 50
Width: 1000
HStem: -200 100<561.238 1041.56>
VStem: 450 100<-88.7619 421>
LayerCount: 2
Fore
SplineSet
150 750 m 0
 150 777 173 800 200 800 c 0
 213 800 226 795 236 785 c 2
 500 513 l 1
 764 785 l 2
 774 795 787 800 800 800 c 0
 827 800 850 777 850 750 c 0
 850 737 845 725 836 715 c 2
 550 421 l 1
 550 -50 l 2
 550 -74 556 -84 561 -89 c 0
 566 -94 576 -100 600 -100 c 2
 1000 -100 l 2
 1028 -100 1050 -122 1050 -150 c 0
 1050 -178 1028 -200 1000 -200 c 2
 600 -200 l 2
 559 -200 519 -189 490 -160 c 0
 461 -131 450 -91 450 -50 c 2
 450 421 l 1
 164 715 l 2
 155 725 150 737 150 750 c 0
EndSplineSet
Ligature2: "'liga' START CONTAINER" anuTok startLongGlyphTok
Colour: aaafff
EndChar

StartChar: awenTok_startLongGlyphTok
Encoding: 51 -1 51
Width: 1000
HStem: -200 100<58.4375 212 788 1041.56>
LayerCount: 2
Fore
SplineSet
500 800 m 0
 522 800 542 785 548 763 c 2
 788 -100 l 1
 1000 -100 l 2
 1028 -100 1050 -122 1050 -150 c 0
 1050 -178 1028 -200 1000 -200 c 2
 750 -200 l 2
 728 -200 708 -185 702 -163 c 2
 500 563 l 1
 298 -163 l 2
 292 -185 272 -200 250 -200 c 2
 100 -200 l 2
 72 -200 50 -178 50 -150 c 0
 50 -122 72 -100 100 -100 c 2
 212 -100 l 1
 452 763 l 2
 458 785 478 800 500 800 c 0
EndSplineSet
Ligature2: "'liga' START CONTAINER" awenTok startLongGlyphTok
Colour: aaafff
EndChar

StartChar: kamaTok_startLongGlyphTok
Encoding: 52 -1 52
Width: 1000
HStem: -200 100<967.541 1041.56> 0 100<558.438 700.178>
LayerCount: 2
Fore
SplineSet
50 138 m 0
 50 166 74 188 100 188 c 0
 111 188 123 184 132 176 c 0
 186 131 243 107 315 101 c 1
 553 767 l 2
 560 787 579 800 600 800 c 0
 620 800 638 788 646 769 c 2
 876 207 l 1
 907 136 918 58 941 -18 c 0
 951 -50 960 -72 971 -85 c 0
 980 -96 987 -100 1000 -100 c 0
 1028 -100 1050 -122 1050 -150 c 0
 1050 -178 1028 -200 1000 -200 c 0
 907 -200 867 -120 845 -47 c 0
 833 -7 824 38 813 79 c 1
 769 38 701 0 600 0 c 0
 572 0 550 22 550 50 c 0
 550 78 572 100 600 100 c 0
 676 100 722 128 748 154 c 0
 761 167 769 179 775 189 c 1
 603 610 l 1
 397 33 l 2
 390 13 371 0 350 0 c 0
 239 0 150 31 68 99 c 0
 56 109 50 124 50 138 c 0
EndSplineSet
Ligature2: "'liga' START CONTAINER" kamaTok startLongGlyphTok
Colour: aaafff
EndChar

StartChar: kenTok_startLongGlyphTok
Encoding: 53 -1 53
Width: 1000
HStem: -200 100<811.238 1041.56> 299 102<300 431.391>
VStem: 200 100<-91.5625 299 401 791.562> 700 100<-88.7619 50.3699 649.795 791.562>
LayerCount: 2
Fore
SplineSet
800 -49 m 2
 800 -50 l 2
 800 -74 806 -84 811 -89 c 0
 816 -94 826 -100 850 -100 c 2
 1000 -100 l 2
 1028 -100 1050 -122 1050 -150 c 0
 1050 -178 1028 -200 1000 -200 c 2
 850 -200 l 2
 809 -200 769 -189 740 -160 c 0
 711 -131 700 -91 700 -50 c 2
 700 -32 698 -21 693 2 c 0
 686 35 672 80 645 124 c 0
 596 202 500 287 300 299 c 1
 300 -50 l 2
 300 -78 278 -100 250 -100 c 0
 222 -100 200 -78 200 -50 c 2
 200 750 l 2
 200 778 222 800 250 800 c 0
 278 800 300 778 300 750 c 2
 300 401 l 1
 500 413 596 498 645 576 c 0
 672 620 686 665 693 698 c 0
 698 721 700 732 700 750 c 0
 700 778 722 800 750 800 c 0
 778 800 800 778 800 750 c 2
 800 724 797 707 791 677 c 0
 760 530 671 413 524 350 c 1
 671 287 760 171 791 23 c 0
 797 -7 800 -22 800 -48 c 2
 800 -49 l 2
EndSplineSet
Ligature2: "'liga' START CONTAINER" kenTok startLongGlyphTok
Colour: aaafff
EndChar

StartChar: kepekenTok_startLongGlyphTok
Encoding: 54 -1 54
Width: 1000
HStem: -200 100<788.238 1041.56> 410 100<270 450 550 730> 700 100<270 450 550 730>
VStem: 170 100<510 700> 450 100<340.502 410 510 700> 677 100<-88.7619 137.373> 730 100<510 700>
LayerCount: 2
Fore
SplineSet
107 120 m 0xfc
 107 145 128 170 157 170 c 0
 173 170 188 162 198 148 c 2
 229 104 l 1
 251 222 334 322 450 345 c 1
 450 410 l 1
 220 410 l 2
 192 410 170 432 170 460 c 2
 170 750 l 2
 170 778 192 800 220 800 c 2
 780 800 l 2
 808 800 830 778 830 750 c 2
 830 460 l 2xfa
 830 432 808 410 780 410 c 2
 550 410 l 1
 550 345 l 1
 686 318 777 183 777 40 c 2
 777 -50 l 2
 777 -74 783 -84 788 -89 c 0
 793 -94 803 -100 827 -100 c 2
 1000 -100 l 2
 1028 -100 1050 -122 1050 -150 c 0
 1050 -178 1028 -200 1000 -200 c 2
 827 -200 l 2
 786 -200 746 -189 717 -160 c 0
 688 -131 677 -91 677 -50 c 2
 677 40 l 2
 677 160 594 250 500 250 c 0
 406 250 323 160 323 40 c 2
 323 -50 l 2
 323 -76 303 -100 273 -100 c 0
 257 -100 240 -92 231 -78 c 2
 116 92 l 2
 110 101 107 110 107 120 c 0xfc
550 510 m 1
 730 510 l 1
 730 700 l 1
 550 700 l 1
 550 510 l 1
450 700 m 1
 270 700 l 1
 270 510 l 1
 450 510 l 1
 450 700 l 1
EndSplineSet
Ligature2: "'liga' START CONTAINER" kepekenTok startLongGlyphTok
Colour: aaafff
EndChar

StartChar: laTok_startLongGlyphTok
Encoding: 55 -1 55
Width: 1000
HStem: -200 100<-41.5625 436.332> 704 96<346.023 404.998>
VStem: 563 100<123.579 463.266>
LayerCount: 2
Fore
SplineSet
337 750 m 4
 337 780 362 800 387 800 c 4
 393 800 399 798 405 796 c 4
 565 732 663 525 663 300 c 4
 663 127 608 -57 511 -147 c 4
 477 -178 435 -200 387 -200 c 6
 0 -200 l 6
 -28 -200 -50 -178 -50 -150 c 4
 -50 -122 -28 -100 0 -100 c 6
 387 -100 l 6
 403 -100 422 -92 443 -73 c 4
 520 -2 563 158 563 300 c 4
 563 478 488 657 369 704 c 4
 349 712 337 730 337 750 c 4
EndSplineSet
Ligature2: "'liga' START CONTAINER" endRevLongGlyphTok laTok
Colour: aaafff
EndChar

StartChar: lonTok_startLongGlyphTok
Encoding: 56 -1 56
Width: 1000
HStem: -200 100<58.4375 1041.56> 50 150<448.417 551.583>
VStem: 425 150<73.4173 176.583>
LayerCount: 2
Fore
SplineSet
50 -150 m 0
 50 -122 72 -100 100 -100 c 2
 1000 -100 l 2
 1028 -100 1050 -122 1050 -150 c 0
 1050 -178 1028 -200 1000 -200 c 2
 100 -200 l 2
 72 -200 50 -178 50 -150 c 0
575 125 m 0
 575 84 541 50 500 50 c 0
 459 50 425 84 425 125 c 0
 425 166 459 200 500 200 c 0
 541 200 575 166 575 125 c 0
EndSplineSet
Ligature2: "'liga' START CONTAINER" lonTok startLongGlyphTok
Colour: aaafff
EndChar

StartChar: nanpaTok_startLongGlyphTok
Encoding: 57 -1 57
Width: 1000
HStem: -200 100<711.238 1041.56> 150 100<60.4375 300 400 600 700 943.562> 450 100<60.4375 300 400 600 700 943.562>
VStem: 300 100<-91.5625 150 250 450 550 791.562> 600 100<-88.7619 150 250 450 550 791.562>
LayerCount: 2
Fore
SplineSet
300 -50 m 2
 300 150 l 1
 102 150 l 2
 74 150 52 172 52 200 c 0
 52 228 74 250 102 250 c 2
 300 250 l 1
 300 450 l 1
 102 450 l 2
 74 450 52 472 52 500 c 0
 52 528 74 550 102 550 c 2
 300 550 l 1
 300 750 l 2
 300 778 322 800 350 800 c 0
 378 800 400 778 400 750 c 2
 400 550 l 1
 600 550 l 1
 600 750 l 2
 600 778 622 800 650 800 c 0
 678 800 700 778 700 750 c 2
 700 550 l 1
 902 550 l 2
 930 550 952 528 952 500 c 0
 952 472 930 450 902 450 c 2
 700 450 l 1
 700 250 l 1
 902 250 l 2
 930 250 952 228 952 200 c 0
 952 172 930 150 902 150 c 2
 700 150 l 1
 700 -50 l 2
 700 -74 706 -84 711 -89 c 0
 716 -94 726 -100 750 -100 c 2
 1000 -100 l 2
 1028 -100 1050 -122 1050 -150 c 0
 1050 -178 1028 -200 1000 -200 c 2
 750 -200 l 2
 709 -200 669 -189 640 -160 c 0
 611 -131 600 -91 600 -50 c 2
 600 150 l 1
 400 150 l 1
 400 -50 l 2
 400 -78 378 -100 350 -100 c 0
 322 -100 300 -78 300 -50 c 2
400 450 m 1
 400 250 l 1
 600 250 l 1
 600 450 l 1
 400 450 l 1
EndSplineSet
Ligature2: "'liga' START CONTAINER" nanpaTok startLongGlyphTok
Colour: aaafff
EndChar

StartChar: openTok_startLongGlyphTok
Encoding: 58 -1 58
Width: 1000
HStem: -200 100<861.238 1041.56> 0 100<250 750> 250 100<250 750>
VStem: 150 100<100 250 350 791.562> 750 100<-88.7619 0 100 250 350 791.562>
LayerCount: 2
Fore
SplineSet
200 800 m 0
 228 800 250 778 250 750 c 2
 250 350 l 1
 750 350 l 1
 750 750 l 2
 750 778 772 800 800 800 c 0
 828 800 850 778 850 750 c 2
 850 -50 l 2
 850 -74 856 -84 861 -89 c 0
 866 -94 876 -100 900 -100 c 2
 1000 -100 l 2
 1028 -100 1050 -122 1050 -150 c 0
 1050 -178 1028 -200 1000 -200 c 2
 900 -200 l 2
 859 -200 819 -189 790 -160 c 0
 761 -131 750 -91 750 -50 c 2
 750 0 l 1
 200 0 l 2
 172 0 150 22 150 50 c 2
 150 750 l 2
 150 778 172 800 200 800 c 0
250 250 m 1
 250 100 l 1
 750 100 l 1
 750 250 l 1
 250 250 l 1
EndSplineSet
Ligature2: "'liga' START CONTAINER" openTok startLongGlyphTok
Colour: aaafff
EndChar

StartChar: piTok_startLongGlyphTok
Encoding: 59 -1 59
Width: 1000
HStem: -200 100<561.238 1041.56>
VStem: 450 100<-88.7619 791.562>
LayerCount: 2
Fore
SplineSet
550 750 m 2
 550 -50 l 2
 550 -74 556 -84 561 -89 c 0
 566 -94 576 -100 600 -100 c 2
 1000 -100 l 2
 1028 -100 1050 -122 1050 -150 c 0
 1050 -178 1028 -200 1000 -200 c 2
 600 -200 l 2
 559 -200 519 -189 490 -160 c 0
 461 -131 450 -91 450 -50 c 2
 450 750 l 2
 450 778 472 800 500 800 c 0
 528 800 550 778 550 750 c 2
EndSplineSet
Ligature2: "'liga' START CONTAINER" piTok startLongGlyphTok
Colour: aaafff
EndChar

StartChar: piniTok_startLongGlyphTok
Encoding: 60 -1 60
Width: 1000
HStem: -200 100<258.438 450 550 1041.56> 700 100<258.438 450 550 741.562>
VStem: 450 100<-100 700>
LayerCount: 2
Fore
SplineSet
550 700 m 1
 550 -100 l 1
 1000 -100 l 2
 1028 -100 1050 -122 1050 -150 c 0
 1050 -178 1028 -200 1000 -200 c 2
 300 -200 l 2
 272 -200 250 -178 250 -150 c 0
 250 -122 272 -100 300 -100 c 2
 450 -100 l 1
 450 700 l 1
 300 700 l 2
 272 700 250 722 250 750 c 0
 250 778 272 800 300 800 c 2
 700 800 l 2
 728 800 750 778 750 750 c 0
 750 722 728 700 700 700 c 2
 550 700 l 1
EndSplineSet
Ligature2: "'liga' START CONTAINER" piniTok startLongGlyphTok
Colour: aaafff
EndChar

StartChar: sonaTok_startLongGlyphTok
Encoding: 61 -1 61
Width: 1000
HStem: -200 100<771.238 1041.56> 0 100<340 660> 450 100<340 660> 650 200<458.438 541.562>
VStem: 240 100<100 450> 450 100<658.438 841.562> 660 100<-88.7619 0 100 450>
CounterMasks: 1 0e
LayerCount: 2
Fore
SplineSet
500 850 m 0
 528 850 550 828 550 800 c 2
 550 700 l 2
 550 672 528 650 500 650 c 0
 472 650 450 672 450 700 c 2
 450 800 l 2
 450 828 472 850 500 850 c 0
200 733 m 0
 200 758 221 783 250 783 c 0
 267 783 284 774 293 758 c 2
 343 671 l 2
 348 663 350 654 350 646 c 0
 350 621 329 596 300 596 c 0
 283 596 266 605 257 621 c 2
 207 708 l 2
 202 716 200 725 200 733 c 0
750 783 m 0
 779 783 800 758 800 733 c 0
 800 725 798 716 793 708 c 2
 743 621 l 2
 734 605 717 596 700 596 c 0
 671 596 650 621 650 646 c 0
 650 654 652 663 657 671 c 2
 707 758 l 2
 716 774 733 783 750 783 c 0
240 500 m 2
 240 528 262 550 290 550 c 2
 710 550 l 2
 738 550 760 528 760 500 c 2
 760 -50 l 2
 760 -74 766 -84 771 -89 c 0
 776 -94 786 -100 810 -100 c 2
 1000 -100 l 2
 1028 -100 1050 -122 1050 -150 c 0
 1050 -178 1028 -200 1000 -200 c 2
 810 -200 l 2
 769 -200 729 -189 700 -160 c 0
 671 -131 660 -91 660 -50 c 2
 660 0 l 1
 290 0 l 2
 262 0 240 22 240 50 c 2
 240 500 l 2
660 100 m 1
 660 450 l 1
 340 450 l 1
 340 100 l 1
 660 100 l 1
EndSplineSet
Ligature2: "'liga' START CONTAINER" sonaTok startLongGlyphTok
Colour: aaafff
EndChar

StartChar: tawaTok_startLongGlyphTok
Encoding: 62 -1 62
Width: 1000
HStem: -200 100<756 1041.56> 0 100<268.644 441.562>
LayerCount: 2
Fore
SplineSet
400 800 m 0
 422 800 440 787 447 767 c 2
 756 -100 l 1
 1000 -100 l 2
 1028 -100 1050 -122 1050 -150 c 0
 1050 -178 1028 -200 1000 -200 c 2
 721 -200 l 2
 700 -200 681 -187 674 -167 c 2
 397 610 l 1
 210 151 l 1
 216 147 222 143 231 138 c 0
 264 120 318 100 400 100 c 0
 428 100 450 78 450 50 c 0
 450 22 428 0 400 0 c 0
 301 0 230 24 183 50 c 0
 149 69 130 83 111 107 c 0
 104 116 100 127 100 138 c 0
 100 144 102 150 104 156 c 2
 354 769 l 2
 362 788 380 800 400 800 c 0
EndSplineSet
Ligature2: "'liga' START CONTAINER" tawaTok startLongGlyphTok
Colour: aaafff
EndChar

StartChar: wileTok_startLongGlyphTok
Encoding: 63 -1 63
Width: 1000
HStem: -200 100<964.732 1041.56> 35 100<240.615 386.321 613.679 758.658>
VStem: 50 100<253.748 544.69> 450 100<196.598 291.679> 836 100<-64.8594 88> 850 100<253.056 544.69>
LayerCount: 2
Fore
SplineSet
210 775 m 0xf8
 238 775 260 751 260 725 c 0
 260 715 257 704 250 695 c 0
 202 631 150 534 150 399 c 0
 150 321 164 253 193 206 c 0
 220 162 261 135 322 135 c 0
 346 135 377 147 403 169 c 0
 429 191 446 220 450 254 c 0
 452 280 472 300 500 300 c 0
 528 300 548 280 550 254 c 0
 554 220 571 191 597 169 c 0
 623 147 654 135 678 135 c 0
 739 135 780 162 807 206 c 0
 836 253 850 321 850 399 c 0
 850 534 798 631 750 695 c 0
 743 704 740 715 740 725 c 0
 740 751 762 775 790 775 c 0
 805 775 820 768 830 755 c 0
 887 679 950 561 950 399 c 0xf4
 950 304 936 193 936 95 c 0
 936 32 943 -33 958 -67 c 0
 964 -81 971 -89 977 -93 c 0
 982 -97 989 -100 1000 -100 c 0
 1028 -100 1050 -122 1050 -150 c 0
 1050 -178 1028 -200 1000 -200 c 0
 933 -200 889 -157 867 -109 c 0
 842 -53 836 15 836 88 c 1
 795 54 742 35 678 35 c 0
 609 35 539 78 500 126 c 1
 461 78 391 35 322 35 c 0
 131 35 50 210 50 399 c 0
 50 561 113 679 170 755 c 0
 180 768 195 775 210 775 c 0xf8
EndSplineSet
Ligature2: "'liga' START CONTAINER" wileTok startLongGlyphTok
Colour: aaafff
EndChar

StartChar: wileTok_VAR01_startLongGlyphTok
Encoding: 64 -1 64
Width: 1000
HStem: -200 100<956.197 1041.56> 0 100<223.917 373.359 626.641 777.124>
VStem: 50 100<173.917 328.48> 836 100<-77.0912 38.9328> 850 100<172.384 328.48>
LayerCount: 2
Fore
SplineSet
500 99 m 1xf0
 457 48 388 0 300 0 c 0
 162 0 50 112 50 250 c 0
 50 315 82 381 121 440 c 0
 192 547 314 662 405 738 c 0
 433 761 447 773 470 790 c 0
 479 797 489 800 500 800 c 0
 521 800 534 787 548 776 c 0
 658 690 795 566 879 440 c 0
 918 381 950 315 950 250 c 0xe8
 950 183 936 99 936 29 c 0
 936 -15 943 -59 955 -78 c 0
 963 -91 974 -100 1000 -100 c 0
 1028 -100 1050 -122 1050 -150 c 0
 1050 -178 1028 -200 1000 -200 c 0
 941 -200 897 -174 870 -131 c 0
 841 -84 836 -31 836 29 c 0
 836 33 836 36 836 40 c 1
 797 15 750 0 700 0 c 0
 612 0 543 48 500 99 c 1xf0
500 687 m 1
 405 611 276 493 204 385 c 0
 168 331 150 285 150 250 c 0
 150 167 217 100 300 100 c 0
 340 100 375 118 404 144 c 0
 434 171 449 199 451 210 c 0
 456 233 476 250 500 250 c 0
 524 250 544 233 549 210 c 0
 551 199 566 171 596 144 c 0
 625 118 660 100 700 100 c 0
 783 100 850 167 850 250 c 0
 850 285 832 331 796 385 c 0
 724 494 596 610 500 687 c 1
EndSplineSet
Ligature2: "'liga' START CONTAINER" wileTok_VAR01 startLongGlyphTok
Colour: aaafff
EndChar

StartChar: nTok_startLongGlyphTok
Encoding: 65 -1 65
Width: 1000
HStem: -200 100<701.327 1041.56> 100 100<439.527 560.473>
VStem: 300 100<-191.562 59.3042> 450 100<258.438 791.562> 600 100<-98.6735 59.3042>
CounterMasks: 1 38
LayerCount: 2
Fore
SplineSet
550 750 m 2
 550 300 l 2
 550 272 528 250 500 250 c 0
 472 250 450 272 450 300 c 2
 450 750 l 2
 450 778 472 800 500 800 c 0
 528 800 550 778 550 750 c 2
500 100 m 0
 445 100 400 55 400 0 c 2
 400 -150 l 2
 400 -178 378 -200 350 -200 c 0
 322 -200 300 -178 300 -150 c 2
 300 0 l 2
 300 110 390 200 500 200 c 0
 610 200 700 110 700 0 c 2
 700 -80 l 2
 700 -92 708 -100 720 -100 c 2
 1000 -100 l 2
 1028 -100 1050 -122 1050 -150 c 0
 1050 -178 1028 -200 1000 -200 c 2
 720 -200 l 2
 652 -200 600 -148 600 -80 c 2
 600 0 l 2
 600 55 555 100 500 100 c 0
EndSplineSet
Ligature2: "'liga' START CONTAINER" nTok startLongGlyphTok
Colour: aaafff
EndChar

StartChar: waTok_startLongGlyphTok
Encoding: 66 -1 66
Width: 1000
HStem: -200 100<356.161 439.095 560.905 643.294 802.934 1041.56>
VStem: 231 100<-71.1865 122.001> 450 100<-89.2128 -17.9823 258.438 791.562> 669 100<-67.9231 121.051>
CounterMasks: 1 70
LayerCount: 2
Fore
SplineSet
500 800 m 0
 528 800 550 778 550 750 c 2
 550 300 l 2
 550 272 528 250 500 250 c 0
 472 250 450 272 450 300 c 2
 450 750 l 2
 450 778 472 800 500 800 c 0
341 250 m 0
 369 250 391 226 391 200 c 0
 391 190 388 179 381 170 c 0
 357 138 331 89 331 22 c 0
 331 -18 339 -51 352 -72 c 0
 363 -90 377 -100 402 -100 c 0
 423 -100 448 -76 450 -55 c 0
 452 -29 472 -10 500 -10 c 0
 528 -10 548 -29 550 -55 c 0
 552 -76 577 -100 598 -100 c 0
 623 -100 637 -90 648 -72 c 0
 661 -51 669 -18 669 22 c 0
 669 89 643 138 619 170 c 0
 612 179 609 190 609 200 c 0
 609 226 631 250 659 250 c 0
 674 250 689 243 699 230 c 0
 732 186 769 116 769 22 c 0
 769 -24 777 -51 791 -68 c 0
 804 -83 832 -100 900 -100 c 2
 1000 -100 l 2
 1028 -100 1050 -122 1050 -150 c 1
 1050 -178 1028 -200 1000 -200 c 2
 900 -200 l 2
 822 -200 762 -182 722 -141 c 1
 694 -177 652 -200 598 -200 c 0
 562 -200 526 -184 500 -161 c 1
 474 -184 438 -200 402 -200 c 0
 284 -200 231 -94 231 22 c 0
 231 117 268 186 301 230 c 0
 311 243 326 250 341 250 c 0
EndSplineSet
Ligature2: "'liga' START CONTAINER" waTok startLongGlyphTok
Colour: aaafff
EndChar

StartChar: middleDotTok
Encoding: 80 989596 80
Width: 1000
HStem: 300 200<438.358 561.642>
VStem: 400 200<338.358 461.642>
LayerCount: 2
Fore
SplineSet
600 400 m 0
 600 345 555 300 500 300 c 0
 445 300 400 345 400 400 c 0
 400 455 445 500 500 500 c 0
 555 500 600 455 600 400 c 0
EndSplineSet
MultipleSubs2: "'cc01' CART" middleDotTok combCartExtTok
MultipleSubs2: "'cc02' CONT" middleDotTok combLongGlyphExtTok
Colour: cccfff
EndChar

StartChar: colonTok
Encoding: 81 989597 81
Width: 1000
HStem: 75 200<438.358 561.642> 525 200<438.358 561.642>
VStem: 400 200<113.358 236.642 563.358 686.642>
LayerCount: 2
Fore
SplineSet
500 275 m 0
 555 275 600 230 600 175 c 0
 600 120 555 75 500 75 c 0
 445 75 400 120 400 175 c 0
 400 230 445 275 500 275 c 0
500 725 m 0
 555 725 600 680 600 625 c 0
 600 570 555 525 500 525 c 0
 445 525 400 570 400 625 c 0
 400 680 445 725 500 725 c 0
EndSplineSet
MultipleSubs2: "'cc01' CART" colonTok combCartExtTok
MultipleSubs2: "'cc02' CONT" colonTok combLongGlyphExtTok
Colour: cccfff
EndChar

StartChar: middleDot2Tok
Encoding: 82 -1 82
Width: 1000
HStem: 300 200<213.358 336.642 663.358 786.642>
VStem: 175 200<338.358 461.642> 625 200<338.358 461.642>
LayerCount: 2
Fore
SplineSet
375 400 m 0
 375 345 330 300 275 300 c 0
 220 300 175 345 175 400 c 0
 175 455 220 500 275 500 c 0
 330 500 375 455 375 400 c 0
825 400 m 0
 825 345 780 300 725 300 c 0
 670 300 625 345 625 400 c 0
 625 455 670 500 725 500 c 0
 780 500 825 455 825 400 c 0
EndSplineSet
Ligature2: "'liga' VAR" middleDotTok middleDotTok
MultipleSubs2: "'cc01' CART" middleDot2Tok combCartExtTok
MultipleSubs2: "'cc02' CONT" middleDot2Tok combLongGlyphExtTok
Colour: cccfff
EndChar

StartChar: middleDot3Tok
Encoding: 83 -1 83
Width: 1000
HStem: 300 200<88.3579 211.642 438.358 561.642 788.358 911.642>
VStem: 50 200<338.358 461.642> 400 200<338.358 461.642> 750 200<338.358 461.642>
CounterMasks: 1 70
LayerCount: 2
Fore
SplineSet
250 400 m 0
 250 345 205 300 150 300 c 0
 95 300 50 345 50 400 c 0
 50 455 95 500 150 500 c 0
 205 500 250 455 250 400 c 0
950 400 m 0
 950 345 905 300 850 300 c 0
 795 300 750 345 750 400 c 0
 750 455 795 500 850 500 c 0
 905 500 950 455 950 400 c 0
600 400 m 0
 600 345 555 300 500 300 c 0
 445 300 400 345 400 400 c 0
 400 455 445 500 500 500 c 0
 555 500 600 455 600 400 c 0
EndSplineSet
Ligature2: "'liga' VAR" middleDotTok middleDotTok middleDotTok
MultipleSubs2: "'cc01' CART" middleDot3Tok combCartExtTok
MultipleSubs2: "'cc02' CONT" middleDot3Tok combLongGlyphExtTok
Colour: cccfff
EndChar

StartChar: teTok
Encoding: 85 -1 85
Width: 1000
HStem: 800 100<550 1041.56>
VStem: 450 100<108.438 800>
LayerCount: 2
Fore
SplineSet
500 100 m 0
 472 100 450 122 450 150 c 2
 450 850 l 2
 450 878 472 900 500 900 c 2
 1000 900 l 2
 1028 900 1050 878 1050 850 c 0
 1050 822 1028 800 1000 800 c 2
 550 800 l 1
 550 150 l 2
 550 122 528 100 500 100 c 0
EndSplineSet
MultipleSubs2: "'cc01' CART" teTok combCartExtTok
MultipleSubs2: "'cc02' CONT" teTok combLongGlyphExtTok
Colour: cccfff
EndChar

StartChar: toTok
Encoding: 86 -1 86
Width: 1000
HStem: -100 100<-41.5625 450>
VStem: 450 100<0 691.562>
LayerCount: 2
Fore
SplineSet
500 700 m 0
 528 700 550 678 550 650 c 2
 550 -50 l 2
 550 -78 528 -100 500 -100 c 2
 0 -100 l 2
 -28 -100 -50 -78 -50 -50 c 0
 -50 -22 -28 0 0 0 c 2
 450 0 l 1
 450 650 l 2
 450 678 472 700 500 700 c 0
EndSplineSet
MultipleSubs2: "'cc01' CART" toTok combCartExtTok
MultipleSubs2: "'cc02' CONT" toTok combLongGlyphExtTok
Colour: cccfff
EndChar

StartChar: itanTok
Encoding: 87 -1 87
Width: 1000
HStem: -100 100<369.225 626.618> -52 312<250.438 332.957> -52 100<38.4375 145> 60 150<478.417 581.583> 273 75<235.745 363 438 623 698 824.255> 533 75<235.745 363 438 623 698 824.255> 800 100<373.382 626.618>
VStem: 0 100<269.102 526.618> 242 100<94 251.562> 363 75<145.745 273 348 533 608 734.255> 455 150<83.4173 186.583> 623 75<145.745 273 348 533 608 734.255> 900 100<273.382 526.618>
LayerCount: 2
Fore
SplineSet
530 60 m 0x1ff8
 489 60 455 94 455 135 c 0
 455 176 489 210 530 210 c 0
 571 210 605 176 605 135 c 0
 605 94 571 60 530 60 c 0x1ff8
401 738 m 0
 422 738 438 721 438 700 c 2
 438 608 l 1
 623 608 l 1
 623 700 l 2
 623 721 640 738 661 738 c 0
 682 738 698 721 698 700 c 2
 698 608 l 1
 790 608 l 2
 811 608 828 592 828 571 c 0
 828 550 811 533 790 533 c 2
 698 533 l 1
 698 348 l 1
 790 348 l 2
 811 348 828 332 828 311 c 0
 828 290 811 273 790 273 c 2
 698 273 l 1
 698 180 l 2
 698 159 682 142 661 142 c 0
 640 142 623 159 623 180 c 2
 623 273 l 1
 438 273 l 1
 438 180 l 2
 438 159 422 142 401 142 c 0
 380 142 363 159 363 180 c 2
 363 273 l 1
 270 273 l 2
 249 273 232 290 232 311 c 0
 232 332 249 348 270 348 c 2
 363 348 l 1
 363 533 l 1
 270 533 l 2
 249 533 232 550 232 571 c 0
 232 592 249 608 270 608 c 2
 363 608 l 1
 363 700 l 2
 363 721 380 738 401 738 c 0
438 533 m 1
 438 348 l 1
 623 348 l 1
 623 533 l 1
 438 533 l 1
0 400 m 0
 0 676 224 900 500 900 c 0
 776 900 1000 676 1000 400 c 0
 1000 124 776 -100 500 -100 c 0x8ff8
 424 -100 351 -83 286 -52 c 1x4ff8
 80 -52 l 2
 52 -52 30 -30 30 -2 c 0
 30 26 52 48 80 48 c 2
 145 48 l 1x2ff8
 55 138 0 263 0 400 c 0
500 0 m 0
 721 0 900 179 900 400 c 0
 900 621 721 800 500 800 c 0
 279 800 100 621 100 400 c 0
 100 277 155 167 242 94 c 1
 242 210 l 2x9ff8
 242 238 264 260 292 260 c 0x4ff8
 320 260 342 238 342 210 c 2x1ff8
 342 32 l 1
 390 11 444 0 500 0 c 0
EndSplineSet
Ligature2: "'liga' VAR" ijoTok ZWJ tanTok ZWJ anpaTok ZWJ nanpaTok
MultipleSubs2: "'cc01' CART" itanTok combCartExtTok
MultipleSubs2: "'cc02' CONT" itanTok combLongGlyphExtTok
Colour: cccfff
EndChar

StartChar: lipamankaTok
Encoding: 88 -1 88
Width: 1000
HStem: -59 90<177.24 221 301 376 456.046 500.519> 41 50<485 502 588 605 691 708> 220 50<485 502 588 605 692 708> 371 135<493.502 591.022 659.978 757.498> 577 60<536.886 637.778> 803 59<454.788 729.178>
VStem: 76 90<43.2988 122.922> 221 80<33 139> 309 60<676.466 748.829> 316 90<233.019 473.094> 475 135<389.978 487.498> 641 135<389.978 487.498> 764 90<46.043 217 266 427.542> 780 60<691.002 764.067>
LayerCount: 2
Fore
SplineSet
709 371 m 0xff30
 672 371 641 402 641 439 c 0
 641 476 672 506 709 506 c 0
 746 506 776 476 776 439 c 0
 776 402 746 371 709 371 c 0xff30
610 439 m 0
 610 402 579 371 542 371 c 0
 505 371 475 402 475 439 c 0
 475 476 505 506 542 506 c 0
 579 506 610 476 610 439 c 0
323 233 m 1
 319 265 316 296 316 326 c 0xff70
 316 433 343 530 390 606 c 1
 352 623 312 653 309 706 c 0
 309 708 309 709 309 711 c 0
 309 742 324 766 340 783 c 0
 357 801 379 815 401 825 c 0
 452 849 526 862 598 862 c 0
 678 862 757 845 801 807 c 0
 820 791 838 767 840 734 c 0
 840 732 840 730 840 728 c 0xffa4
 840 686 815 658 790 639 c 1
 816 632 847 627 887 621 c 0
 906 618 925 600 925 577 c 0
 925 571 924 565 921 558 c 0
 870 451 854 342 854 245 c 0
 854 142 872 52 888 -6 c 0
 889 -10 890 -14 890 -18 c 0
 890 -38 877 -55 857 -61 c 0
 853 -62 849 -63 845 -63 c 0
 825 -63 808 -50 802 -30 c 0
 786 27 767 114 764 217 c 1xff28
 728 155 l 1
 773 79 l 2
 775 75 776 70 776 66 c 0
 776 52 763 41 751 41 c 2
 662 41 l 1
 618 -36 l 2
 614 -44 606 -48 597 -48 c 0
 588 -48 579 -44 575 -36 c 2
 531 41 l 1
 456 41 l 1
 457 38 457 34 458 31 c 1
 462 31 l 2
 487 31 507 11 507 -14 c 0
 507 -39 487 -59 462 -59 c 2
 246 -59 l 2
 194 -59 148 -48 117 -20 c 0
 84 9 76 49 76 86 c 0
 76 175 158 231 246 231 c 0
 254 231 261 231 269 231 c 0
 288 231 308 231 323 233 c 1
674 774 m 0
 698 774 719 754 719 729 c 0
 719 720 717 710 717 703 c 0
 717 688 720 678 726 670 c 1
 760 686 780 707 780 729 c 0
 780 773 698 803 597 803 c 0
 588 803 579 802 570 802 c 0
 458 796 369 756 369 711 c 0xffa4
 369 688 392 669 427 656 c 1
 490 729 575 774 674 774 c 0
678 591 m 1
 640 582 596 577 551 577 c 0
 528 577 504 578 482 581 c 1
 435 518 406 430 406 327 c 0
 406 298 408 269 413 238 c 0
 420 192 429 147 438 110 c 1
 465 155 l 1
 420 232 l 2
 418 236 417 241 417 245 c 0
 417 259 430 270 442 270 c 2
 531 270 l 1
 575 346 l 2
 579 354 588 359 597 359 c 0
 606 359 614 354 618 346 c 2
 663 270 l 1
 751 270 l 2
 756 270 760 268 764 266 c 1xff68
 766 352 780 447 816 542 c 1
 763 552 713 563 678 591 c 1
639 644 m 1
 635 655 631 668 629 680 c 1
 596 673 564 659 536 637 c 1
 541 637 547 637 552 637 c 0
 583 637 613 639 639 644 c 1
597 27 m 1
 605 41 l 1
 588 41 l 1
 597 27 l 1
559 91 m 1
 634 91 l 1
 671 155 l 1
 634 220 l 1
 560 220 l 1
 522 155 l 1
 559 91 l 1
700 105 m 1
 691 91 l 1
 708 91 l 1
 700 105 l 1
708 220 m 1
 692 220 l 1
 700 205 l 1
 708 220 l 1
597 284 m 1
 588 270 l 1
 605 270 l 1
 597 284 l 1
485 220 m 1
 494 205 l 1
 502 220 l 1
 485 220 l 1
502 91 m 1
 494 105 l 1
 485 91 l 1
 502 91 l 1
376 31 m 1
 366 68 357 101 348 146 c 1
 333 143 318 143 301 142 c 1
 301 31 l 1
 376 31 l 1
221 139 m 1
 193 133 166 115 166 86 c 0
 166 61 171 51 177 46 c 0
 182 41 195 36 221 33 c 1
 221 139 l 1
EndSplineSet
MultipleSubs2: "'cc01' CART" lipamankaTok combCartExtTok
MultipleSubs2: "'cc02' CONT" lipamankaTok combLongGlyphExtTok
Colour: cccfff
EndChar

StartChar: lepekaTok
Encoding: 89 -1 89
Width: 1000
HStem: 32 76<398.815 601.185> 180 50<362.157 457.935 542.065 637.843> 365 50<337 423 577 663> 425 50<371 389 611 629> 632 76<398.815 601.185> 762 76<376.52 623.48> 817 51<85.0498 164.182 835.818 914.95>
VStem: 31 51<734.818 813.95> 62 76<-34.255 525.016> 162 76<268.815 471.185> 295 50<247.464 319.802> 475 50<246.85 319.802> 655 50<247.464 319.802> 762 76<268.815 471.185> 862 76<-34.255 525.016> 918 51<735.511 813.95>
LayerCount: 2
Fore
SplineSet
685 688 m 0xfa7e
 672 688 662 700 662 713 c 0
 662 716 662 720 664 723 c 1
 615 748 559 762 500 762 c 0
 441 762 385 748 336 723 c 1
 338 720 338 716 338 713 c 0
 338 700 328 688 315 688 c 0
 307 688 299 692 293 698 c 1
 257 673 226 642 201 606 c 1
 207 600 211 592 211 584 c 0
 211 571 199 561 186 561 c 0
 183 561 179 562 176 563 c 0
 151 514 138 458 138 400 c 2
 138 0 l 2
 138 -21 121 -38 100 -38 c 0
 79 -38 62 -21 62 0 c 2
 62 400 l 2xfcfe
 62 480 84 554 121 619 c 1
 92 654 69 690 54 722 c 0
 43 745 31 774 31 800 c 0
 31 818 36 835 50 849 c 0
 64 863 81 868 99 868 c 0xfb7c
 125 868 154 856 177 845 c 0
 209 830 244 807 279 778 c 1
 344 816 419 838 500 838 c 0xfd7c
 581 838 656 816 721 778 c 1
 756 807 791 830 823 845 c 0
 846 856 875 868 901 868 c 0
 919 868 936 863 950 849 c 0
 964 835 969 818 969 800 c 0xfb7d
 969 774 957 745 946 722 c 0
 931 690 908 655 879 620 c 1
 917 555 938 480 938 400 c 2
 938 0 l 2
 938 -21 921 -38 900 -38 c 0
 879 -38 862 -21 862 0 c 2
 862 400 l 2
 862 458 849 514 824 563 c 0
 821 562 817 561 814 561 c 0
 801 561 789 571 789 584 c 0
 789 592 793 600 799 606 c 1
 774 642 743 673 707 698 c 1
 701 692 693 688 685 688 c 0xfa7e
150 663 m 1
 174 695 204 725 236 749 c 1
 207 771 179 788 155 800 c 0
 134 810 117 816 104 817 c 0
 91 818 86 815 85 814 c 0
 84 813 81 808 82 795 c 0xfb7c
 83 782 89 765 99 744 c 0
 111 720 127 692 150 663 c 1
901 744 m 0
 911 765 917 782 918 795 c 0xfa7d
 919 808 916 813 915 814 c 0
 914 815 909 818 896 817 c 0
 883 816 866 810 845 800 c 0
 821 788 793 771 764 749 c 1
 796 725 825 695 849 663 c 1
 871 692 889 720 901 744 c 0
320 320 m 0
 334 320 345 309 345 295 c 0
 345 259 374 230 410 230 c 0
 446 230 475 259 475 295 c 0
 475 309 486 320 500 320 c 0
 514 320 525 309 525 295 c 0
 525 259 554 230 590 230 c 0
 626 230 655 259 655 295 c 0
 655 309 666 320 680 320 c 0
 694 320 705 309 705 295 c 0
 705 231 654 180 590 180 c 0
 554 180 521 197 500 223 c 1
 479 197 446 180 410 180 c 0
 346 180 295 231 295 295 c 0
 295 309 306 320 320 320 c 0
402 552 m 2
 446 475 l 1
 458 475 l 2
 472 475 483 464 483 450 c 0
 483 442 478 435 472 430 c 1
 488 402 l 2
 490 398 492 394 492 390 c 0
 492 376 479 365 467 365 c 2
 293 365 l 2
 281 365 268 376 268 390 c 0
 268 394 270 398 272 402 c 2
 288 430 l 1
 282 435 277 442 277 450 c 0
 277 464 288 475 302 475 c 2
 314 475 l 1
 358 552 l 2
 362 560 371 565 380 565 c 0
 389 565 398 560 402 552 c 2
423 415 m 1
 418 425 l 1
 342 425 l 1
 337 415 l 1
 423 415 l 1
380 490 m 1
 371 475 l 1
 389 475 l 1
 380 490 l 1
642 552 m 2
 686 475 l 1
 698 475 l 2
 712 475 723 464 723 450 c 0
 723 442 718 435 712 430 c 1
 728 402 l 2
 730 398 732 394 732 390 c 0
 732 376 719 365 707 365 c 2
 533 365 l 2
 521 365 508 376 508 390 c 0
 508 394 510 398 512 402 c 2
 528 430 l 1
 522 435 517 442 517 450 c 0
 517 464 528 475 542 475 c 2
 554 475 l 1
 598 552 l 2
 602 560 611 565 620 565 c 0
 629 565 638 560 642 552 c 2
577 415 m 1
 663 415 l 1
 658 425 l 1
 582 425 l 1
 577 415 l 1
620 490 m 1
 611 475 l 1
 629 475 l 1
 620 490 l 1
162 370 m 0
 162 556 314 708 500 708 c 0
 686 708 838 556 838 370 c 0
 838 184 686 32 500 32 c 0
 314 32 162 184 162 370 c 0
500 632 m 0
 355 632 238 515 238 370 c 0
 238 225 355 108 500 108 c 0
 645 108 762 225 762 370 c 0
 762 515 645 632 500 632 c 0
EndSplineSet
Ligature2: "'liga' VAR" meliTok ZWJ kuleTok ZWJ kuleTok
MultipleSubs2: "'cc01' CART" lepekaTok combCartExtTok
MultipleSubs2: "'cc02' CONT" lepekaTok combLongGlyphExtTok
Colour: cccfff
EndChar

StartChar: aTok
Encoding: 96 989440 96
Width: 1000
HStem: -50 100<439.527 561.138> 250 100<439.527 561.278>
VStem: 300 100<89.5269 210.473> 450 100<408.438 841.562> 600 200<-13 177.5> 703 97<-41.5317 38.4085>
LayerCount: 2
Fore
SplineSet
500 50 m 0xf8
 555 50 600 95 600 150 c 0
 600 205 555 250 500 250 c 0
 445 250 400 205 400 150 c 0
 400 95 445 50 500 50 c 0xf8
800 0 m 0
 800 -26 780 -50 750 -50 c 0
 729 -50 710 -37 703 -17 c 0xf4
 694 8 685 31 675 53 c 1
 641 -8 575 -50 500 -50 c 0
 390 -50 300 40 300 150 c 0
 300 260 390 350 500 350 c 0
 561 350 609 323 648 284 c 0
 695 234 753 138 797 17 c 0
 799 11 800 6 800 0 c 0
550 800 m 2
 550 450 l 2
 550 422 528 400 500 400 c 0
 472 400 450 422 450 450 c 2
 450 800 l 2
 450 828 472 850 500 850 c 0
 528 850 550 828 550 800 c 2
EndSplineSet
MultipleSubs2: "'cc01' CART" aTok combCartExtTok
MultipleSubs2: "'cc02' CONT" aTok combLongGlyphExtTok
Colour: bf80ff
EndChar

StartChar: akesiTok
Encoding: 97 989441 97
Width: 1000
HStem: -40 100<453.558 546.442> 160 100<177.438 300 412 588 700 822.562> 360 100<177.438 300 412 588 700 822.562> 560 100<453.558 546.442> 690 150<273.417 376.583 623.417 726.583>
VStem: 250 150<713.417 816.583> 300 100<260 360> 600 150<713.417 816.583> 600 100<260 360>
LayerCount: 2
Fore
SplineSet
675 690 m 0xf9
 634 690 600 724 600 765 c 0
 600 806 634 840 675 840 c 0
 716 840 750 806 750 765 c 0
 750 724 716 690 675 690 c 0xf9
588 160 m 1
 412 160 l 1
 417 143 423 126 431 112 c 0
 451 75 475 60 500 60 c 0
 525 60 549 75 569 112 c 0
 577 126 583 143 588 160 c 1
400 360 m 1xfa80
 400 260 l 1
 600 260 l 1
 600 360 l 1
 400 360 l 1xfa80
588 460 m 1
 583 477 577 494 569 508 c 0
 549 545 525 560 500 560 c 0
 475 560 451 545 431 508 c 0
 423 494 417 477 412 460 c 1
 588 460 l 1
500 660 m 0
 575 660 626 610 656 557 c 0
 672 527 684 494 691 460 c 1
 781 460 l 2
 809 460 831 438 831 410 c 0
 831 382 809 360 781 360 c 2
 700 360 l 1
 700 260 l 1
 781 260 l 2
 809 260 831 238 831 210 c 0
 831 182 809 160 781 160 c 2
 691 160 l 1
 684 126 672 93 656 63 c 0
 626 10 575 -40 500 -40 c 0
 425 -40 374 10 344 63 c 0
 328 93 316 126 309 160 c 1
 219 160 l 2
 191 160 169 182 169 210 c 0
 169 238 191 260 219 260 c 2
 300 260 l 1
 300 360 l 1
 219 360 l 2
 191 360 169 382 169 410 c 0
 169 438 191 460 219 460 c 2
 309 460 l 1
 316 494 328 527 344 557 c 0
 374 610 425 660 500 660 c 0
400 765 m 0xfc
 400 724 366 690 325 690 c 0
 284 690 250 724 250 765 c 0
 250 806 284 840 325 840 c 0
 366 840 400 806 400 765 c 0xfc
EndSplineSet
MultipleSubs2: "'cc01' CART" akesiTok combCartExtTok
MultipleSubs2: "'cc02' CONT" akesiTok combLongGlyphExtTok
Colour: bf80ff
EndChar

StartChar: alaTok
Encoding: 98 989442 98
Width: 1000
HStem: 0 21G<137 156 844 863>
LayerCount: 2
Fore
SplineSet
100 750 m 0
 100 776 124 800 150 800 c 0
 162 800 175 795 185 785 c 2
 500 471 l 1
 815 785 l 2
 825 795 838 800 850 800 c 0
 876 800 900 776 900 750 c 0
 900 738 895 725 885 715 c 2
 571 400 l 1
 885 85 l 2
 895 75 900 62 900 50 c 0
 900 24 876 0 850 0 c 0
 838 0 825 5 815 15 c 2
 500 329 l 1
 185 15 l 2
 175 5 162 0 150 0 c 0
 124 0 100 24 100 50 c 0
 100 62 105 75 115 85 c 2
 429 400 l 1
 115 715 l 2
 105 725 100 738 100 750 c 0
EndSplineSet
MultipleSubs2: "'cc01' CART" alaTok combCartExtTok
MultipleSubs2: "'cc02' CONT" alaTok combLongGlyphExtTok
Colour: bf80ff
EndChar

StartChar: alasaTok
Encoding: 99 989443 99
Width: 1000
HStem: 0 21G<236 364> 350 100<58.4375 200 300 541 639.587 779>
VStem: 200 100<103 350 450 697> 541 101<270.174 350 450 529.426>
LayerCount: 2
Fore
SplineSet
300 350 m 1
 300 103 l 1
 441 122 521 221 541 350 c 1
 300 350 l 1
541 450 m 1
 521 578 441 678 300 697 c 1
 300 450 l 1
 541 450 l 1
642 350 m 1
 620 154 478 0 250 0 c 0
 222 0 200 22 200 50 c 2
 200 350 l 1
 100 350 l 2
 72 350 50 372 50 400 c 0
 50 428 72 450 100 450 c 2
 200 450 l 1
 200 750 l 2
 200 778 222 800 250 800 c 0
 478 800 620 646 642 450 c 1
 779 450 l 1
 715 515 l 2
 705 525 700 538 700 550 c 0
 700 576 724 600 750 600 c 0
 762 600 775 595 785 585 c 2
 935 435 l 2
 944 426 950 416 950 400 c 0
 950 384 944 374 935 365 c 2
 785 215 l 2
 775 205 762 200 750 200 c 0
 724 200 700 224 700 250 c 0
 700 262 705 275 715 285 c 2
 779 350 l 1
 642 350 l 1
EndSplineSet
MultipleSubs2: "'cc01' CART" alasaTok combCartExtTok
MultipleSubs2: "'cc02' CONT" alasaTok combLongGlyphExtTok
Colour: bf80ff
EndChar

StartChar: aleTok
Encoding: 100 989444 100
Width: 1000
HStem: 150 100<196.12 317.517 682.483 803.88> 550 100<196.12 317.517 682.483 803.88>
VStem: 50 100<302.448 497.552> 850 100<302.448 497.552>
LayerCount: 2
Fore
SplineSet
563 400 m 1
 599 354 629 318 657 292 c 0
 690 262 717 250 746 250 c 0
 776 250 800 262 818 285 c 0
 837 309 850 348 850 400 c 0
 850 452 837 491 818 515 c 0
 800 538 776 550 746 550 c 0
 717 550 690 538 657 508 c 0
 629 482 599 446 563 400 c 1
437 400 m 1
 401 446 371 482 343 508 c 0
 310 538 283 550 254 550 c 0
 224 550 200 538 182 515 c 0
 163 491 150 452 150 400 c 0
 150 348 163 309 182 285 c 0
 200 262 224 250 254 250 c 0
 283 250 310 262 343 292 c 0
 371 318 401 354 437 400 c 1
50 400 m 0
 50 533 125 650 254 650 c 0
 317 650 367 622 411 582 c 0
 441 555 470 521 500 482 c 1
 530 521 559 555 589 582 c 0
 633 622 683 650 746 650 c 0
 875 650 950 533 950 400 c 0
 950 267 875 150 746 150 c 0
 683 150 633 178 589 218 c 0
 559 245 530 279 500 318 c 1
 470 279 441 245 411 218 c 0
 367 178 317 150 254 150 c 0
 125 150 50 267 50 400 c 0
EndSplineSet
MultipleSubs2: "'cc01' CART" aleTok combCartExtTok
MultipleSubs2: "'cc02' CONT" aleTok combLongGlyphExtTok
Colour: bf80ff
EndChar

StartChar: anpaTok
Encoding: 101 989445 101
Width: 1000
HStem: 100 150<448.417 551.583> 300 100<200 800>
VStem: 100 100<400 691.562> 425 150<123.417 226.583> 800 100<400 691.562>
CounterMasks: 1 38
LayerCount: 2
Fore
SplineSet
575 175 m 0
 575 134 541 100 500 100 c 0
 459 100 425 134 425 175 c 0
 425 216 459 250 500 250 c 0
 541 250 575 216 575 175 c 0
150 700 m 0
 178 700 200 678 200 650 c 2
 200 400 l 1
 800 400 l 1
 800 650 l 2
 800 678 822 700 850 700 c 0
 878 700 900 678 900 650 c 2
 900 350 l 2
 900 322 878 300 850 300 c 2
 150 300 l 2
 122 300 100 322 100 350 c 2
 100 650 l 2
 100 678 122 700 150 700 c 0
EndSplineSet
MultipleSubs2: "'cc01' CART" anpaTok combCartExtTok
MultipleSubs2: "'cc02' CONT" anpaTok combLongGlyphExtTok
Colour: bf80ff
EndChar

StartChar: anteTok
Encoding: 102 989446 102
Width: 1000
HStem: 0 21G<137 155 845 863>
LayerCount: 2
Fore
SplineSet
150 0 m 0
 124 0 100 22 100 50 c 0
 100 65 107 80 120 90 c 2
 470 352 l 2
 479 358 490 362 500 362 c 0
 510 362 521 358 530 352 c 2
 880 90 l 2
 893 80 900 65 900 50 c 0
 900 22 876 0 850 0 c 0
 840 0 829 3 820 10 c 2
 500 250 l 1
 180 10 l 2
 171 3 160 0 150 0 c 0
850 800 m 0
 876 800 900 778 900 750 c 0
 900 735 893 720 880 710 c 2
 530 448 l 2
 521 442 510 438 500 438 c 0
 490 438 479 442 470 448 c 2
 120 710 l 2
 107 720 100 735 100 750 c 0
 100 778 124 800 150 800 c 0
 160 800 171 797 180 790 c 2
 500 550 l 1
 820 790 l 2
 829 797 840 800 850 800 c 0
EndSplineSet
MultipleSubs2: "'cc01' CART" anteTok combCartExtTok
MultipleSubs2: "'cc02' CONT" anteTok combLongGlyphExtTok
Colour: bf80ff
EndChar

StartChar: anuTok
Encoding: 103 989447 103
Width: 1000
HStem: 0 21G<486 514>
VStem: 450 100<8.4375 421>
LayerCount: 2
Fore
SplineSet
150 750 m 0
 150 777 173 800 200 800 c 0
 213 800 226 795 236 785 c 2
 500 513 l 1
 764 785 l 2
 774 795 787 800 800 800 c 0
 827 800 850 777 850 750 c 0
 850 737 845 725 836 715 c 2
 550 421 l 1
 550 50 l 2
 550 22 528 0 500 0 c 0
 472 0 450 22 450 50 c 2
 450 421 l 1
 164 715 l 2
 155 725 150 737 150 750 c 0
EndSplineSet
MultipleSubs2: "'cc01' CART" anuTok combCartExtTok
MultipleSubs2: "'cc02' CONT" anuTok combLongGlyphExtTok
Colour: bf80ff
EndChar

StartChar: awenTok
Encoding: 104 989448 104
Width: 1000
HStem: 0 100<58.4375 215 785 941.562>
LayerCount: 2
Fore
SplineSet
547 767 m 2
 785 100 l 1
 900 100 l 2
 928 100 950 78 950 50 c 0
 950 22 928 0 900 0 c 2
 750 0 l 2
 729 0 710 13 703 33 c 2
 500 601 l 1
 297 33 l 2
 290 13 271 0 250 0 c 2
 100 0 l 2
 72 0 50 22 50 50 c 0
 50 78 72 100 100 100 c 2
 215 100 l 1
 453 767 l 2
 460 787 479 800 500 800 c 0
 521 800 540 787 547 767 c 2
EndSplineSet
MultipleSubs2: "'cc01' CART" awenTok combCartExtTok
MultipleSubs2: "'cc02' CONT" awenTok combLongGlyphExtTok
Colour: bf80ff
EndChar

StartChar: eTok
Encoding: 105 989449 105
Width: 1000
LayerCount: 2
Fore
SplineSet
450 800 m 0
 450 826 474 850 500 850 c 0
 512 850 525 845 535 835 c 2
 935 435 l 2
 945 425 950 412 950 400 c 0
 950 388 945 375 935 365 c 2
 535 -35 l 2
 525 -45 512 -50 500 -50 c 0
 474 -50 450 -26 450 0 c 0
 450 12 455 25 465 35 c 2
 829 400 l 1
 465 765 l 2
 455 775 450 788 450 800 c 0
50 800 m 0
 50 826 74 850 100 850 c 0
 112 850 125 845 135 835 c 2
 535 435 l 2
 545 425 550 412 550 400 c 0
 550 388 545 375 535 365 c 2
 135 -35 l 2
 125 -45 112 -50 100 -50 c 0
 74 -50 50 -26 50 0 c 0
 50 12 55 25 65 35 c 2
 429 400 l 1
 65 765 l 2
 55 775 50 788 50 800 c 0
EndSplineSet
MultipleSubs2: "'cc01' CART" eTok combCartExtTok
MultipleSubs2: "'cc02' CONT" eTok combLongGlyphExtTok
Colour: bf80ff
EndChar

StartChar: enTok
Encoding: 106 989450 106
Width: 1000
HStem: 0 21G<486 514> 350 100<108.438 450 550 891.562>
VStem: 450 100<8.4375 350 450 791.562>
LayerCount: 2
Fore
SplineSet
550 750 m 2
 550 450 l 1
 850 450 l 2
 878 450 900 428 900 400 c 0
 900 372 878 350 850 350 c 2
 550 350 l 1
 550 50 l 2
 550 22 528 0 500 0 c 0
 472 0 450 22 450 50 c 2
 450 350 l 1
 150 350 l 2
 122 350 100 372 100 400 c 0
 100 428 122 450 150 450 c 2
 450 450 l 1
 450 750 l 2
 450 778 472 800 500 800 c 0
 528 800 550 778 550 750 c 2
EndSplineSet
MultipleSubs2: "'cc01' CART" enTok combCartExtTok
MultipleSubs2: "'cc02' CONT" enTok combLongGlyphExtTok
Colour: bf80ff
EndChar

StartChar: esunTok
Encoding: 107 989451 107
Width: 1000
HStem: -50 100<168.637 313.215> 241 95<531 576.918> 261 100<196.465 397.515> 439 100<600 792.961> 463 96<428.781 468> 750 100<688.805 831.363>
VStem: 50 100<68.6372 213.873 775.285 779 780.282 819.999 820 841.136> 850 100<-12.9993 37.2818 590.101 731.363>
LayerCount: 2
Fore
SplineSet
600 542 m 1x97
 625 540 651 539 678 539 c 0
 759 539 799 559 820 580 c 0
 841 601 850 630 850 667 c 0
 850 704 841 721 831 731 c 0
 821 741 804 750 767 750 c 0
 731 750 705 741 686 726 c 0
 666 711 648 688 636 651 c 0
 628 628 615 588 600 542 c 1x97
399 256 m 1
 364 259 327 261 287 261 c 0xa7
 227 261 195 243 178 223 c 0
 160 202 150 170 150 133 c 0
 150 96 159 79 169 69 c 0
 179 59 196 50 233 50 c 0
 270 50 295 58 314 72 c 0
 333 86 351 109 364 149 c 0
 372 173 384 211 399 256 c 1
50 800 m 0
 50 825 69 850 100 850 c 0
 119 850 138 839 146 820 c 2
 146 820 147 819 147 818 c 0
 154 805 157 796 169 779 c 0
 186 753 214 718 255 682 c 0
 310 634 389 585 500 559 c 1xaf
 518 612 533 657 542 683 c 0
 559 734 585 776 625 806 c 0
 665 836 714 850 767 850 c 0
 819 850 867 837 902 802 c 0
 937 767 950 719 950 667 c 0
 950 615 937 555 891 509 c 0
 845 463 775 439 678 439 c 0
 639 439 603 441 568 445 c 1
 556 409 543 372 531 336 c 1
 668 305 763 251 827 193 c 0
 875 150 905 105 923 72 c 0
 935 49 941 37 947 18 c 0
 947 16 948 16 948 15 c 2
 948 12 l 2
 949 8 950 3 950 -1 c 0
 950 -26 929 -50 899 -50 c 0
 877 -50 858 -36 852 -13 c 1
 852 -13 851 -12 851 -11 c 0
 851 -10 850 -7 849 -4 c 0
 846 3 842 13 835 25 c 0
 822 50 799 83 760 118 c 0
 708 164 627 214 500 241 c 1xd7
 483 189 468 145 459 118 c 0
 441 65 414 20 374 -9 c 0
 334 -39 285 -50 233 -50 c 0
 181 -50 133 -37 98 -2 c 0
 63 33 50 81 50 133 c 0
 50 185 63 243 102 288 c 0
 142 335 205 361 287 361 c 0
 339 361 387 358 432 353 c 1
 444 389 456 426 468 463 c 1xaf
 345 494 254 550 189 607 c 0
 141 649 107 692 86 724 c 0
 75 740 67 753 62 763 c 0
 59 769 55 773 55 779 c 1
 54 780 l 2
 51 786 50 793 50 800 c 0
EndSplineSet
MultipleSubs2: "'cc01' CART" esunTok combCartExtTok
MultipleSubs2: "'cc02' CONT" esunTok combLongGlyphExtTok
Colour: bf80ff
EndChar

StartChar: ijoTok
Encoding: 108 989452 108
Width: 1000
HStem: -50 100<383.579 616.421> 750 100<383.579 616.421>
VStem: 50 100<283.579 516.421> 850 100<283.579 516.421>
LayerCount: 2
Fore
SplineSet
500 -50 m 0
 251 -50 50 151 50 400 c 0
 50 649 251 850 500 850 c 0
 749 850 950 649 950 400 c 0
 950 151 749 -50 500 -50 c 0
500 50 m 0
 693 50 850 207 850 400 c 0
 850 593 693 750 500 750 c 0
 307 750 150 593 150 400 c 0
 150 207 307 50 500 50 c 0
EndSplineSet
MultipleSubs2: "'cc01' CART" ijoTok combCartExtTok
MultipleSubs2: "'cc02' CONT" ijoTok combLongGlyphExtTok
Colour: bf80ff
EndChar

StartChar: ikeTok
Encoding: 109 989453 109
Width: 1000
HStem: 475 100<381.913 618.087>
VStem: 802 98<233.714 310.84>
LayerCount: 2
Fore
SplineSet
900 275 m 0
 900 250 881 225 850 225 c 0
 828 225 808 239 802 262 c 0
 768 382 648 475 500 475 c 0
 352 475 232 382 198 262 c 0
 192 239 172 225 150 225 c 0
 119 225 100 250 100 275 c 0
 100 279 101 284 102 288 c 0
 149 455 311 575 500 575 c 0
 689 575 851 455 898 288 c 0
 899 284 900 279 900 275 c 0
EndSplineSet
MultipleSubs2: "'cc01' CART" ikeTok combCartExtTok
MultipleSubs2: "'cc02' CONT" ikeTok combLongGlyphExtTok
Colour: bf80ff
EndChar

StartChar: iloTok
Encoding: 110 989454 110
Width: 1000
HStem: 350 100<200 450 550 800> 700 100<200 450 550 800>
VStem: 100 100<450 700> 450 100<-41.5625 350 450 700> 800 100<450 700>
CounterMasks: 1 38
LayerCount: 2
Fore
SplineSet
450 700 m 1
 200 700 l 1
 200 450 l 1
 450 450 l 1
 450 700 l 1
550 450 m 1
 800 450 l 1
 800 700 l 1
 550 700 l 1
 550 450 l 1
100 750 m 2
 100 778 122 800 150 800 c 2
 850 800 l 2
 878 800 900 778 900 750 c 2
 900 400 l 2
 900 372 878 350 850 350 c 2
 550 350 l 1
 550 0 l 2
 550 -28 528 -50 500 -50 c 0
 472 -50 450 -28 450 0 c 2
 450 350 l 1
 150 350 l 2
 122 350 100 372 100 400 c 2
 100 750 l 2
EndSplineSet
MultipleSubs2: "'cc01' CART" iloTok combCartExtTok
MultipleSubs2: "'cc02' CONT" iloTok combLongGlyphExtTok
Colour: bf80ff
EndChar

StartChar: insaTok
Encoding: 111 989455 111
Width: 1000
HStem: 200 100<250 750> 400 150<448.417 551.583>
VStem: 150 100<300 591.562> 425 150<423.417 526.583> 750 100<300 591.562>
CounterMasks: 1 38
LayerCount: 2
Fore
SplineSet
200 600 m 0
 228 600 250 578 250 550 c 2
 250 300 l 1
 750 300 l 1
 750 550 l 2
 750 578 772 600 800 600 c 0
 828 600 850 578 850 550 c 2
 850 250 l 2
 850 222 828 200 800 200 c 2
 200 200 l 2
 172 200 150 222 150 250 c 2
 150 550 l 2
 150 578 172 600 200 600 c 0
575 475 m 0
 575 434 541 400 500 400 c 0
 459 400 425 434 425 475 c 0
 425 516 459 550 500 550 c 0
 541 550 575 516 575 475 c 0
EndSplineSet
MultipleSubs2: "'cc01' CART" insaTok combCartExtTok
MultipleSubs2: "'cc02' CONT" insaTok combLongGlyphExtTok
Colour: bf80ff
EndChar

StartChar: jakiTok
Encoding: 112 989456 112
Width: 1000
HStem: -31 100<280.701 462.651> 107 100<612 650.4> 686 100<489.252 775.475>
VStem: 109 100<119.271 165.661> 215 204<683 780> 511 101<227 273.965>
LayerCount: 2
Fore
SplineSet
495 126 m 1
 446 144 386 186 347 218 c 1
 307 203 246 180 223 160 c 0
 211 150 209 145 209 141 c 0
 210 140 212 137 217 131 c 0
 226 122 240 111 259 101 c 0
 297 81 342 69 369 69 c 0
 438 69 474 87 495 126 c 1
750 393 m 1
 694 366 643 341 588 317 c 0
 589 314 591 312 592 309 c 0
 607 279 612 252 612 207 c 1
 632 207 l 1
 683 263 718 320 750 393 c 1
497 275 m 1
 484 269 472 264 459 259 c 1
 476 248 494 234 511 227 c 1
 511 233 510 239 509 244 c 0
 509 246 502 267 497 275 c 1
418 393 m 1
 382 375 367 362 362 354 c 0
 361 353 361 352 361 352 c 2
 361 351 361 347 368 338 c 0
 369 336 371 335 372 333 c 0
 396 342 419 350 442 360 c 1
 434 371 426 382 418 393 c 1
450 515 m 1
 484 528 521 542 562 556 c 0
 648 586 707 613 743 637 c 0
 760 648 770 657 776 664 c 1
 772 666 767 668 760 670 c 0
 732 679 686 686 622 686 c 0
 559 686 463 667 370 612 c 1
 392 585 421 551 450 515 c 1
369 830 m 0
 394 830 419 809 419 780 c 0
 419 760 407 743 389 734 c 1
 475 772 559 786 622 786 c 0
 690 786 749 779 792 765 c 0
 833 751 881 722 881 668 c 0
 881 642 869 619 855 602 c 0
 841 585 821 568 798 553 c 0
 752 523 685 492 595 461 c 0
 565 451 537 441 513 432 c 1
 520 422 528 413 535 403 c 1
 563 416 596 430 626 445 c 0
 683 471 748 502 819 536 c 0
 826 539 833 541 841 541 c 0
 870 541 890 519 890 491 c 0
 890 486 890 480 888 475 c 0
 838 325 788 224 690 122 c 2
 675 107 l 1
 654 107 l 2
 634 107 614 107 596 108 c 1
 594 101 591 94 588 88 c 0
 556 17 477 -31 369 -31 c 0
 291 -31 193 14 146 61 c 0
 128 79 109 105 109 139 c 0
 109 182 133 214 160 237 c 0
 192 264 234 280 276 298 c 1
 269 312 264 326 262 342 c 0
 262 346 261 349 261 353 c 0
 261 373 268 392 278 408 c 0
 295 435 323 455 355 473 c 1
 321 516 287 554 257 591 c 0
 238 613 215 643 215 683 c 0
 215 724 240 750 264 770 c 0
 284 787 311 804 344 823 c 0
 352 828 360 830 369 830 c 0
EndSplineSet
Ligature2: "'liga' VAR" jakiTok_VAR01 VAR09
Ligature2: "'liga' VAR" jakiTok_VAR02 VAR09
Ligature2: "'liga' VAR" jakiTok_VAR03 VAR09
Ligature2: "'liga' VAR" jakiTok_VAR04 VAR09
Ligature2: "'liga' VAR" jakiTok_VAR05 VAR09
Ligature2: "'liga' VAR" jakiTok_VAR06 VAR09
Ligature2: "'liga' VAR" jakiTok_VAR07 VAR09
Ligature2: "'liga' VAR" jakiTok_VAR08 VAR09
AlternateSubs2: "'rand' RAND VARIATIONS" jakiTok_VAR01 jakiTok_VAR02 jakiTok_VAR03 jakiTok_VAR04 jakiTok_VAR05 jakiTok_VAR06 jakiTok_VAR07 jakiTok_VAR08
MultipleSubs2: "'cc01' CART" jakiTok combCartExtTok
MultipleSubs2: "'cc02' CONT" jakiTok combLongGlyphExtTok
Colour: bf80ff
EndChar

StartChar: janTok
Encoding: 113 989457 113
Width: 1000
HStem: 50 100<388.905 611.095> 750 100<390.166 609.834>
VStem: 100 100<339.858 559.834> 800 100<339.858 559.834>
LayerCount: 2
Fore
SplineSet
200 450 m 0
 200 284 334 150 500 150 c 0
 666 150 800 284 800 450 c 0
 800 616 666 750 500 750 c 0
 334 750 200 616 200 450 c 0
101 -50 m 0
 74 -50 51 -28 51 0 c 0
 51 14 57 28 68 38 c 2
 218 166 l 1
 145 238 100 339 100 450 c 0
 100 671 279 850 500 850 c 0
 721 850 900 671 900 450 c 0
 900 339 855 238 782 166 c 1
 932 38 l 2
 944 28 950 14 950 0 c 0
 950 -27 926 -50 900 -50 c 0
 889 -50 877 -46 868 -38 c 2
 701 104 l 1
 642 70 573 50 500 50 c 0
 427 50 358 70 299 104 c 1
 134 -38 l 2
 124 -46 113 -50 101 -50 c 0
EndSplineSet
MultipleSubs2: "'cc01' CART" janTok combCartExtTok
MultipleSubs2: "'cc02' CONT" janTok combLongGlyphExtTok
Colour: bf80ff
EndChar

StartChar: jeloTok
Encoding: 114 989458 114
Width: 1000
HStem: -70 100<356 644> 547 100<228.438 330.667 669.333 771.562> 681 196<458.526 541.474>
VStem: 220 197<556.064 637.936> 450 100<375 426.7 767.3 868.562> 583 197<556.064 637.936>
CounterMasks: 1 1c
LayerCount: 2
Fore
SplineSet
644 30 m 1
 500 265 l 1
 356 30 l 1
 644 30 l 1
583 597 m 0
 583 644 546 681 500 681 c 0
 454 681 417 644 417 597 c 0
 417 550 454 513 500 513 c 0
 546 513 583 550 583 597 c 0
266 -70 m 2
 241 -70 217 -49 217 -20 c 0
 217 -11 219 -2 224 6 c 2
 450 375 l 1
 450 420 l 1
 389 437 341 486 324 547 c 1
 270 547 l 2
 242 547 220 569 220 597 c 0
 220 625 242 647 270 647 c 2
 324 647 l 1
 341 708 389 757 450 774 c 1
 450 827 l 2
 450 855 472 877 500 877 c 0
 528 877 550 855 550 827 c 2
 550 774 l 1
 611 757 659 708 676 647 c 1
 730 647 l 2
 758 647 780 625 780 597 c 0
 780 569 758 547 730 547 c 2
 676 547 l 1
 659 486 611 437 550 420 c 1
 550 375 l 1
 776 6 l 2
 781 -2 783 -11 783 -20 c 0
 783 -49 759 -70 734 -70 c 2
 266 -70 l 2
EndSplineSet
MultipleSubs2: "'cc01' CART" jeloTok combCartExtTok
MultipleSubs2: "'cc02' CONT" jeloTok combLongGlyphExtTok
Colour: bf80ff
EndChar

StartChar: joTok
Encoding: 115 989459 115
Width: 1000
HStem: -50 100<410.965 588.362> 250 100<503.438 716> 450 100<438.466 560.473> 750 100<439.527 560.473>
VStem: 180 100<196.443 408.223> 300 100<588.158 710.473> 600 100<589.527 710.473>
LayerCount: 2
Fore
SplineSet
600 650 m 0
 600 705 555 750 500 750 c 0
 445 750 400 705 400 650 c 0
 400 595 445 550 500 550 c 0
 555 550 600 595 600 650 c 0
700 650 m 0
 700 540 610 450 500 450 c 0
 449 450 403 469 368 500 c 1
 315 455 280 383 280 300 c 0
 280 157 383 50 500 50 c 0
 603 50 695 133 716 250 c 1
 545 250 l 2
 517 250 495 272 495 300 c 0
 495 328 517 350 545 350 c 2
 770 350 l 2
 798 350 820 328 820 300 c 0
 820 112 682 -50 500 -50 c 0
 318 -50 180 112 180 300 c 0
 180 415 230 519 311 583 c 1
 304 604 300 627 300 650 c 0
 300 760 390 850 500 850 c 0
 610 850 700 760 700 650 c 0
EndSplineSet
MultipleSubs2: "'cc01' CART" joTok combCartExtTok
MultipleSubs2: "'cc02' CONT" joTok combLongGlyphExtTok
Colour: bf80ff
EndChar

StartChar: kalaTok
Encoding: 116 989460 116
Width: 1000
HStem: 125 100<522.541 752.945> 575 100<522.101 752.945>
VStem: 50 95<153 191.623 609.133 647> 850 100<313.252 486.748>
LayerCount: 2
Fore
SplineSet
616 575 m 1
 509 571 406 494 320 400 c 1
 406 306 510 229 616 225 c 1
 633 225 l 2
 703 225 756 242 791 269 c 0
 827 297 850 339 850 400 c 0
 850 461 827 503 791 531 c 0
 756 558 703 575 633 575 c 2
 616 575 l 1
50 624 m 0
 50 649 70 675 100 675 c 0
 118 675 135 665 144 648 c 1
 145 647 l 2
 145 646 146 645 147 644 c 0
 149 641 151 636 154 630 c 0
 160 619 171 603 183 583 c 0
 202 553 225 516 255 477 c 1
 346 574 470 669 612 675 c 1
 634 675 l 2
 718 675 795 654 852 611 c 0
 916 562 950 489 950 400 c 0
 950 311 916 238 852 189 c 0
 795 146 718 125 634 125 c 2
 612 125 l 1
 470 131 346 226 255 323 c 1
 213 268 182 222 154 170 c 0
 151 164 149 159 147 156 c 0
 146 155 145 154 145 153 c 2
 144 152 l 1
 135 135 118 125 100 125 c 0
 71 125 50 150 50 175 c 0
 50 183 52 191 56 198 c 1
 56 199 l 1
 61 204 61 211 67 219 c 0
 74 232 85 250 98 271 c 0
 120 307 151 352 189 400 c 1
 151 448 120 493 98 529 c 0
 85 550 74 568 67 581 c 0
 61 590 61 596 56 601 c 0
 52 608 50 616 50 624 c 0
EndSplineSet
MultipleSubs2: "'cc01' CART" kalaTok combCartExtTok
MultipleSubs2: "'cc02' CONT" kalaTok combLongGlyphExtTok
Colour: bf80ff
EndChar

StartChar: kalamaTok
Encoding: 117 989461 117
Width: 1000
HStem: 1 100<401.665 598.335> 301 100<255 745> 513 284<458.438 541.562>
VStem: 450 100<521.438 788.562>
LayerCount: 2
Fore
SplineSet
500 797 m 0
 528 797 550 775 550 747 c 2
 550 563 l 2
 550 535 528 513 500 513 c 0
 472 513 450 535 450 563 c 2
 450 747 l 2
 450 775 472 797 500 797 c 0
200 696 m 0
 200 721 221 745 251 745 c 0
 270 745 288 733 296 714 c 2
 366 544 l 2
 369 537 370 530 370 524 c 0
 370 499 349 475 319 475 c 0
 300 475 282 487 274 506 c 2
 204 676 l 2
 201 683 200 690 200 696 c 0
681 475 m 0
 651 475 630 499 630 524 c 0
 630 530 631 537 634 544 c 2
 704 714 l 2
 712 733 730 745 749 745 c 0
 779 745 800 721 800 696 c 0
 800 690 799 683 796 676 c 2
 726 506 l 2
 718 487 700 475 681 475 c 0
255 301 m 1
 278 187 379 101 500 101 c 0
 621 101 722 187 745 301 c 1
 255 301 l 1
150 351 m 0
 150 379 172 401 200 401 c 2
 800 401 l 2
 828 401 850 379 850 351 c 0
 850 158 693 1 500 1 c 0
 307 1 150 158 150 351 c 0
EndSplineSet
MultipleSubs2: "'cc01' CART" kalamaTok combCartExtTok
MultipleSubs2: "'cc02' CONT" kalamaTok combLongGlyphExtTok
Colour: bf80ff
EndChar

StartChar: kamaTok
Encoding: 118 989462 118
Width: 1000
HStem: 0 100<558.438 734.456>
LayerCount: 2
Fore
SplineSet
50 138 m 0
 50 165 74 188 100 188 c 0
 111 188 123 184 132 176 c 0
 186 131 243 107 315 101 c 1
 553 767 l 2
 560 787 578 800 599 800 c 0
 620 800 638 788 646 769 c 2
 896 156 l 2
 899 150 900 143 900 137 c 0
 900 126 896 116 889 107 c 1
 889 106 l 1
 888 106 l 2
 887 104 885 102 883 100 c 0
 864 81 849 68 817 50 c 0
 770 24 699 0 600 0 c 0
 572 0 550 22 550 50 c 0
 550 78 572 100 600 100 c 0
 697 100 748 123 790 151 c 1
 603 610 l 1
 397 33 l 2
 390 13 371 0 350 0 c 0
 239 0 150 31 68 99 c 0
 56 109 50 124 50 138 c 0
EndSplineSet
MultipleSubs2: "'cc01' CART" kamaTok combCartExtTok
MultipleSubs2: "'cc02' CONT" kamaTok combLongGlyphExtTok
Colour: bf80ff
EndChar

StartChar: kasiTok
Encoding: 119 989463 119
Width: 1000
HStem: 359 100<262.757 447.876> 416 100<550.17 738.064> 737 100<661.164 849.731>
VStem: 50 100<540.13 707.5> 450 100<-40.5625 371 518.185 564.941> 850 100<603.063 733.67>
CounterMasks: 1 1c
LayerCount: 2
Fore
SplineSet
545 525 m 0x7c
 553 520 582 516 601 516 c 0
 639 516 686 523 730 535 c 0
 774 548 802 565 820 589 c 0
 838 612 850 647 850 700 c 0
 850 717 850 727 849 734 c 0
 845 735 840 735 831 736 c 0
 811 737 784 737 744 737 c 0
 700 737 671 728 644 703 c 0
 614 676 583 625 547 532 c 0
 546 529 545 527 545 525 c 0x7c
445 511 m 0
 429 601 378 632 310 669 c 0
 280 685 229 704 155 709 c 1
 150 684 150 655 150 614 c 0
 150 580 160 554 177 533 c 0
 194 512 222 494 262 481 c 0
 307 466 343 459 374 459 c 0
 376 459 378 459 380 459 c 0xbc
 403 460 425 466 449 478 c 1
 448 486 448 494 447 501 c 0
 446 504 445 508 445 511 c 0
50 614 m 2
 50 619 l 2
 50 672 50 728 73 780 c 0
 81 798 99 810 119 810 c 0
 230 810 309 784 359 757 c 0
 397 736 446 708 485 660 c 0
 487 658 488 656 490 654 c 1
 516 707 544 748 576 777 c 0
 626 823 683 837 744 837 c 2
 745 837 l 2
 783 837 813 837 837 836 c 0
 859 835 885 831 905 820 c 0
 948 797 950 760 950 703 c 0
 950 702 950 701 950 700 c 0
 950 632 935 574 900 528 c 0
 865 482 815 454 757 438 c 0
 709 425 653 416 603 416 c 0x7c
 586 416 569 417 554 419 c 2
 550 419 l 1
 550 1 l 2
 550 -27 528 -49 500 -49 c 0
 472 -49 450 -27 450 1 c 2
 450 371 l 1
 429 364 407 360 384 359 c 0
 380 359 376 359 372 359 c 0
 326 359 280 369 231 385 c 0
 133 416 50 491 50 614 c 2
EndSplineSet
MultipleSubs2: "'cc01' CART" kasiTok combCartExtTok
MultipleSubs2: "'cc02' CONT" kasiTok combLongGlyphExtTok
Colour: bf80ff
EndChar

StartChar: kenTok
Encoding: 120 989464 120
Width: 1000
HStem: 349 102<300 431.391>
VStem: 200 100<-41.5625 349 451 841.562> 700 100<-41.5625 103.042 699.784 841.562>
LayerCount: 2
Fore
SplineSet
800 7 m 2
 800 0 l 2
 800 -28 778 -50 750 -50 c 0
 722 -50 700 -28 700 0 c 2
 700 2 l 2
 700 4 699 8 699 13 c 0
 698 22 696 35 693 52 c 0
 686 85 672 130 645 174 c 0
 596 252 500 337 300 349 c 1
 300 0 l 2
 300 -28 278 -50 250 -50 c 0
 222 -50 200 -28 200 0 c 2
 200 800 l 2
 200 828 222 850 250 850 c 0
 278 850 300 828 300 800 c 2
 300 451 l 1
 500 463 596 548 645 626 c 0
 672 670 686 715 693 748 c 0
 696 765 698 778 699 787 c 0
 699 792 700 796 700 798 c 2
 700 800 l 2
 700 828 722 850 750 850 c 0
 778 850 800 828 800 800 c 2
 800 793 l 2
 800 770 796 755 791 727 c 0
 759 580 671 462 524 400 c 1
 623 358 688 293 730 226 c 0
 765 170 782 115 791 73 c 0
 796 45 800 30 800 7 c 2
EndSplineSet
MultipleSubs2: "'cc01' CART" kenTok combCartExtTok
MultipleSubs2: "'cc02' CONT" kenTok combLongGlyphExtTok
Colour: bf80ff
EndChar

StartChar: kepekenTok
Encoding: 121 989465 121
Width: 1000
HStem: 460 100<270 450 550 730> 750 100<270 450 550 730>
VStem: 170 100<560 750> 450 100<390.502 460 560 750> 677 100<-41.5625 187.373> 730 100<560 750>
LayerCount: 2
Fore
SplineSet
450 750 m 1xf0
 270 750 l 1
 270 560 l 1
 450 560 l 1
 450 750 l 1xf0
550 560 m 1
 730 560 l 1
 730 750 l 1xf4
 550 750 l 1
 550 560 l 1
107 170 m 0
 107 195 129 220 157 220 c 0
 173 220 188 212 198 198 c 2
 229 154 l 1
 251 272 334 372 450 395 c 1
 450 460 l 1
 220 460 l 2
 192 460 170 482 170 510 c 2
 170 800 l 2
 170 828 192 850 220 850 c 2
 780 850 l 2
 808 850 830 828 830 800 c 2
 830 510 l 2xf4
 830 482 808 460 780 460 c 2
 550 460 l 1
 550 395 l 1
 686 368 777 233 777 90 c 2
 777 0 l 2
 777 -28 755 -50 727 -50 c 0
 699 -50 677 -28 677 0 c 2
 677 90 l 2xf8
 677 210 594 300 500 300 c 0
 406 300 323 210 323 90 c 2
 323 0 l 2
 323 -26 303 -50 273 -50 c 0
 256 -50 240 -42 231 -28 c 2
 116 142 l 2
 110 151 107 160 107 170 c 0
EndSplineSet
MultipleSubs2: "'cc01' CART" kepekenTok combCartExtTok
MultipleSubs2: "'cc02' CONT" kepekenTok combLongGlyphExtTok
Colour: bf80ff
EndChar

StartChar: kiliTok
Encoding: 122 989466 122
Width: 1000
HStem: -52 100<383.012 616.988> 606 100<201.671 364.375 632.912 793.838>
VStem: 50 100<281.012 536.421> 450 100<651 735.987> 850 100<281.012 529.708>
CounterMasks: 1 38
LayerCount: 2
Fore
SplineSet
420 540 m 0
 390 579 334 609 259 610 c 0
 238 610 215 602 195 578 c 0
 174 552 150 499 150 398 c 0
 150 203 305 48 500 48 c 0
 695 48 850 203 850 398 c 0
 850 496 826 548 805 574 c 0
 785 598 763 606 740 606 c 0
 662 606 613 583 580 540 c 0
 561 515 531 500 500 500 c 0
 469 500 439 515 420 540 c 0
395 800 m 0
 395 826 417 850 444 850 c 0
 459 850 472 844 483 833 c 2
 483 833 484 833 484 832 c 0
 489 827 493 822 498 814 c 0
 524 775 550 720 550 651 c 1
 598 687 666 706 740 706 c 0
 841 706 950 625 950 398 c 0
 950 148 750 -52 500 -52 c 0
 250 -52 50 148 50 398 c 0
 50 629 158 710 258 710 c 2
 260 710 l 2
 334 709 401 687 450 650 c 1
 450 695 434 732 416 757 c 0
 413 761 411 763 410 765 c 0
 400 775 395 788 395 800 c 0
EndSplineSet
MultipleSubs2: "'cc01' CART" kiliTok combCartExtTok
MultipleSubs2: "'cc02' CONT" kiliTok combLongGlyphExtTok
Colour: bf80ff
EndChar

StartChar: kiwenTok
Encoding: 123 989467 123
Width: 1000
HStem: 710 100<280 720>
LayerCount: 2
Fore
SplineSet
839 532 m 1
 720 710 l 1
 280 710 l 1
 161 532 l 1
 500 83 l 1
 839 532 l 1
500 -50 m 0
 484 -50 469 -43 460 -30 c 2
 60 500 l 2
 53 509 50 519 50 530 c 0
 50 540 52 550 58 558 c 2
 211 788 l 2
 220 802 236 810 253 810 c 2
 747 810 l 2
 764 810 780 802 789 788 c 2
 942 558 l 2
 948 550 950 540 950 530 c 0
 950 519 947 509 940 500 c 2
 540 -30 l 2
 531 -43 516 -50 500 -50 c 0
EndSplineSet
MultipleSubs2: "'cc01' CART" kiwenTok combCartExtTok
MultipleSubs2: "'cc02' CONT" kiwenTok combLongGlyphExtTok
Colour: bf80ff
EndChar

StartChar: koTok
Encoding: 124 989468 124
Width: 1000
HStem: -40 100<291.928 428.368 570.859 708.131> 575 99<205.796 290.99 709.01 794.204> 740 100<430.571 569.066>
VStem: 50 100<381.987 521.214> 136 100<116.773 254.157> 763 101<114.754 254.088> 850 100<381.603 520.946>
LayerCount: 2
Fore
SplineSet
673 566 m 0xe2
 648 566 623 587 623 617 c 0
 623 685 568 740 500 740 c 0
 434 740 380 688 377 622 c 0
 378 615 376 608 374 601 c 0
 367 580 348 566 327 566 c 0
 322 566 316 567 311 569 c 0
 298 573 285 575 273 575 c 0
 211 575 150 526 150 451 c 0xf2
 150 399 183 351 235 334 c 0
 256 327 270 308 270 287 c 0
 270 273 263 261 257 253 c 0
 243 232 236 208 236 184 c 0
 236 121 290 60 359 60 c 0
 397 60 435 78 459 111 c 0
 469 125 485 132 500 132 c 0
 515 132 530 124 540 111 c 0
 564 78 602 60 640 60 c 0
 665 60 690 68 712 84 c 0
 745 108 763 146 763 184 c 0xec
 763 209 756 234 740 256 c 0
 733 265 730 275 730 286 c 0
 730 307 744 327 765 334 c 0
 817 351 850 399 850 451 c 0
 850 526 789 575 727 575 c 0
 715 575 702 573 689 569 c 0
 684 567 678 566 673 566 c 0xe2
50 451 m 0
 50 586 161 674 273 674 c 2
 284 674 l 1
 309 769 397 840 500 840 c 0
 603 840 691 769 716 674 c 1
 727 674 l 2
 839 674 950 586 950 450 c 0xf2
 950 375 912 305 849 264 c 1
 859 238 864 212 864 185 c 0
 864 116 832 47 771 3 c 0
 731 -26 685 -40 640 -40 c 0
 590 -40 541 -23 500 10 c 1
 459 -23 409 -40 359 -40 c 0
 314 -40 268 -26 228 3 c 0
 168 47 136 114 136 183 c 0xec
 136 210 141 238 151 264 c 1
 88 305 50 376 50 451 c 0
EndSplineSet
Ligature2: "'liga' VAR" koTok_VAR01 VAR09
Ligature2: "'liga' VAR" koTok_VAR02 VAR09
Ligature2: "'liga' VAR" koTok_VAR03 VAR09
Ligature2: "'liga' VAR" koTok_VAR04 VAR09
Ligature2: "'liga' VAR" koTok_VAR05 VAR09
Ligature2: "'liga' VAR" koTok_VAR06 VAR09
Ligature2: "'liga' VAR" koTok_VAR07 VAR09
Ligature2: "'liga' VAR" koTok_VAR08 VAR09
AlternateSubs2: "'rand' RAND VARIATIONS" koTok_VAR01 koTok_VAR02 koTok_VAR03 koTok_VAR04 koTok_VAR05 koTok_VAR06 koTok_VAR07 koTok_VAR08
MultipleSubs2: "'cc01' CART" koTok combCartExtTok
MultipleSubs2: "'cc02' CONT" koTok combLongGlyphExtTok
Colour: bf80ff
EndChar

StartChar: konTok
Encoding: 125 989469 125
Width: 1000
HStem: -50 98<182.912 275.123 582.912 675.123> 751 100<321.558 417.191 721.558 817.191>
VStem: 150 100<527.275 681.792> 350 100<118.659 272.91> 550 100<527.275 681.792> 750 100<118.659 272.91>
LayerCount: 2
Fore
SplineSet
376 851 m 0
 400 851 427 830 427 800 c 0
 427 778 411 757 388 751 c 0
 350 741 324 734 303 719 c 0
 285 706 267 685 256 642 c 0
 252 627 250 614 250 601 c 0
 250 546 284 501 339 432 c 0
 340 429 343 428 344 425 c 0
 394 362 450 292 450 199 c 0
 450 107 405 36 355 1 c 0
 319 -24 278 -37 242 -47 c 0
 241 -47 239 -48 238 -48 c 0
 233 -49 228 -50 223 -50 c 0
 198 -50 174 -30 174 1 c 0
 174 23 188 41 210 48 c 0
 250 59 277 68 298 83 c 0
 316 96 333 116 344 158 c 0
 348 172 350 185 350 198 c 0
 350 254 316 300 261 368 c 0
 259 371 259 372 256 375 c 0
 205 439 150 508 150 601 c 0
 150 692 195 765 245 800 c 0
 283 827 326 840 364 849 c 0
 368 850 372 851 376 851 c 0
776 851 m 0
 800 851 827 830 827 800 c 0
 827 778 811 757 788 751 c 0
 750 741 724 734 703 719 c 0
 685 706 667 685 656 642 c 0
 652 627 650 614 650 601 c 0
 650 546 684 501 739 432 c 0
 740 429 743 428 744 425 c 0
 794 362 850 292 850 199 c 0
 850 107 805 36 755 1 c 0
 719 -24 678 -37 642 -47 c 0
 641 -47 639 -48 638 -48 c 0
 633 -49 628 -50 623 -50 c 0
 598 -50 574 -30 574 1 c 0
 574 23 588 41 610 48 c 0
 650 59 677 68 698 83 c 0
 716 96 733 116 744 158 c 0
 748 172 750 185 750 198 c 0
 750 254 716 300 661 368 c 0
 659 371 659 372 656 375 c 0
 605 439 550 508 550 601 c 0
 550 692 595 765 645 800 c 0
 683 827 726 840 764 849 c 0
 768 850 772 851 776 851 c 0
EndSplineSet
MultipleSubs2: "'cc01' CART" konTok combCartExtTok
MultipleSubs2: "'cc02' CONT" konTok combLongGlyphExtTok
Colour: bf80ff
EndChar

StartChar: kuleTok
Encoding: 126 989470 126
Width: 1000
HStem: 0 100<197 803> 300 100<58.4375 197 370 630 803 941.562>
LayerCount: 2
Fore
SplineSet
312 300 m 1
 197 100 l 1
 803 100 l 1
 688 300 l 1
 312 300 l 1
630 400 m 1
 500 625 l 1
 370 400 l 1
 630 400 l 1
110 0 m 2
 84 0 60 21 60 50 c 0
 60 59 63 67 67 75 c 2
 197 300 l 1
 100 300 l 2
 72 300 50 322 50 350 c 0
 50 378 72 400 100 400 c 2
 255 400 l 1
 457 750 l 2
 466 765 482 775 500 775 c 0
 518 775 534 765 543 750 c 2
 745 400 l 1
 900 400 l 2
 928 400 950 378 950 350 c 0
 950 322 928 300 900 300 c 2
 803 300 l 1
 933 75 l 2
 937 67 940 59 940 50 c 0
 940 21 916 0 890 0 c 2
 110 0 l 2
EndSplineSet
MultipleSubs2: "'cc01' CART" kuleTok combCartExtTok
MultipleSubs2: "'cc02' CONT" kuleTok combLongGlyphExtTok
Colour: bf80ff
EndChar

StartChar: kulupuTok
Encoding: 127 989471 127
Width: 1000
HStem: -6 100<201.527 322.473 677.527 798.473> 294 100<201.527 322.473 677.527 798.473> 406 100<439.527 560.473> 706 100<439.527 560.473>
VStem: 62 100<133.527 254.473> 300 100<545.527 666.473> 362 100<133.527 254.473> 538 100<133.527 254.473> 600 100<545.527 666.473> 838 100<133.527 254.473>
LayerCount: 2
Fore
SplineSet
262 -6 m 0xfa40
 152 -6 62 84 62 194 c 0
 62 304 152 394 262 394 c 0
 372 394 462 304 462 194 c 0
 462 84 372 -6 262 -6 c 0xfa40
262 94 m 0
 317 94 362 139 362 194 c 0
 362 249 317 294 262 294 c 0
 207 294 162 249 162 194 c 0
 162 139 207 94 262 94 c 0
738 -6 m 0
 628 -6 538 84 538 194 c 0xf940
 538 304 628 394 738 394 c 0
 848 394 938 304 938 194 c 0
 938 84 848 -6 738 -6 c 0
738 94 m 0
 793 94 838 139 838 194 c 0
 838 249 793 294 738 294 c 0
 683 294 638 249 638 194 c 0
 638 139 683 94 738 94 c 0
500 406 m 0
 390 406 300 496 300 606 c 0
 300 716 390 806 500 806 c 0
 610 806 700 716 700 606 c 0xfcc0
 700 496 610 406 500 406 c 0
500 506 m 0
 555 506 600 551 600 606 c 0
 600 661 555 706 500 706 c 0
 445 706 400 661 400 606 c 0
 400 551 445 506 500 506 c 0
EndSplineSet
MultipleSubs2: "'cc01' CART" kulupuTok combCartExtTok
MultipleSubs2: "'cc02' CONT" kulupuTok combLongGlyphExtTok
Colour: bf80ff
EndChar

StartChar: kuteTok
Encoding: 128 989472 128
Width: 1000
HStem: -33 95<242.972 301 302 326.181> 736 100<426.512 599.244>
VStem: 183 98<478.774 534.856> 467 97<486.56 568.028> 716 100<405.497 616.303>
LayerCount: 2
Fore
SplineSet
183 520 m 0
 183 524 183 532 186 535 c 0
 186 536 186 537 186 538 c 0
 193 551 195 562 203 580 c 0
 214 607 231 643 255 680 c 0
 301 751 381 836 500 836 c 0
 711 836 816 666 816 519 c 0
 816 319 679 179 554 94 c 0
 491 51 427 19 380 -2 c 0
 356 -12 337 -20 323 -25 c 0
 314 -29 309 -32 302 -32 c 1
 301 -33 l 1
 300 -33 l 2
 295 -35 290 -35 285 -35 c 0
 260 -35 235 -17 235 13 c 0
 235 34 249 55 270 62 c 1
 271 62 l 2
 272 62 272 63 274 64 c 0
 296 71 311 77 340 90 c 0
 504 162 716 306 716 519 c 0
 716 624 643 736 500 736 c 0
 434 736 380 688 339 625 c 0
 319 595 305 565 295 542 c 0
 288 526 286 518 281 507 c 1
 281 505 l 1
 274 484 253 470 232 470 c 0
 202 470 183 496 183 520 c 0
516 576 m 0
 546 576 564 551 564 526 c 0
 564 521 564 516 562 511 c 0
 528 405 475 321 380 260 c 0
 372 255 363 252 354 252 c 0
 329 252 303 274 303 303 c 0
 303 319 311 335 326 345 c 0
 397 390 439 452 467 541 c 0
 474 562 495 576 516 576 c 0
EndSplineSet
MultipleSubs2: "'cc01' CART" kuteTok combCartExtTok
MultipleSubs2: "'cc02' CONT" kuteTok combLongGlyphExtTok
Colour: bf80ff
EndChar

StartChar: laTok
Encoding: 129 989473 129
Width: 1000
HStem: -50 96<359.014 418.121> 754 96<359.014 418.121>
VStem: 550 100<243.805 556.195>
LayerCount: 2
Fore
SplineSet
400 -50 m 0
 375 -50 350 -30 350 0 c 0
 350 20 361 38 381 46 c 0
 485 87 550 244 550 400 c 0
 550 556 485 713 381 754 c 0
 361 762 350 780 350 800 c 0
 350 830 375 850 400 850 c 0
 406 850 413 848 419 846 c 0
 564 788 650 603 650 400 c 0
 650 197 564 12 419 -46 c 0
 413 -48 406 -50 400 -50 c 0
EndSplineSet
MultipleSubs2: "'cc01' CART" laTok combCartExtTok
MultipleSubs2: "'cc02' CONT" laTok combLongGlyphExtTok
Colour: bf80ff
EndChar

StartChar: lapeTok
Encoding: 130 989474 130
Width: 1000
HStem: 200 100<689.893 810.473> 350 100<58.4375 562.179> 500 100<689.893 810.473>
VStem: 850 100<339.527 460.473>
CounterMasks: 1 e0
LayerCount: 2
Fore
SplineSet
750 500 m 0
 695 500 650 455 650 400 c 0
 650 345 695 300 750 300 c 0
 805 300 850 345 850 400 c 0
 850 455 805 500 750 500 c 0
556 350 m 1
 100 350 l 2
 72 350 50 372 50 400 c 0
 50 428 72 450 100 450 c 2
 556 450 l 1
 578 536 657 600 750 600 c 0
 860 600 950 510 950 400 c 0
 950 290 860 200 750 200 c 0
 657 200 578 264 556 350 c 1
EndSplineSet
MultipleSubs2: "'cc01' CART" lapeTok combCartExtTok
MultipleSubs2: "'cc02' CONT" lapeTok combLongGlyphExtTok
Colour: bf80ff
EndChar

StartChar: lasoTok
Encoding: 131 989475 131
Width: 1000
HStem: -41 100<356 644>
VStem: 451 100<406 488.242>
LayerCount: 2
Fore
SplineSet
356 59 m 1
 644 59 l 1
 500 294 l 1
 356 59 l 1
574 591 m 0
 619 601 660 616 680 636 c 0
 697 653 711 685 722 721 c 1
 719 720 717 720 714 719 c 0
 669 709 628 693 608 673 c 0
 592 656 577 624 566 589 c 1
 569 590 571 590 574 591 c 0
288 719 m 0
 285 720 283 720 280 721 c 1
 291 686 306 654 322 637 c 0
 342 617 383 601 428 591 c 0
 431 590 433 590 436 589 c 1
 425 625 411 657 394 674 c 0
 374 694 333 709 288 719 c 0
215 830 m 2
 220 830 l 2
 221 830 224 829 226 829 c 0
 231 829 237 828 245 827 c 0
 261 825 284 822 309 817 c 0
 356 807 423 787 465 744 c 0
 479 729 491 712 501 694 c 1
 511 712 523 729 537 743 c 0
 579 786 645 807 692 817 c 0
 717 822 740 825 756 827 c 0
 764 828 771 829 776 829 c 0
 778 829 781 830 782 830 c 2
 787 830 l 2
 815 830 836 808 836 780 c 2
 836 771 l 2
 836 770 835 768 835 766 c 0
 829 742 827 725 819 696 c 0
 807 657 787 602 751 566 c 0
 709 523 642 503 595 493 c 0
 579 490 564 487 551 485 c 1
 551 402 l 1
 776 35 l 2
 781 27 783 18 783 9 c 0
 783 -20 759 -41 734 -41 c 2
 266 -41 l 2
 241 -41 217 -20 217 9 c 0
 217 18 219 27 224 35 c 2
 451 406 l 1
 451 485 l 1
 438 487 422 489 406 493 c 0
 359 503 293 524 251 567 c 0
 216 603 195 658 183 697 c 0
 175 725 173 743 167 766 c 0
 167 768 166 770 166 771 c 2
 166 780 l 2
 166 808 187 830 215 830 c 2
EndSplineSet
MultipleSubs2: "'cc01' CART" lasoTok combCartExtTok
MultipleSubs2: "'cc02' CONT" lasoTok combLongGlyphExtTok
Colour: bf80ff
EndChar

StartChar: lawaTok
Encoding: 132 989476 132
Width: 1000
HStem: 0 100<310.77 489.23> 500 100<214 586 739 941.562> 700 100<310.168 489.731>
VStem: 50 100<282.066 497.935> 650 100<282.066 498.522>
LayerCount: 2
Fore
SplineSet
164 500 m 1
 155 469 150 436 150 400 c 0
 150 227 269 100 400 100 c 0
 531 100 650 227 650 400 c 0
 650 436 645 469 636 500 c 1
 164 500 l 1
214 600 m 1
 586 600 l 1
 539 662 471 700 400 700 c 0
 329 700 261 662 214 600 c 1
739 500 m 1
 746 468 750 434 750 400 c 0
 750 187 600 0 400 0 c 0
 200 0 50 187 50 400 c 0
 50 613 200 800 400 800 c 0
 533 800 644 718 703 600 c 1
 900 600 l 2
 928 600 950 578 950 550 c 0
 950 522 928 500 900 500 c 2
 739 500 l 1
EndSplineSet
MultipleSubs2: "'cc01' CART" lawaTok combCartExtTok
MultipleSubs2: "'cc02' CONT" lawaTok combLongGlyphExtTok
Colour: bf80ff
EndChar

StartChar: lenTok
Encoding: 133 989477 133
Width: 1000
HStem: 150 100<250 450 550 750> 700 100<250 750>
VStem: 150 100<-41.5625 150 250 700> 450 100<-41.5625 150> 750 100<-41.5625 150 250 700>
CounterMasks: 1 38
LayerCount: 2
Fore
SplineSet
750 250 m 1
 750 700 l 1
 250 700 l 1
 250 250 l 1
 750 250 l 1
200 800 m 2
 800 800 l 2
 828 800 850 778 850 750 c 2
 850 0 l 2
 850 -28 828 -50 800 -50 c 0
 772 -50 750 -28 750 0 c 2
 750 150 l 1
 550 150 l 1
 550 0 l 2
 550 -28 528 -50 500 -50 c 0
 472 -50 450 -28 450 0 c 2
 450 150 l 1
 250 150 l 1
 250 0 l 2
 250 -28 228 -50 200 -50 c 0
 172 -50 150 -28 150 0 c 2
 150 750 l 2
 150 778 172 800 200 800 c 2
EndSplineSet
MultipleSubs2: "'cc01' CART" lenTok combCartExtTok
MultipleSubs2: "'cc02' CONT" lenTok combLongGlyphExtTok
Colour: bf80ff
EndChar

StartChar: leteTok
Encoding: 134 989478 134
Width: 1000
HStem: 350 100<58.4375 413 587 941.562> 777 20G<284.5 307.5 692.5 715.5>
LayerCount: 2
Fore
SplineSet
701 797 m 0
 730 797 750 771 750 746 c 0
 750 737 748 729 743 721 c 2
 587 450 l 1
 900 450 l 2
 928 450 950 428 950 400 c 0
 950 372 928 350 900 350 c 2
 587 350 l 1
 743 79 l 2
 748 71 750 63 750 54 c 0
 750 29 730 3 701 3 c 0
 684 3 666 13 657 29 c 2
 500 300 l 1
 343 29 l 2
 334 13 316 3 299 3 c 0
 270 3 250 29 250 54 c 0
 250 63 252 71 257 79 c 2
 413 350 l 1
 100 350 l 2
 72 350 50 372 50 400 c 0
 50 428 72 450 100 450 c 2
 413 450 l 1
 257 721 l 2
 252 729 250 737 250 746 c 0
 250 771 270 797 299 797 c 0
 316 797 334 787 343 771 c 2
 500 500 l 1
 657 771 l 2
 666 787 684 797 701 797 c 0
EndSplineSet
MultipleSubs2: "'cc01' CART" leteTok combCartExtTok
MultipleSubs2: "'cc02' CONT" leteTok combLongGlyphExtTok
Colour: bf80ff
EndChar

StartChar: liTok
Encoding: 135 989479 135
Width: 1000
LayerCount: 2
Fore
SplineSet
200 800 m 0
 200 827 224 850 250 850 c 0
 261 850 273 846 282 838 c 2
 757 438 l 2
 768 428 775 415 775 400 c 0
 775 385 768 372 757 362 c 2
 282 -38 l 2
 273 -46 261 -50 250 -50 c 0
 224 -50 200 -27 200 0 c 0
 200 14 206 28 218 38 c 2
 647 400 l 1
 218 762 l 2
 206 772 200 786 200 800 c 0
EndSplineSet
MultipleSubs2: "'cc01' CART" liTok combCartExtTok
MultipleSubs2: "'cc02' CONT" liTok combLongGlyphExtTok
Colour: bf80ff
EndChar

StartChar: liliTok
Encoding: 136 989480 136
Width: 1000
HStem: 250 300
LayerCount: 2
Fore
SplineSet
650 550 m 0
 678 550 700 526 700 500 c 0
 700 490 697 479 690 470 c 2
 540 270 l 2
 531 257 516 250 500 250 c 0
 484 250 469 257 460 270 c 2
 310 470 l 2
 303 479 300 490 300 500 c 0
 300 526 322 550 350 550 c 0
 365 550 380 543 390 530 c 2
 500 383 l 1
 610 530 l 2
 620 543 635 550 650 550 c 0
EndSplineSet
MultipleSubs2: "'cc01' CART" liliTok combCartExtTok
MultipleSubs2: "'cc02' CONT" liliTok combLongGlyphExtTok
Colour: bf80ff
EndChar

StartChar: linjaTok
Encoding: 137 989481 137
Width: 1000
HStem: 200 100<239.208 381.065> 500 100<618.935 760.792>
VStem: 852 98<245.588 358.651>
LayerCount: 2
Fore
SplineSet
950 287 m 0
 950 262 931 237 900 237 c 0
 878 237 858 252 852 275 c 0
 829 366 818 459 737 491 c 0
 721 497 705 500 689 500 c 0
 630 500 572 459 548 385 c 0
 513 275 418 200 312 200 c 0
 284 200 255 206 226 217 c 0
 105 265 84 371 52 500 c 0
 51 504 50 509 50 513 c 0
 50 538 69 563 100 563 c 0
 122 563 142 548 148 525 c 0
 171 434 182 341 263 309 c 0
 279 303 295 300 311 300 c 0
 370 300 428 341 452 415 c 0
 487 525 582 600 688 600 c 0
 716 600 745 594 774 583 c 0
 895 535 916 429 948 300 c 0
 949 296 950 291 950 287 c 0
EndSplineSet
MultipleSubs2: "'cc01' CART" linjaTok combCartExtTok
MultipleSubs2: "'cc02' CONT" linjaTok combLongGlyphExtTok
Colour: bf80ff
EndChar

StartChar: lipuTok
Encoding: 138 989482 138
Width: 1000
HStem: 0 100<250 750> 700 100<250 750>
VStem: 150 100<100 700> 750 100<100 700>
LayerCount: 2
Fore
SplineSet
250 700 m 1
 250 100 l 1
 750 100 l 1
 750 700 l 1
 250 700 l 1
150 750 m 2
 150 778 172 800 200 800 c 2
 800 800 l 2
 828 800 850 778 850 750 c 2
 850 50 l 2
 850 22 828 0 800 0 c 2
 200 0 l 2
 172 0 150 22 150 50 c 2
 150 750 l 2
EndSplineSet
MultipleSubs2: "'cc01' CART" lipuTok combCartExtTok
MultipleSubs2: "'cc02' CONT" lipuTok combLongGlyphExtTok
Colour: bf80ff
EndChar

StartChar: lojeTok
Encoding: 139 989483 139
Width: 1000
HStem: -40 100<356 644> 465 100<404.759 595.241> 735 100<286 714>
LayerCount: 2
Fore
SplineSet
356 60 m 1
 644 60 l 1
 500 295 l 1
 356 60 l 1
266 -40 m 2
 241 -40 217 -19 217 10 c 0
 217 19 219 28 224 36 c 2
 457 417 l 2
 466 432 483 441 500 441 c 0
 517 441 534 432 543 417 c 2
 776 36 l 2
 781 28 783 19 783 10 c 0
 783 -19 759 -40 734 -40 c 2
 266 -40 l 2
286 735 m 1
 309 638 396 565 500 565 c 0
 604 565 691 638 714 735 c 1
 286 735 l 1
180 785 m 0
 180 813 202 835 230 835 c 2
 770 835 l 2
 798 835 820 813 820 785 c 0
 820 608 677 465 500 465 c 0
 323 465 180 608 180 785 c 0
EndSplineSet
MultipleSubs2: "'cc01' CART" lojeTok combCartExtTok
MultipleSubs2: "'cc02' CONT" lojeTok combLongGlyphExtTok
Colour: bf80ff
EndChar

StartChar: lonTok
Encoding: 140 989484 140
Width: 1000
HStem: 150 100<58.4375 941.562> 400 150<448.417 551.583>
VStem: 425 150<423.417 526.583>
LayerCount: 2
Fore
SplineSet
575 475 m 0
 575 434 541 400 500 400 c 0
 459 400 425 434 425 475 c 0
 425 516 459 550 500 550 c 0
 541 550 575 516 575 475 c 0
50 200 m 0
 50 228 72 250 100 250 c 2
 900 250 l 2
 928 250 950 228 950 200 c 0
 950 172 928 150 900 150 c 2
 100 150 l 2
 72 150 50 172 50 200 c 0
EndSplineSet
MultipleSubs2: "'cc01' CART" lonTok combCartExtTok
MultipleSubs2: "'cc02' CONT" lonTok combLongGlyphExtTok
Colour: bf80ff
EndChar

StartChar: lukaTok
Encoding: 141 989485 141
Width: 1000
HStem: 700 100<504.394 695.606>
VStem: 250 100<188 481.54> 850 100<-41.5625 481.54>
LayerCount: 2
Fore
SplineSet
50 350 m 0
 50 375 71 400 100 400 c 0
 117 400 134 391 143 375 c 2
 250 188 l 1
 250 290 l 2
 250 459 284 586 347 672 c 0
 411 760 502 800 600 800 c 0
 698 800 789 760 853 672 c 0
 916 586 950 459 950 290 c 2
 950 0 l 2
 950 -28 928 -50 900 -50 c 0
 872 -50 850 -28 850 0 c 2
 850 290 l 2
 850 447 818 550 772 613 c 0
 728 674 668 700 600 700 c 0
 532 700 472 674 428 613 c 0
 382 550 350 447 350 290 c 2
 350 0 l 2
 350 -27 329 -50 299 -50 c 0
 282 -50 266 -41 257 -25 c 2
 57 325 l 2
 52 333 50 341 50 350 c 0
EndSplineSet
MultipleSubs2: "'cc01' CART" lukaTok combCartExtTok
MultipleSubs2: "'cc02' CONT" lukaTok combLongGlyphExtTok
Colour: bf80ff
EndChar

StartChar: lukinTok
Encoding: 142 989486 142
Width: 1000
HStem: 125 100<371.21 628.79> 300 200<438.358 561.642> 575 100<371.21 628.79>
VStem: 400 200<338.358 461.642>
CounterMasks: 1 e0
LayerCount: 2
Fore
SplineSet
500 225 m 0
 631 225 770 296 831 400 c 1
 770 504 631 575 500 575 c 0
 369 575 230 504 169 400 c 1
 230 296 369 225 500 225 c 0
83 349 m 0
 74 365 70 382 70 400 c 0
 70 418 74 435 83 451 c 0
 165 590 339 675 500 675 c 0
 661 675 835 590 917 451 c 0
 926 435 930 418 930 400 c 0
 930 382 926 365 917 349 c 0
 835 210 661 125 500 125 c 0
 339 125 165 210 83 349 c 0
600 400 m 0
 600 345 555 300 500 300 c 0
 445 300 400 345 400 400 c 0
 400 455 445 500 500 500 c 0
 555 500 600 455 600 400 c 0
EndSplineSet
MultipleSubs2: "'cc01' CART" lukinTok combCartExtTok
MultipleSubs2: "'cc02' CONT" lukinTok combLongGlyphExtTok
Colour: bf80ff
EndChar

StartChar: lupaTok
Encoding: 143 989487 143
Width: 1000
HStem: 0 100<410.77 589.23>
VStem: 150 100<283.991 791.562> 750 100<283.991 791.562>
LayerCount: 2
Fore
SplineSet
500 100 m 0
 631 100 750 227 750 400 c 2
 750 750 l 2
 750 778 772 800 800 800 c 0
 828 800 850 778 850 750 c 2
 850 400 l 2
 850 187 700 0 500 0 c 0
 300 0 150 187 150 400 c 2
 150 750 l 2
 150 778 172 800 200 800 c 0
 228 800 250 778 250 750 c 2
 250 400 l 2
 250 227 369 100 500 100 c 0
EndSplineSet
MultipleSubs2: "'cc01' CART" lupaTok combCartExtTok
MultipleSubs2: "'cc02' CONT" lupaTok combLongGlyphExtTok
Colour: bf80ff
EndChar

StartChar: maTok
Encoding: 144 989488 144
Width: 1000
HStem: -50 104<376.64 450 550 623.36> 350 100<154 450 550 846> 746 104<376.64 450 550 623.36>
VStem: 50 104<276.64 350 450 523.36> 450 100<54 350 450 746> 846 104<276.64 350 450 523.36>
CounterMasks: 1 fc
LayerCount: 2
Fore
SplineSet
450 746 m 1
 297 724 176 603 154 450 c 1
 450 450 l 1
 450 746 l 1
550 450 m 1
 846 450 l 1
 824 603 703 724 550 746 c 1
 550 450 l 1
450 54 m 1
 450 350 l 1
 154 350 l 1
 176 197 297 76 450 54 c 1
550 54 m 1
 703 76 824 197 846 350 c 1
 550 350 l 1
 550 54 l 1
500 -50 m 0
 251 -50 50 151 50 400 c 0
 50 649 251 850 500 850 c 0
 749 850 950 649 950 400 c 0
 950 151 749 -50 500 -50 c 0
EndSplineSet
MultipleSubs2: "'cc01' CART" maTok combCartExtTok
MultipleSubs2: "'cc02' CONT" maTok combLongGlyphExtTok
Colour: bf80ff
EndChar

StartChar: mamaTok
Encoding: 145 989489 145
Width: 1000
HStem: -50 100<448.124 551.876> 200 100<451.468 548.532> 750 100<373.783 626.217>
VStem: 100 100<444.628 604.96> 325 100<73.1238 176.541> 575 100<73.1238 176.541> 800 100<444.628 604.96>
LayerCount: 2
Fore
SplineSet
500 200 m 0
 459 200 425 166 425 125 c 0
 425 84 459 50 500 50 c 0
 541 50 575 84 575 125 c 0
 575 166 541 200 500 200 c 0
200 525 m 0
 200 411 322 300 500 300 c 0
 678 300 800 411 800 525 c 0
 800 639 678 750 500 750 c 0
 322 750 200 639 200 525 c 0
645 222 m 1
 664 194 675 161 675 125 c 0
 675 28 597 -50 500 -50 c 0
 403 -50 325 28 325 125 c 0
 325 161 336 194 355 222 c 1
 211 268 100 381 100 525 c 0
 100 715 291 850 500 850 c 0
 709 850 900 715 900 525 c 0
 900 381 789 268 645 222 c 1
EndSplineSet
MultipleSubs2: "'cc01' CART" mamaTok combCartExtTok
MultipleSubs2: "'cc02' CONT" mamaTok combLongGlyphExtTok
Colour: bf80ff
EndChar

StartChar: maniTok
Encoding: 146 989490 146
Width: 1000
HStem: -50 100<390.166 609.834> 650 100<388.966 611.034>
VStem: 50 98<759.894 841.286> 100 100<240.166 461.242> 800 100<240.166 461.242>
LayerCount: 2
Fore
SplineSet
800 350 m 0xd8
 800 516 666 650 500 650 c 0
 334 650 200 516 200 350 c 0
 200 184 334 50 500 50 c 0
 666 50 800 184 800 350 c 0xd8
50 800 m 0xe8
 50 825 69 850 100 850 c 0xd8
 122 850 142 836 148 813 c 0xe8
 158 776 172 751 191 733 c 0
 210 715 238 699 281 686 c 1
 282 686 l 1
 345 727 420 750 500 750 c 0
 580 750 655 727 718 686 c 1
 719 686 l 1
 762 699 790 715 809 733 c 0
 828 751 842 776 852 813 c 0
 858 836 878 850 900 850 c 0
 931 850 950 825 950 800 c 0
 950 796 949 791 948 787 c 0
 935 737 914 695 879 661 c 0
 857 640 832 624 803 611 c 1
 863 541 900 450 900 350 c 0
 900 129 721 -50 500 -50 c 0
 279 -50 100 129 100 350 c 0xd8
 100 450 137 541 197 611 c 1
 168 624 143 640 121 661 c 0
 86 695 65 737 52 787 c 0
 51 791 50 796 50 800 c 0xe8
EndSplineSet
MultipleSubs2: "'cc01' CART" maniTok combCartExtTok
MultipleSubs2: "'cc02' CONT" maniTok combLongGlyphExtTok
Colour: bf80ff
EndChar

StartChar: meliTok
Encoding: 147 989491 147
Width: 1000
HStem: 100 100<409.912 590.088> 600 100<409.912 590.088> 750 100<383.579 616.421>
VStem: 50 100<-41.5625 512.619> 200 100<309.912 490.088> 700 100<309.912 490.088> 850 100<-41.5625 512.619>
LayerCount: 2
Fore
SplineSet
200 400 m 0
 200 566 334 700 500 700 c 0
 666 700 800 566 800 400 c 0
 800 234 666 100 500 100 c 0
 334 100 200 234 200 400 c 0
500 600 m 0
 390 600 300 510 300 400 c 0
 300 290 390 200 500 200 c 0
 610 200 700 290 700 400 c 0
 700 510 610 600 500 600 c 0
500 750 m 0
 307 750 150 593 150 400 c 2
 150 0 l 2
 150 -28 128 -50 100 -50 c 0
 72 -50 50 -28 50 0 c 2
 50 400 l 2
 50 649 251 850 500 850 c 0
 749 850 950 649 950 400 c 2
 950 0 l 2
 950 -28 928 -50 900 -50 c 0
 872 -50 850 -28 850 0 c 2
 850 400 l 2
 850 593 693 750 500 750 c 0
EndSplineSet
MultipleSubs2: "'cc01' CART" meliTok combCartExtTok
MultipleSubs2: "'cc02' CONT" meliTok combLongGlyphExtTok
Colour: bf80ff
EndChar

StartChar: miTok
Encoding: 148 989492 148
Width: 1000
HStem: 0 21G<439.5 465> 400 100<438.571 560.473> 700 100<439.527 560.473>
VStem: 300 100<465.114 660.473> 402 95<8.40217 65 66 114.118> 600 100<539.527 660.473>
LayerCount: 2
Fore
SplineSet
600 600 m 0
 600 655 555 700 500 700 c 0
 445 700 400 655 400 600 c 0
 400 545 445 500 500 500 c 0
 555 500 600 545 600 600 c 0
500 50 m 0
 500 26 480 0 450 0 c 0
 429 0 409 15 402 36 c 1
 402 37 l 2
 402 38 401 39 401 40 c 0
 395 57 393 69 386 93 c 0
 376 128 364 177 351 233 c 0
 326 344 300 487 300 600 c 0
 300 710 390 800 500 800 c 0
 610 800 700 710 700 600 c 0
 700 490 610 400 500 400 c 0
 470 400 442 406 417 418 c 1
 433 321 462 200 483 119 c 0
 488 102 491 88 494 79 c 0
 495 74 496 70 497 68 c 2
 497 66 l 1
 498 65 l 1
 498 64 l 2
 499 59 500 55 500 50 c 0
EndSplineSet
MultipleSubs2: "'cc01' CART" miTok combCartExtTok
MultipleSubs2: "'cc02' CONT" miTok combLongGlyphExtTok
Colour: bf80ff
EndChar

StartChar: mijeTok
Encoding: 149 989493 149
Width: 1000
HStem: -25 250<98.4375 181.562 818.438 901.562> 125 100<190 255 402.719 597.281 745 810> 725 100<403.504 596.496>
VStem: 90 100<-16.5625 125> 150 100<375.793 571.496> 750 100<375.793 571.496> 810 100<-16.5625 125>
LayerCount: 2
Fore
SplineSet
250 475 m 0x6c
 250 337 362 225 500 225 c 0
 638 225 750 337 750 475 c 0
 750 613 638 725 500 725 c 0
 362 725 250 613 250 475 c 0x6c
745 225 m 1
 860 225 l 2
 888 225 910 203 910 175 c 2
 910 25 l 2
 910 -3 888 -25 860 -25 c 0xa2
 832 -25 810 -3 810 25 c 2
 810 125 l 1
 190 125 l 1x72
 190 25 l 2
 190 -3 168 -25 140 -25 c 0
 112 -25 90 -3 90 25 c 2
 90 175 l 2
 90 203 112 225 140 225 c 2xb2
 255 225 l 1
 190 289 150 377 150 475 c 0
 150 668 307 825 500 825 c 0
 693 825 850 668 850 475 c 0
 850 377 810 289 745 225 c 1
EndSplineSet
MultipleSubs2: "'cc01' CART" mijeTok combCartExtTok
MultipleSubs2: "'cc02' CONT" mijeTok combLongGlyphExtTok
Colour: bf80ff
EndChar

StartChar: mokuTok
Encoding: 150 989494 150
Width: 1000
HStem: 300 100<476.837 625.835> 450 100<464.294 619.706> 750 100<346 738>
VStem: 729 100<-41.5625 185.089>
LayerCount: 2
Fore
SplineSet
346 750 m 1
 365 630 452 550 542 550 c 0
 632 550 719 630 738 750 c 1
 346 750 l 1
242 800 m 0
 242 828 264 850 292 850 c 2
 792 850 l 2
 820 850 842 828 842 800 c 0
 842 616 716 450 542 450 c 0
 368 450 242 616 242 800 c 0
159 170 m 0
 159 195 181 220 209 220 c 0
 225 220 240 212 250 198 c 2
 281 154 l 1
 306 288 411 400 552 400 c 0
 715 400 829 250 829 90 c 2
 829 0 l 2
 829 -28 807 -50 779 -50 c 0
 751 -50 729 -28 729 0 c 2
 729 90 l 2
 729 210 646 300 552 300 c 0
 458 300 375 210 375 90 c 2
 375 0 l 2
 375 -26 355 -50 325 -50 c 0
 308 -50 292 -42 283 -28 c 2
 168 142 l 2
 162 151 159 160 159 170 c 0
EndSplineSet
MultipleSubs2: "'cc01' CART" mokuTok combCartExtTok
MultipleSubs2: "'cc02' CONT" mokuTok combLongGlyphExtTok
Colour: bf80ff
EndChar

StartChar: moliTok
Encoding: 151 989495 151
Width: 1000
HStem: -50 100<383.579 616.421> 275 250<249 316.875 383.125 451 549 616.875 683.125 751> 750 100<383.579 616.421>
VStem: 50 100<283.579 516.421> 850 100<283.579 516.421>
CounterMasks: 1 e0
LayerCount: 2
Fore
SplineSet
850 400 m 0
 850 593 693 750 500 750 c 0
 307 750 150 593 150 400 c 0
 150 207 307 50 500 50 c 0
 693 50 850 207 850 400 c 0
950 400 m 0
 950 151 749 -50 500 -50 c 0
 251 -50 50 151 50 400 c 0
 50 649 251 850 500 850 c 0
 749 850 950 649 950 400 c 0
525 475 m 0
 525 501 549 525 575 525 c 0
 587 525 600 520 610 510 c 2
 650 471 l 1
 690 510 l 2
 700 520 713 525 725 525 c 0
 751 525 775 501 775 475 c 0
 775 463 770 450 760 440 c 2
 721 400 l 1
 760 360 l 2
 770 350 775 337 775 325 c 0
 775 299 751 275 725 275 c 0
 713 275 700 280 690 290 c 2
 650 329 l 1
 610 290 l 2
 600 280 587 275 575 275 c 0
 549 275 525 299 525 325 c 0
 525 337 530 350 540 360 c 2
 579 400 l 1
 540 440 l 2
 530 450 525 463 525 475 c 0
225 475 m 0
 225 501 249 525 275 525 c 0
 287 525 300 520 310 510 c 2
 350 471 l 1
 390 510 l 2
 400 520 413 525 425 525 c 0
 451 525 475 501 475 475 c 0
 475 463 470 450 460 440 c 2
 421 400 l 1
 460 360 l 2
 470 350 475 337 475 325 c 0
 475 299 451 275 425 275 c 0
 413 275 400 280 390 290 c 2
 350 329 l 1
 310 290 l 2
 300 280 287 275 275 275 c 0
 249 275 225 299 225 325 c 0
 225 337 230 350 240 360 c 2
 279 400 l 1
 240 440 l 2
 230 450 225 463 225 475 c 0
EndSplineSet
MultipleSubs2: "'cc01' CART" moliTok combCartExtTok
MultipleSubs2: "'cc02' CONT" moliTok combLongGlyphExtTok
Colour: bf80ff
EndChar

StartChar: monsiTok
Encoding: 152 989496 152
Width: 1000
HStem: 0 100<500 791.562> 325 150<223.417 326.583> 700 100<500 791.562>
VStem: 200 150<348.417 451.583> 400 100<100 700>
CounterMasks: 1 e0
LayerCount: 2
Fore
SplineSet
275 475 m 0
 316 475 350 441 350 400 c 0
 350 359 316 325 275 325 c 0
 234 325 200 359 200 400 c 0
 200 441 234 475 275 475 c 0
800 50 m 0
 800 22 778 0 750 0 c 2
 450 0 l 2
 422 0 400 22 400 50 c 2
 400 750 l 2
 400 778 422 800 450 800 c 2
 750 800 l 2
 778 800 800 778 800 750 c 0
 800 722 778 700 750 700 c 2
 500 700 l 1
 500 100 l 1
 750 100 l 2
 778 100 800 78 800 50 c 0
EndSplineSet
MultipleSubs2: "'cc01' CART" monsiTok combCartExtTok
MultipleSubs2: "'cc02' CONT" monsiTok combLongGlyphExtTok
Colour: bf80ff
EndChar

StartChar: muTok
Encoding: 153 989497 153
Width: 1000
HStem: -50 100<395.142 604.858> 125 150<448.417 551.583> 600 100<395.227 604.773> 754 100<169.124 272.376 727.624 830.876>
VStem: 46 100<628.003 730.876> 125 100<220.142 431.386> 296 100<685 730.583> 425 150<148.417 251.583> 604 100<685 730.583> 775 100<220.142 431.386> 854 100<628.003 730.876>
LayerCount: 2
Fore
SplineSet
854 679 m 0xf3a0
 854 720 820 754 779 754 c 0
 738 754 704 720 704 679 c 0
 704 638 738 604 779 604 c 0
 820 604 854 638 854 679 c 0xf3a0
775 325 m 0xf7c0
 775 477 652 600 500 600 c 0
 348 600 225 477 225 325 c 0
 225 173 348 50 500 50 c 0
 652 50 775 173 775 325 c 0xf7c0
221 604 m 0
 262 604 296 638 296 679 c 0
 296 720 262 754 221 754 c 0
 180 754 146 720 146 679 c 0xfb80
 146 638 180 604 221 604 c 0
221 854 m 0
 316 854 393 779 396 685 c 1
 429 695 464 700 500 700 c 0
 536 700 571 695 604 685 c 1
 607 779 684 854 779 854 c 0
 876 854 954 776 954 679 c 0xfba0
 954 599 900 531 826 510 c 1
 857 455 875 392 875 325 c 0
 875 118 707 -50 500 -50 c 0
 293 -50 125 118 125 325 c 0xf7c0
 125 392 143 455 174 510 c 1
 100 531 46 599 46 679 c 0
 46 776 124 854 221 854 c 0
500 125 m 0
 459 125 425 159 425 200 c 0
 425 241 459 275 500 275 c 0
 541 275 575 241 575 200 c 0
 575 159 541 125 500 125 c 0
EndSplineSet
MultipleSubs2: "'cc01' CART" muTok combCartExtTok
MultipleSubs2: "'cc02' CONT" muTok combLongGlyphExtTok
Colour: bf80ff
EndChar

StartChar: munTok
Encoding: 154 989498 154
Width: 1000
HStem: -50 100<326.574 519.11> 750 100<326.574 519.11>
VStem: 400 100<270.016 529.984> 750 100<278.186 521.814>
LayerCount: 2
Fore
SplineSet
174 785 m 0
 241 826 320 850 404 850 c 0
 651 850 850 648 850 400 c 0
 850 152 651 -50 404 -50 c 0
 320 -50 241 -26 174 15 c 0
 159 24 150 41 150 58 c 2
 150 63 l 2
 152 82 165 99 184 105 c 0
 304 143 400 219 400 400 c 0
 400 581 304 657 184 695 c 0
 165 701 152 718 150 737 c 2
 150 742 l 2
 150 759 159 776 174 785 c 0
500 400 m 0
 500 226 427 123 325 59 c 1
 351 53 377 50 404 50 c 0
 594 50 750 206 750 400 c 0
 750 594 594 750 404 750 c 0
 377 750 351 747 325 741 c 1
 427 677 500 574 500 400 c 0
EndSplineSet
MultipleSubs2: "'cc01' CART" munTok combCartExtTok
MultipleSubs2: "'cc02' CONT" munTok combLongGlyphExtTok
Colour: bf80ff
EndChar

StartChar: musiTok
Encoding: 155 989499 155
Width: 1000
HStem: -50 100<418.626 582.667> 725 100<198.124 301.876 698.124 801.876>
VStem: 75 100<599.321 701.876> 200 100<184.891 489.347> 325 100<599.321 701.876> 575 100<599.321 701.876> 700 100<186.506 489.347> 825 100<599.321 701.876>
LayerCount: 2
Fore
SplineSet
750 575 m 0
 791 575 825 609 825 650 c 0
 825 691 791 725 750 725 c 0
 709 725 675 691 675 650 c 0
 675 609 709 575 750 575 c 0
250 575 m 0
 291 575 325 609 325 650 c 0
 325 691 291 725 250 725 c 0
 209 725 175 691 175 650 c 0
 175 609 209 575 250 575 c 0
300 482 m 1
 300 295 l 2
 300 187 354 103 426 67 c 0
 450 55 475 50 500 50 c 0
 562 50 608 81 639 119 c 0
 674 161 700 222 700 295 c 2
 700 482 l 1
 628 504 575 571 575 650 c 0
 575 747 653 825 750 825 c 0
 847 825 925 747 925 650 c 0
 925 571 872 504 800 482 c 1
 800 295 l 2
 800 196 764 112 715 54 c 0
 668 -1 594 -50 500 -50 c 0
 406 -50 332 -1 285 54 c 0
 236 112 200 196 200 295 c 2
 200 482 l 1
 128 504 75 571 75 650 c 0
 75 747 153 825 250 825 c 0
 347 825 425 747 425 650 c 0
 425 571 372 504 300 482 c 1
EndSplineSet
MultipleSubs2: "'cc01' CART" musiTok combCartExtTok
MultipleSubs2: "'cc02' CONT" musiTok combLongGlyphExtTok
Colour: bf80ff
EndChar

StartChar: muteTok
Encoding: 156 989500 156
Width: 1000
VStem: 200 100<-41.5625 841.562> 450 100<-31.5625 831.562> 700 100<-41.5625 841.562>
CounterMasks: 1 e0
LayerCount: 2
Fore
SplineSet
750 -50 m 0
 722 -50 700 -28 700 0 c 2
 700 800 l 2
 700 828 722 850 750 850 c 0
 778 850 800 828 800 800 c 2
 800 0 l 2
 800 -28 778 -50 750 -50 c 0
250 -50 m 0
 222 -50 200 -28 200 0 c 2
 200 800 l 2
 200 828 222 850 250 850 c 0
 278 850 300 828 300 800 c 2
 300 0 l 2
 300 -28 278 -50 250 -50 c 0
500 -40 m 0
 472 -40 450 -18 450 10 c 2
 450 790 l 2
 450 818 472 840 500 840 c 0
 528 840 550 818 550 790 c 2
 550 10 l 2
 550 -18 528 -40 500 -40 c 0
EndSplineSet
MultipleSubs2: "'cc01' CART" muteTok combCartExtTok
MultipleSubs2: "'cc02' CONT" muteTok combLongGlyphExtTok
Colour: bf80ff
EndChar

StartChar: nanpaTok
Encoding: 157 989501 157
Width: 1000
HStem: 200 100<60.4375 300 400 600 700 943.562> 500 100<60.4375 300 400 600 700 943.562>
VStem: 300 100<-41.5625 200 300 500 600 841.562> 600 100<-41.5625 200 300 500 600 841.562>
LayerCount: 2
Fore
SplineSet
400 500 m 1
 400 300 l 1
 600 300 l 1
 600 500 l 1
 400 500 l 1
300 0 m 2
 300 200 l 1
 102 200 l 2
 74 200 52 222 52 250 c 0
 52 278 74 300 102 300 c 2
 300 300 l 1
 300 500 l 1
 102 500 l 2
 74 500 52 522 52 550 c 0
 52 578 74 600 102 600 c 2
 300 600 l 1
 300 800 l 2
 300 828 322 850 350 850 c 0
 378 850 400 828 400 800 c 2
 400 600 l 1
 600 600 l 1
 600 800 l 2
 600 828 622 850 650 850 c 0
 678 850 700 828 700 800 c 2
 700 600 l 1
 902 600 l 2
 930 600 952 578 952 550 c 0
 952 522 930 500 902 500 c 2
 700 500 l 1
 700 300 l 1
 902 300 l 2
 930 300 952 278 952 250 c 0
 952 222 930 200 902 200 c 2
 700 200 l 1
 700 0 l 2
 700 -28 678 -50 650 -50 c 0
 622 -50 600 -28 600 0 c 2
 600 200 l 1
 400 200 l 1
 400 0 l 2
 400 -28 378 -50 350 -50 c 0
 322 -50 300 -28 300 0 c 2
EndSplineSet
MultipleSubs2: "'cc01' CART" nanpaTok combCartExtTok
MultipleSubs2: "'cc02' CONT" nanpaTok combLongGlyphExtTok
Colour: bf80ff
EndChar

StartChar: nasaTok
Encoding: 158 989502 158
Width: 1000
HStem: -50 100<377.897 591.063> 169 100<427.838 525.263> 529 100<460.542 625.75> 750 100<414.309 665.798>
VStem: 75 100<262.284 509.535> 288 101<309.75 456.833> 533 100<298.277 347.661> 743 100<203.387 405.275>
LayerCount: 2
Fore
SplineSet
925 632 m 0
 925 606 904 582 875 582 c 0
 859 582 844 589 834 603 c 0
 802 648 780 669 733 697 c 0
 682 728 614 750 535 750 c 0
 488 750 451 742 414 728 c 0
 337 699 276 650 234 586 c 0
 207 547 189 499 180 445 c 0
 177 425 175 411 175 395 c 0
 175 388 176 380 176 371 c 0
 180 258 231 177 294 123 c 0
 342 82 404 50 491 50 c 0
 572 50 632 87 672 130 c 0
 709 170 743 226 743 300 c 0
 743 387 706 448 657 487 c 0
 628 510 593 529 545 529 c 0
 476 529 429 494 405 449 c 0
 395 431 389 405 389 379 c 0
 389 343 403 315 422 296 c 0
 434 284 457 269 481 269 c 0
 488 269 495 270 502 273 c 0
 506 274 508 275 509 275 c 0
 514 275 520 284 522 286 c 0
 524 288 526 289 526 290 c 0
 526 291 531 298 531 298 c 2
 533 304 533 304 533 306 c 2
 533 310 l 2
 533 312 533 314 533 316 c 0
 533 337 523 345 505 351 c 0
 484 358 469 378 469 399 c 0
 469 429 495 449 520 449 c 0
 525 449 529 448 534 447 c 0
 589 431 633 383 633 314 c 2
 633 304 l 1
 628 252 602 218 569 195 c 0
 546 180 518 169 484 169 c 0
 424 169 381 196 351 226 c 0
 320 257 300 297 291 348 c 0
 289 360 288 369 288 379 c 0
 288 385 289 390 289 397 c 0
 295 503 359 570 434 606 c 0
 466 621 504 629 547 629 c 0
 648 629 719 575 766 520 c 0
 810 465 843 397 843 300 c 0
 843 194 798 116 745 61 c 0
 694 7 628 -30 540 -45 c 0
 519 -48 504 -50 486 -50 c 0
 410 -50 351 -29 300 -2 c 0
 197 55 122 148 89 274 c 0
 78 316 75 350 75 397 c 0
 75 497 111 578 151 641 c 0
 205 723 282 787 380 822 c 0
 429 839 478 850 539 850 c 0
 597 850 637 842 686 827 c 0
 724 815 748 805 785 783 c 0
 844 748 876 717 916 661 c 0
 922 652 925 642 925 632 c 0
EndSplineSet
MultipleSubs2: "'cc01' CART" nasaTok combCartExtTok
MultipleSubs2: "'cc02' CONT" nasaTok combLongGlyphExtTok
Colour: bf80ff
EndChar

StartChar: nasinTok
Encoding: 159 989503 159
Width: 1000
VStem: 450 100<-41.5625 429 571 841.562>
LayerCount: 2
Fore
SplineSet
250 250 m 0
 224 250 200 274 200 300 c 0
 200 312 205 325 215 335 c 2
 450 571 l 1
 450 800 l 2
 450 828 472 850 500 850 c 0
 528 850 550 828 550 800 c 2
 550 571 l 1
 785 335 l 2
 795 325 800 312 800 300 c 0
 800 274 776 250 750 250 c 0
 738 250 725 255 715 265 c 2
 550 429 l 1
 550 0 l 2
 550 -28 528 -50 500 -50 c 0
 472 -50 450 -28 450 0 c 2
 450 429 l 1
 285 265 l 2
 275 255 262 250 250 250 c 0
EndSplineSet
MultipleSubs2: "'cc01' CART" nasinTok combCartExtTok
MultipleSubs2: "'cc02' CONT" nasinTok combLongGlyphExtTok
Colour: bf80ff
EndChar

StartChar: nenaTok
Encoding: 160 989504 160
Width: 1000
HStem: 0 21G<186 214 786 814> 700 100<410.77 589.23>
VStem: 150 100<8.4375 516.009> 750 100<8.4375 516.009>
LayerCount: 2
Fore
SplineSet
500 700 m 0
 369 700 250 573 250 400 c 2
 250 50 l 2
 250 22 228 0 200 0 c 0
 172 0 150 22 150 50 c 2
 150 400 l 2
 150 613 300 800 500 800 c 0
 700 800 850 613 850 400 c 2
 850 50 l 2
 850 22 828 0 800 0 c 0
 772 0 750 22 750 50 c 2
 750 400 l 2
 750 573 631 700 500 700 c 0
EndSplineSet
MultipleSubs2: "'cc01' CART" nenaTok combCartExtTok
MultipleSubs2: "'cc02' CONT" nenaTok combLongGlyphExtTok
Colour: bf80ff
EndChar

StartChar: niTok
Encoding: 161 989505 161
Width: 1000
VStem: 450 100<121 841.562>
LayerCount: 2
Fore
SplineSet
200 250 m 0
 200 276 224 300 250 300 c 0
 262 300 275 295 285 285 c 2
 450 121 l 1
 450 800 l 2
 450 828 472 850 500 850 c 0
 528 850 550 828 550 800 c 2
 550 121 l 1
 715 285 l 2
 725 295 738 300 750 300 c 0
 776 300 800 276 800 250 c 0
 800 238 795 225 785 215 c 2
 535 -35 l 2
 526 -44 516 -50 500 -50 c 0
 484 -50 474 -44 465 -35 c 2
 215 215 l 2
 205 225 200 238 200 250 c 0
EndSplineSet
MultipleSubs2: "'cc01' CART" niTok combCartExtTok
MultipleSubs2: "'cc02' CONT" niTok combLongGlyphExtTok
Colour: bf80ff
EndChar

StartChar: nimiTok
Encoding: 162 989506 162
Width: 1000
HStem: 150 100<198.081 801.919> 550 100<198.081 801.919>
VStem: 50 100<298.081 501.919> 850 100<298.081 501.919>
LayerCount: 2
Fore
SplineSet
150 361 m 2
 150 300 200 250 261 250 c 2
 739 250 l 2
 800 250 850 300 850 361 c 2
 850 439 l 2
 850 500 800 550 739 550 c 2
 261 550 l 2
 200 550 150 500 150 439 c 2
 150 361 l 2
261 150 m 2
 144 150 50 244 50 361 c 2
 50 439 l 2
 50 556 144 650 261 650 c 2
 739 650 l 2
 856 650 950 556 950 439 c 2
 950 361 l 2
 950 244 856 150 739 150 c 2
 261 150 l 2
EndSplineSet
MultipleSubs2: "'cc01' CART" nimiTok combCartExtTok
MultipleSubs2: "'cc02' CONT" nimiTok combLongGlyphExtTok
Colour: bf80ff
EndChar

StartChar: nokaTok
Encoding: 163 989507 163
Width: 1000
HStem: -40 100<205.683 725.449> 269 99<511.943 740.024>
VStem: 105 100<66 831.562> 410 100<364 827.249> 795 100<114.841 228.168>
LayerCount: 2
Fore
SplineSet
415 786 m 2
 415 791 l 2
 416 818 437 840 464 840 c 2
 466 840 l 2
 493 839 515 818 515 791 c 0
 515 790 515 790 515 789 c 2
 515 783 l 2
 515 779 514 775 514 768 c 0
 514 698 511 632 510 549 c 0
 510 519 509 489 509 461 c 0
 509 433 510 407 510 385 c 2
 510 364 l 1
 546 367 575 368 602 368 c 0
 640 368 672 365 710 359 c 0
 800 343 895 293 895 185 c 0
 895 138 885 78 833 31 c 0
 783 -15 703 -40 585 -40 c 0
 391 -40 282 -38 222 -35 c 0
 183 -34 173 -30 150 -30 c 0
 149 -30 148 -29 147 -29 c 2
 143 -29 l 1
 120 -24 105 -3 105 20 c 2
 105 790 l 2
 105 818 127 840 155 840 c 0
 183 840 205 818 205 790 c 2
 205 66 l 1
 211 66 219 65 227 65 c 0
 285 63 391 60 585 60 c 0
 691 60 741 83 765 105 c 0
 787 126 795 152 795 185 c 0
 795 206 786 220 770 232 c 0
 735 257 667 269 606 269 c 0
 572 269 531 266 470 260 c 1
 465 260 l 2
 439 260 423 277 418 292 c 0
 416 298 414 303 414 306 c 0
 413 312 411 320 411 327 c 0
 410 341 410 361 410 384 c 0
 410 407 409 434 409 462 c 0
 409 490 410 520 410 550 c 0
 411 633 414 701 414 771 c 0
 414 778 415 782 415 786 c 2
EndSplineSet
MultipleSubs2: "'cc01' CART" nokaTok combCartExtTok
MultipleSubs2: "'cc02' CONT" nokaTok combLongGlyphExtTok
Colour: bf80ff
EndChar

StartChar: oTok
Encoding: 164 989508 164
Width: 1000
HStem: -50 100<439.527 560.473> 250 100<439.527 560.473>
VStem: 300 100<89.5269 210.473> 450 100<408.438 841.562> 600 100<89.5269 210.473>
CounterMasks: 1 38
LayerCount: 2
Fore
SplineSet
500 850 m 0
 528 850 550 828 550 800 c 2
 550 450 l 2
 550 422 528 400 500 400 c 0
 472 400 450 422 450 450 c 2
 450 800 l 2
 450 828 472 850 500 850 c 0
500 -50 m 0
 390 -50 300 40 300 150 c 0
 300 260 390 350 500 350 c 0
 610 350 700 260 700 150 c 0
 700 40 610 -50 500 -50 c 0
500 50 m 0
 555 50 600 95 600 150 c 0
 600 205 555 250 500 250 c 0
 445 250 400 205 400 150 c 0
 400 95 445 50 500 50 c 0
EndSplineSet
MultipleSubs2: "'cc01' CART" oTok combCartExtTok
MultipleSubs2: "'cc02' CONT" oTok combLongGlyphExtTok
Colour: bf80ff
EndChar

StartChar: olinTok
Encoding: 165 989509 165
Width: 1000
HStem: 300 100<358.659 436.272 563.728 641.341> 750 100<358.659 436.272 563.728 641.341>
VStem: 250 100<198.741 291.341 648.741 741.341> 650 100<198.741 291.341 648.741 741.341>
LayerCount: 2
Fore
SplineSet
400 300 m 0
 372 300 350 278 350 250 c 0
 350 240 356 222 373 196 c 0
 403 152 461 97 500 64 c 1
 539 97 598 152 627 196 c 0
 644 222 650 240 650 250 c 0
 650 278 628 300 600 300 c 0
 576 300 558 273 547 256 c 0
 545 253 543 250 541 247 c 0
 532 233 517 225 500 225 c 0
 483 225 468 233 459 247 c 0
 457 250 455 253 453 256 c 0
 442 273 424 300 400 300 c 0
530 -40 m 2
 521 -46 510 -50 500 -50 c 0
 490 -50 479 -46 470 -40 c 2
 469 -39 l 2
 466 -37 465 -36 461 -33 c 0
 405 14 334 74 290 141 c 0
 270 172 250 210 250 250 c 0
 250 333 317 400 400 400 c 0
 446 400 478 379 500 357 c 1
 522 379 554 400 600 400 c 0
 683 400 750 333 750 250 c 0
 750 210 730 172 710 141 c 0
 666 73 596 15 539 -33 c 0
 535 -36 534 -37 531 -39 c 2
 530 -40 l 2
400 750 m 0
 372 750 350 728 350 700 c 0
 350 690 356 672 373 646 c 0
 403 602 461 547 500 514 c 1
 539 547 598 602 627 646 c 0
 644 672 650 690 650 700 c 0
 650 728 628 750 600 750 c 0
 576 750 558 723 547 706 c 0
 545 703 543 700 541 697 c 0
 532 683 517 675 500 675 c 0
 483 675 468 683 459 697 c 0
 457 700 455 703 453 706 c 0
 442 723 424 750 400 750 c 0
530 410 m 2
 521 404 510 400 500 400 c 0
 490 400 479 404 470 410 c 2
 469 411 l 2
 466 413 465 414 461 417 c 0
 405 464 334 524 290 591 c 0
 270 622 250 660 250 700 c 0
 250 783 317 850 400 850 c 0
 446 850 478 829 500 807 c 1
 522 829 554 850 600 850 c 0
 683 850 750 783 750 700 c 0
 750 660 730 622 710 591 c 0
 666 523 596 465 539 417 c 0
 535 414 534 413 531 411 c 2
 530 410 l 2
EndSplineSet
MultipleSubs2: "'cc01' CART" olinTok combCartExtTok
MultipleSubs2: "'cc02' CONT" olinTok combLongGlyphExtTok
Colour: bf80ff
EndChar

StartChar: onaTok
Encoding: 166 989510 166
Width: 1000
HStem: 200 100<662.358 783.304> 500 100<663.527 784.473>
VStem: 524 100<338.176 460.473> 824 100<339.527 460.473>
LayerCount: 2
Fore
SplineSet
724 500 m 0
 669 500 624 455 624 400 c 0
 624 345 669 300 724 300 c 0
 779 300 824 345 824 400 c 0
 824 455 779 500 724 500 c 0
74 535 m 0
 74 561 97 584 125 584 c 0
 139 584 154 578 163 566 c 0
 225 489 321 422 425 374 c 0
 462 357 499 342 536 331 c 1
 528 352 524 376 524 400 c 0
 524 510 614 600 724 600 c 0
 834 600 924 510 924 400 c 0
 924 290 834 200 724 200 c 2
 721 200 l 2
 619 200 497 231 383 283 c 0
 269 335 160 410 85 503 c 0
 78 512 74 524 74 535 c 0
EndSplineSet
MultipleSubs2: "'cc01' CART" onaTok combCartExtTok
MultipleSubs2: "'cc02' CONT" onaTok combLongGlyphExtTok
Colour: bf80ff
EndChar

StartChar: openTok
Encoding: 167 989511 167
Width: 1000
HStem: 0 100<250 750> 250 100<250 750>
VStem: 150 100<100 250 350 791.562> 750 100<100 250 350 791.562>
LayerCount: 2
Fore
SplineSet
250 250 m 1
 250 100 l 1
 750 100 l 1
 750 250 l 1
 250 250 l 1
250 750 m 2
 250 350 l 1
 750 350 l 1
 750 750 l 2
 750 778 772 800 800 800 c 0
 828 800 850 778 850 750 c 2
 850 50 l 2
 850 22 828 0 800 0 c 2
 200 0 l 2
 172 0 150 22 150 50 c 2
 150 750 l 2
 150 778 172 800 200 800 c 0
 228 800 250 778 250 750 c 2
EndSplineSet
MultipleSubs2: "'cc01' CART" openTok combCartExtTok
MultipleSubs2: "'cc02' CONT" openTok combLongGlyphExtTok
Colour: bf80ff
EndChar

StartChar: pakalaTok
Encoding: 168 989512 168
Width: 1000
HStem: 0 100<250 375 495 750> 350 100<462 538> 700 100<250 505 625 750>
VStem: 150 100<100 700> 750 100<100 700>
CounterMasks: 1 e0
LayerCount: 2
Fore
SplineSet
630 450 m 2
 655 450 680 430 680 400 c 0
 680 390 677 381 672 373 c 2
 495 100 l 1
 750 100 l 1
 750 700 l 1
 625 700 l 1
 462 450 l 1
 630 450 l 2
370 350 m 2
 345 350 320 370 320 400 c 0
 320 410 323 419 328 427 c 2
 505 700 l 1
 250 700 l 1
 250 100 l 1
 375 100 l 1
 538 350 l 1
 370 350 l 2
200 800 m 2
 800 800 l 2
 828 800 850 778 850 750 c 2
 850 50 l 2
 850 22 828 0 800 0 c 2
 200 0 l 2
 172 0 150 22 150 50 c 2
 150 750 l 2
 150 778 172 800 200 800 c 2
EndSplineSet
MultipleSubs2: "'cc01' CART" pakalaTok combCartExtTok
MultipleSubs2: "'cc02' CONT" pakalaTok combLongGlyphExtTok
Colour: bf80ff
EndChar

StartChar: paliTok
Encoding: 169 989513 169
Width: 1000
HStem: 300 150<432.9 579.228> 750 100<425.917 578.083>
VStem: 252 100<523.013 676.083> 652 100<523.781 676.083> 685 100<-41.5625 187.373>
LayerCount: 2
Fore
SplineSet
502 450 m 0xf0
 585 450 652 517 652 600 c 0
 652 683 585 750 502 750 c 0
 419 750 352 683 352 600 c 0
 352 517 419 450 502 450 c 0xf0
115 170 m 0
 115 195 137 220 165 220 c 0
 181 220 196 212 206 198 c 2
 237 154 l 1
 255 249 312 333 395 374 c 1
 310 414 252 500 252 600 c 0
 252 738 364 850 502 850 c 0
 640 850 752 738 752 600 c 0xf0
 752 502 697 418 615 377 c 1
 719 329 785 212 785 90 c 2
 785 0 l 2
 785 -28 763 -50 735 -50 c 0
 707 -50 685 -28 685 0 c 2
 685 90 l 2xe8
 685 210 602 300 508 300 c 0
 414 300 331 210 331 90 c 2
 331 0 l 2
 331 -26 311 -50 281 -50 c 0
 264 -50 248 -42 239 -28 c 2
 124 142 l 2
 118 151 115 160 115 170 c 0
EndSplineSet
MultipleSubs2: "'cc01' CART" paliTok combCartExtTok
MultipleSubs2: "'cc02' CONT" paliTok combLongGlyphExtTok
Colour: bf80ff
EndChar

StartChar: palisaTok
Encoding: 170 989514 170
Width: 1000
HStem: -50 100<457.601 544.399> 750 100<457.601 544.399>
VStem: 302 100<132.484 667.516> 600 100<132.484 667.516>
LayerCount: 2
Fore
SplineSet
501 750 m 0
 422 750 402 598 402 511 c 0
 402 437 402 363 402 289 c 0
 402 202 422 50 501 50 c 0
 580 50 600 202 600 289 c 2
 600 511 l 2
 600 598 580 750 501 750 c 0
335 719 m 0
 360 784 411 850 501 850 c 0
 591 850 642 784 667 719 c 0
 692 653 700 574 700 511 c 2
 700 289 l 2
 700 226 692 147 667 81 c 0
 642 16 591 -50 501 -50 c 0
 411 -50 360 16 335 81 c 0
 310 147 302 226 302 289 c 2
 302 511 l 2
 302 574 310 653 335 719 c 0
EndSplineSet
MultipleSubs2: "'cc01' CART" palisaTok combCartExtTok
MultipleSubs2: "'cc02' CONT" palisaTok combLongGlyphExtTok
Colour: bf80ff
EndChar

StartChar: panTok
Encoding: 171 989515 171
Width: 1000
LayerCount: 2
Fore
SplineSet
200 250 m 0
 200 276 224 300 250 300 c 0
 262 300 275 295 285 285 c 2
 500 71 l 1
 715 285 l 2
 725 295 738 300 750 300 c 0
 776 300 800 276 800 250 c 0
 800 238 795 225 785 215 c 2
 535 -35 l 2
 525 -45 512 -50 500 -50 c 0
 488 -50 475 -45 465 -35 c 2
 215 215 l 2
 205 225 200 238 200 250 c 0
200 525 m 0
 200 551 224 575 250 575 c 0
 262 575 275 570 285 560 c 2
 500 346 l 1
 715 560 l 2
 725 570 738 575 750 575 c 0
 776 575 800 551 800 525 c 0
 800 513 795 500 785 490 c 2
 535 240 l 2
 525 230 512 225 500 225 c 0
 488 225 475 230 465 240 c 2
 215 490 l 2
 205 500 200 513 200 525 c 0
200 800 m 0
 200 826 224 850 250 850 c 0
 262 850 275 845 285 835 c 2
 500 621 l 1
 715 835 l 2
 725 845 738 850 750 850 c 0
 776 850 800 826 800 800 c 0
 800 788 795 775 785 765 c 2
 535 515 l 2
 525 505 512 500 500 500 c 0
 488 500 475 505 465 515 c 2
 215 765 l 2
 205 775 200 788 200 800 c 0
EndSplineSet
MultipleSubs2: "'cc01' CART" panTok combCartExtTok
MultipleSubs2: "'cc02' CONT" panTok combLongGlyphExtTok
Colour: bf80ff
EndChar

StartChar: panaTok
Encoding: 172 989516 172
Width: 1000
HStem: 420 100<434.22 566.129> 630 200<458.438 541.562>
VStem: 450 100<638.438 821.562> 680 100<-21.5625 269.099>
LayerCount: 2
Fore
SplineSet
741 764 m 0
 771 764 791 738 791 712 c 0
 791 703 789 695 785 687 c 2
 737 601 l 2
 728 585 711 576 694 576 c 0
 664 576 645 601 645 627 c 0
 645 636 647 644 651 652 c 2
 699 739 l 2
 708 755 724 764 741 764 c 0
210 712 m 0
 210 738 230 764 260 764 c 0
 277 764 293 755 302 739 c 2
 350 652 l 2
 354 644 356 636 356 627 c 0
 356 601 337 576 307 576 c 0
 290 576 273 585 264 601 c 2
 216 687 l 2
 212 695 210 703 210 712 c 0
500 830 m 0
 528 830 550 808 550 780 c 2
 550 680 l 2
 550 652 528 630 500 630 c 0
 472 630 450 652 450 680 c 2
 450 780 l 2
 450 808 472 830 500 830 c 0
100 214 m 0
 100 239 121 265 150 265 c 0
 166 265 182 256 192 241 c 2
 224 190 l 1
 232 268 257 341 296 398 c 0
 343 468 413 520 500 520 c 0
 587 520 658 468 705 398 c 0
 752 328 780 235 780 136 c 2
 780 20 l 2
 780 -8 758 -30 730 -30 c 0
 702 -30 680 -8 680 20 c 2
 680 136 l 2
 680 217 658 290 623 342 c 0
 588 394 543 420 500 420 c 0
 457 420 413 394 378 342 c 0
 343 290 321 217 321 136 c 2
 321 20 l 2
 321 -5 301 -30 272 -30 c 0
 255 -30 239 -21 229 -6 c 2
 108 188 l 2
 103 196 100 205 100 214 c 0
EndSplineSet
MultipleSubs2: "'cc01' CART" panaTok combCartExtTok
MultipleSubs2: "'cc02' CONT" panaTok combLongGlyphExtTok
Colour: bf80ff
EndChar

StartChar: piTok
Encoding: 173 989517 173
Width: 1000
HStem: 0 100<200 891.562>
VStem: 100 100<100 791.562>
LayerCount: 2
Fore
SplineSet
150 800 m 0
 178 800 200 778 200 750 c 2
 200 100 l 1
 850 100 l 2
 878 100 900 78 900 50 c 0
 900 22 878 0 850 0 c 2
 150 0 l 2
 122 0 100 22 100 50 c 2
 100 750 l 2
 100 778 122 800 150 800 c 0
EndSplineSet
MultipleSubs2: "'cc01' CART" piTok combCartExtTok
MultipleSubs2: "'cc02' CONT" piTok combLongGlyphExtTok
Colour: bf80ff
EndChar

StartChar: pilinTok
Encoding: 174 989518 174
Width: 1000
HStem: 0 21G<495.5 505> 700 100<223.917 373.614 626.166 776.083>
VStem: 50 100<471.52 626.083> 850 100<471.52 626.083>
LayerCount: 2
Fore
SplineSet
300 700 m 0
 217 700 150 633 150 550 c 0
 150 515 168 469 204 415 c 0
 239 363 286 309 335 260 c 0
 384 211 433 169 470 138 c 0
 482 128 491 120 500 113 c 1
 509 120 518 128 530 138 c 0
 567 169 616 211 665 260 c 0
 714 309 761 363 796 415 c 0
 832 469 850 515 850 550 c 0
 850 633 783 700 700 700 c 0
 660 700 625 682 596 656 c 0
 566 629 551 601 549 590 c 0
 544 567 524 550 500 550 c 0
 476 550 456 567 451 590 c 0
 449 601 434 629 404 656 c 0
 375 682 340 700 300 700 c 0
500 701 m 1
 545 751 609 800 700 800 c 0
 838 800 950 688 950 550 c 0
 950 485 918 419 879 360 c 0
 794 232 658 114 548 24 c 0
 539 18 535 15 530 10 c 0
 521 4 510 0 500 0 c 0
 491 0 476 4 469 11 c 0
 464 16 460 19 452 24 c 0
 344 113 205 233 121 360 c 0
 82 419 50 485 50 550 c 0
 50 688 162 800 300 800 c 0
 390 800 455 751 500 701 c 1
EndSplineSet
MultipleSubs2: "'cc01' CART" pilinTok combCartExtTok
MultipleSubs2: "'cc02' CONT" pilinTok combLongGlyphExtTok
Colour: bf80ff
EndChar

StartChar: pimejaTok
Encoding: 175 989519 175
Width: 1000
HStem: 0 100<197 321 437 563 679 803>
LayerCount: 2
Fore
SplineSet
562 517 m 1
 500 625 l 1
 438 517 l 1
 500 410 l 1
 562 517 l 1
679 100 m 1
 803 100 l 1
 620 417 l 1
 558 310 l 1
 679 100 l 1
437 100 m 1
 563 100 l 1
 500 210 l 1
 437 100 l 1
321 100 m 1
 442 310 l 1
 380 417 l 1
 197 100 l 1
 321 100 l 1
110 0 m 2
 84 0 60 21 60 50 c 0
 60 59 63 67 67 75 c 2
 457 750 l 2
 466 765 482 775 500 775 c 0
 518 775 534 765 543 750 c 2
 933 75 l 2
 937 67 940 59 940 50 c 0
 940 21 916 0 890 0 c 2
 110 0 l 2
EndSplineSet
MultipleSubs2: "'cc01' CART" pimejaTok combCartExtTok
MultipleSubs2: "'cc02' CONT" pimejaTok combLongGlyphExtTok
Colour: bf80ff
EndChar

StartChar: piniTok
Encoding: 176 989520 176
Width: 1000
HStem: 0 100<258.438 450 550 741.562> 700 100<258.438 450 550 741.562>
VStem: 450 100<100 700>
LayerCount: 2
Fore
SplineSet
550 700 m 1
 550 100 l 1
 700 100 l 2
 728 100 750 78 750 50 c 0
 750 22 728 0 700 0 c 2
 300 0 l 2
 272 0 250 22 250 50 c 0
 250 78 272 100 300 100 c 2
 450 100 l 1
 450 700 l 1
 300 700 l 2
 272 700 250 722 250 750 c 0
 250 778 272 800 300 800 c 2
 700 800 l 2
 728 800 750 778 750 750 c 0
 750 722 728 700 700 700 c 2
 550 700 l 1
EndSplineSet
MultipleSubs2: "'cc01' CART" piniTok combCartExtTok
MultipleSubs2: "'cc02' CONT" piniTok combLongGlyphExtTok
Colour: bf80ff
EndChar

StartChar: pipiTok
Encoding: 177 989521 177
Width: 1000
HStem: 75 100<271.438 450 550 728.562> 275 100<258.438 450 550 741.562> 475 100<271.438 450 550 728.562> 700 150<273.417 376.583 623.417 726.583>
VStem: 250 150<723.417 826.583> 450 100<-41.5625 75 175 275 375 475 575 691.562> 600 150<723.417 826.583>
CounterMasks: 1 0e
LayerCount: 2
Fore
SplineSet
750 775 m 0
 750 734 716 700 675 700 c 0
 634 700 600 734 600 775 c 0
 600 816 634 850 675 850 c 0
 716 850 750 816 750 775 c 0
263 525 m 0
 263 553 285 575 313 575 c 2
 450 575 l 1
 450 650 l 2
 450 678 472 700 500 700 c 0
 528 700 550 678 550 650 c 2
 550 575 l 1
 687 575 l 2
 715 575 737 553 737 525 c 0
 737 497 715 475 687 475 c 2
 550 475 l 1
 550 375 l 1
 700 375 l 2
 728 375 750 353 750 325 c 0
 750 297 728 275 700 275 c 2
 550 275 l 1
 550 175 l 1
 687 175 l 2
 715 175 737 153 737 125 c 0
 737 97 715 75 687 75 c 2
 550 75 l 1
 550 0 l 2
 550 -28 528 -50 500 -50 c 0
 472 -50 450 -28 450 0 c 2
 450 75 l 1
 313 75 l 2
 285 75 263 97 263 125 c 0
 263 153 285 175 313 175 c 2
 450 175 l 1
 450 275 l 1
 300 275 l 2
 272 275 250 297 250 325 c 0
 250 353 272 375 300 375 c 2
 450 375 l 1
 450 475 l 1
 313 475 l 2
 285 475 263 497 263 525 c 0
325 700 m 0
 284 700 250 734 250 775 c 0
 250 816 284 850 325 850 c 0
 366 850 400 816 400 775 c 0
 400 734 366 700 325 700 c 0
EndSplineSet
MultipleSubs2: "'cc01' CART" pipiTok combCartExtTok
MultipleSubs2: "'cc02' CONT" pipiTok combLongGlyphExtTok
Colour: bf80ff
EndChar

StartChar: pokaTok
Encoding: 178 989522 178
Width: 1000
HStem: 200 100<150 650> 325 150<823.417 926.583>
VStem: 50 100<300 591.562> 650 100<300 591.562> 800 150<348.417 451.583>
LayerCount: 2
Fore
SplineSet
100 600 m 0
 128 600 150 578 150 550 c 2
 150 300 l 1
 650 300 l 1
 650 550 l 2
 650 578 672 600 700 600 c 0
 728 600 750 578 750 550 c 2
 750 250 l 2
 750 222 728 200 700 200 c 2
 100 200 l 2
 72 200 50 222 50 250 c 2
 50 550 l 2
 50 578 72 600 100 600 c 0
950 400 m 0
 950 359 916 325 875 325 c 0
 834 325 800 359 800 400 c 0
 800 441 834 475 875 475 c 0
 916 475 950 441 950 400 c 0
EndSplineSet
MultipleSubs2: "'cc01' CART" pokaTok combCartExtTok
MultipleSubs2: "'cc02' CONT" pokaTok combLongGlyphExtTok
Colour: bf80ff
EndChar

StartChar: pokiTok
Encoding: 179 989523 179
Width: 1000
HStem: 50 100<250 750>
VStem: 150 100<150 741.562> 750 100<150 741.562>
LayerCount: 2
Fore
SplineSet
200 750 m 0
 228 750 250 728 250 700 c 2
 250 150 l 1
 750 150 l 1
 750 700 l 2
 750 728 772 750 800 750 c 0
 828 750 850 728 850 700 c 2
 850 100 l 2
 850 72 828 50 800 50 c 2
 200 50 l 2
 172 50 150 72 150 100 c 2
 150 700 l 2
 150 728 172 750 200 750 c 0
EndSplineSet
MultipleSubs2: "'cc01' CART" pokiTok combCartExtTok
MultipleSubs2: "'cc02' CONT" pokiTok combLongGlyphExtTok
Colour: bf80ff
EndChar

StartChar: ponaTok
Encoding: 180 989524 180
Width: 1000
HStem: 225 100<381.913 618.087>
VStem: 100 98<489.16 566.286>
LayerCount: 2
Fore
SplineSet
100 525 m 0
 100 550 119 575 150 575 c 0
 172 575 192 561 198 538 c 0
 232 418 352 325 500 325 c 0
 648 325 768 418 802 538 c 0
 808 561 828 575 850 575 c 0
 881 575 900 550 900 525 c 0
 900 521 899 516 898 512 c 0
 851 345 689 225 500 225 c 0
 311 225 149 345 102 512 c 0
 101 516 100 521 100 525 c 0
EndSplineSet
MultipleSubs2: "'cc01' CART" ponaTok combCartExtTok
MultipleSubs2: "'cc02' CONT" ponaTok combLongGlyphExtTok
Colour: bf80ff
EndChar

StartChar: puTok
Encoding: 181 989525 181
Width: 1000
HStem: -50 100<225 775> 60 100<423.917 576.083> 180 100<471.371 528.629> 460 100<423.917 576.083> 569 160<459.754 542.883> 750 100<225 775>
VStem: 125 100<50 750> 250 100<233.917 386.083> 370 100<283.576 341.562> 451 101<578.117 719.883> 530 100<283.576 341.562> 650 100<233.917 386.083> 775 100<50 750>
LayerCount: 2
Fore
SplineSet
502 729 m 0xff58
 530 729 552 707 552 679 c 2
 552 619 l 2
 552 591 529 569 501 569 c 0
 473 569 451 591 451 619 c 2
 451 680 l 2
 451 708 474 729 502 729 c 0xff58
649 528 m 0
 622 528 600 552 600 578 c 0
 600 591 605 603 615 613 c 2
 665 663 l 2
 675 673 688 678 701 678 c 0
 727 678 750 653 750 627 c 0
 750 615 745 602 735 593 c 2
 685 543 l 2
 675 533 662 528 649 528 c 0
250 627 m 0
 250 654 273 678 300 678 c 0
 313 678 326 673 336 663 c 2
 386 613 l 2
 396 604 401 591 401 579 c 0
 401 552 378 528 351 528 c 0
 338 528 325 533 315 543 c 2
 265 593 l 2
 255 602 250 615 250 627 c 0
500 280 m 0
 515 280 530 288 530 300 c 0
 530 328 552 350 580 350 c 0
 608 350 630 328 630 300 c 0
 630 228 565 180 500 180 c 0
 435 180 370 228 370 300 c 0
 370 328 392 350 420 350 c 0
 448 350 470 328 470 300 c 0xffb8
 470 288 486 280 500 280 c 0
500 60 m 0
 362 60 250 172 250 310 c 0
 250 448 362 560 500 560 c 0
 638 560 750 448 750 310 c 0
 750 172 638 60 500 60 c 0
650 310 m 0
 650 393 583 460 500 460 c 0
 417 460 350 393 350 310 c 0
 350 227 417 160 500 160 c 0
 583 160 650 227 650 310 c 0
225 750 m 1
 225 50 l 1
 775 50 l 1
 775 750 l 1
 225 750 l 1
125 800 m 2
 125 828 147 850 175 850 c 2
 825 850 l 2
 853 850 875 828 875 800 c 2
 875 0 l 2
 875 -28 853 -50 825 -50 c 2
 175 -50 l 2
 147 -50 125 -28 125 0 c 2
 125 800 l 2
EndSplineSet
MultipleSubs2: "'cc01' CART" puTok combCartExtTok
MultipleSubs2: "'cc02' CONT" puTok combLongGlyphExtTok
Colour: bf80ff
EndChar

StartChar: samaTok
Encoding: 182 989526 182
Width: 1000
HStem: 170 100<118.438 881.562> 530 100<118.438 881.562>
LayerCount: 2
Fore
SplineSet
890 220 m 0
 890 192 868 170 840 170 c 2
 160 170 l 2
 132 170 110 192 110 220 c 0
 110 248 132 270 160 270 c 2
 840 270 l 2
 868 270 890 248 890 220 c 0
890 580 m 0
 890 552 868 530 840 530 c 2
 160 530 l 2
 132 530 110 552 110 580 c 0
 110 608 132 630 160 630 c 2
 840 630 l 2
 868 630 890 608 890 580 c 0
EndSplineSet
MultipleSubs2: "'cc01' CART" samaTok combCartExtTok
MultipleSubs2: "'cc02' CONT" samaTok combLongGlyphExtTok
Colour: bf80ff
EndChar

StartChar: seliTok
Encoding: 183 989527 183
Width: 1000
HStem: -50 150<448.417 551.583>
VStem: 425 150<-26.5827 76.5827> 450 100<283.438 841.562>
LayerCount: 2
Fore
SplineSet
100 731 m 0x80
 100 755 121 781 150 781 c 0
 169 781 186 770 195 752 c 2
 395 321 l 2
 398 314 400 307 400 300 c 0
 400 276 379 250 350 250 c 0
 331 250 314 261 305 279 c 2
 105 710 l 2
 102 717 100 724 100 731 c 0x80
850 781 m 0
 880 781 901 754 901 730 c 0
 901 723 899 717 896 710 c 2
 695 279 l 2
 686 261 669 250 650 250 c 0
 621 250 600 276 600 300 c 0
 600 307 602 314 605 321 c 2
 805 752 l 2
 814 770 831 781 850 781 c 0
500 850 m 0
 528 850 550 828 550 800 c 2
 550 325 l 2
 550 297 528 275 500 275 c 0
 472 275 450 297 450 325 c 2
 450 800 l 2xa0
 450 828 472 850 500 850 c 0
575 25 m 0xc0
 575 -16 541 -50 500 -50 c 0
 459 -50 425 -16 425 25 c 0
 425 66 459 100 500 100 c 0
 541 100 575 66 575 25 c 0xc0
EndSplineSet
MultipleSubs2: "'cc01' CART" seliTok combCartExtTok
MultipleSubs2: "'cc02' CONT" seliTok combLongGlyphExtTok
Colour: bf80ff
EndChar

StartChar: seloTok
Encoding: 184 989528 184
Width: 1000
HStem: 550 100<200 250 350 650 750 800>
VStem: 100 100<158.438 550> 250 100<208.438 550> 650 100<208.438 550> 800 100<158.438 550>
LayerCount: 2
Fore
SplineSet
200 200 m 2
 200 172 178 150 150 150 c 0
 122 150 100 172 100 200 c 2
 100 600 l 2
 100 628 122 650 150 650 c 2
 850 650 l 2
 878 650 900 628 900 600 c 2
 900 200 l 2
 900 172 878 150 850 150 c 0
 822 150 800 172 800 200 c 2
 800 550 l 1
 750 550 l 1
 750 250 l 2
 750 222 728 200 700 200 c 0
 672 200 650 222 650 250 c 2
 650 550 l 1
 350 550 l 1
 350 250 l 2
 350 222 328 200 300 200 c 0
 272 200 250 222 250 250 c 2
 250 550 l 1
 200 550 l 1
 200 200 l 2
EndSplineSet
MultipleSubs2: "'cc01' CART" seloTok combCartExtTok
MultipleSubs2: "'cc02' CONT" seloTok combLongGlyphExtTok
Colour: bf80ff
EndChar

StartChar: semeTok
Encoding: 185 989529 185
Width: 1000
HStem: -50 150<448.417 551.583> 760 100<333.712 665.416>
VStem: 144 100<587.467 699.562> 425 150<-26.5827 76.5827> 450 100<208.438 366.763> 756 100<609.14 699.182>
LayerCount: 2
Fore
SplineSet
425 25 m 4xf4
 425 66 459 100 500 100 c 4
 541 100 575 66 575 25 c 4
 575 -16 541 -50 500 -50 c 4
 459 -50 425 -16 425 25 c 4xf4
259 600 m 4
 259 572 237 550 209 550 c 4
 163 550 144 609 144 650 c 4
 144 743 209 796 278 824 c 4
 337 848 412 860 500 860 c 4
 588 860 662 848 721 824 c 4
 790 796 856 743 856 650 c 4
 856 606 835 569 809 543 c 4
 777 510 737 488 699 466 c 4
 612 416 550 376 550 300 c 6
 550 250 l 6
 550 222 528 200 500 200 c 4
 472 200 450 222 450 250 c 6
 450 300 l 6xec
 450 442 570 508 648 553 c 4
 679 571 707 587 726 602 c 4
 750 622 756 635 756 650 c 4
 756 664 753 675 747 685 c 4
 737 701 717 718 683 732 c 4
 641 749 579 760 500 760 c 4
 421 760 358 749 316 732 c 4
 282 718 263 701 253 685 c 4
 247 675 244 664 244 650 c 4
 244 631 259 619 259 600 c 4
EndSplineSet
MultipleSubs2: "'cc01' CART" semeTok combCartExtTok
MultipleSubs2: "'cc02' CONT" semeTok combLongGlyphExtTok
Colour: bf80ff
EndChar

StartChar: sewiTok
Encoding: 186 989530 186
Width: 1000
HStem: -30 100<58.4375 122.434 317.566 356.965 563.035 594.474>
VStem: 170 100<160.885 397.562> 410 100<202.472 543.604> 650 100<390.142 691.562> 850 100<-31.5625 811.562>
LayerCount: 2
Fore
SplineSet
220 62 m 5
 199 20 164 -30 100 -30 c 4
 72 -30 50 -8 50 20 c 4
 50 48 72 70 100 70 c 4
 102 70 111 70 125 96 c 4
 138 121 149 157 156 197 c 4
 163 236 166 276 168 306 c 4
 169 321 170 334 170 343 c 4
 170 347 170 352 170 356 c 4
 170 384 192 406 220 406 c 4
 248 406 270 384 270 356 c 6
 270 343 l 6
 270 334 271 321 272 306 c 4
 274 276 277 236 284 197 c 4
 291 157 302 121 315 96 c 4
 329 70 338 70 340 70 c 6
 341 70 l 5
 350 77 356 85 364 104 c 4
 397 180 408 371 410 465 c 6
 410 504 l 6
 410 531 433 553 460 553 c 4
 487 553 510 530 510 503 c 6
 510 465 l 6
 510 410 513 320 524 237 c 4
 531 183 542 136 556 104 c 4
 564 85 570 77 579 70 c 5
 580 70 l 5
 589 77 595 86 603 107 c 4
 649 226 650 477 650 631 c 4
 650 637 650 644 650 650 c 4
 650 678 672 700 700 700 c 4
 728 700 750 678 750 650 c 6
 750 649 l 6
 750 486 749 207 696 71 c 4
 679 27 644 -30 580 -30 c 4
 517 -30 483 23 465 64 c 4
 463 68 462 71 460 75 c 5
 458 71 457 68 455 64 c 4
 437 23 403 -30 340 -30 c 4
 276 -30 241 20 220 62 c 5
900 -40 m 4
 872 -40 850 -18 850 10 c 6
 850 770 l 6
 850 798 872 820 900 820 c 4
 928 820 950 798 950 770 c 6
 950 10 l 6
 950 -18 928 -40 900 -40 c 4
EndSplineSet
MultipleSubs2: "'cc01' CART" sewiTok combCartExtTok
MultipleSubs2: "'cc02' CONT" sewiTok combLongGlyphExtTok
Colour: bf80ff
EndChar

StartChar: sijeloTok
Encoding: 187 989531 187
Width: 1000
HStem: 690 100<210 450 550 790>
VStem: 110 100<18.4375 690> 450 100<67.4375 690> 790 100<18.4375 690>
CounterMasks: 1 70
LayerCount: 2
Fore
SplineSet
210 60 m 2
 210 32 188 10 160 10 c 0
 132 10 110 32 110 60 c 2
 110 740 l 2
 110 768 132 790 160 790 c 2
 840 790 l 2
 868 790 890 768 890 740 c 2
 890 60 l 2
 890 32 868 10 840 10 c 0
 812 10 790 32 790 60 c 2
 790 690 l 1
 550 690 l 1
 550 109 l 2
 550 81 528 59 500 59 c 0
 472 59 450 81 450 109 c 2
 450 690 l 1
 210 690 l 1
 210 60 l 2
EndSplineSet
MultipleSubs2: "'cc01' CART" sijeloTok combCartExtTok
MultipleSubs2: "'cc02' CONT" sijeloTok combLongGlyphExtTok
Colour: bf80ff
EndChar

StartChar: sikeTok
Encoding: 188 989532 188
Width: 1000
HStem: -50 100<383.579 616.421> 150 100<423.917 576.083> 550 100<423.917 576.083> 750 100<383.579 616.421>
VStem: 50 100<283.579 516.421> 250 100<323.917 476.083> 650 100<323.917 476.083> 850 100<283.579 516.421>
LayerCount: 2
Fore
SplineSet
500 150 m 0
 362 150 250 262 250 400 c 0
 250 538 362 650 500 650 c 0
 638 650 750 538 750 400 c 0
 750 262 638 150 500 150 c 0
650 400 m 0
 650 483 583 550 500 550 c 0
 417 550 350 483 350 400 c 0
 350 317 417 250 500 250 c 0
 583 250 650 317 650 400 c 0
500 -50 m 0
 251 -50 50 151 50 400 c 0
 50 649 251 850 500 850 c 0
 749 850 950 649 950 400 c 0
 950 151 749 -50 500 -50 c 0
500 50 m 0
 693 50 850 207 850 400 c 0
 850 593 693 750 500 750 c 0
 307 750 150 593 150 400 c 0
 150 207 307 50 500 50 c 0
EndSplineSet
MultipleSubs2: "'cc01' CART" sikeTok combCartExtTok
MultipleSubs2: "'cc02' CONT" sikeTok combLongGlyphExtTok
Colour: bf80ff
EndChar

StartChar: sinTok
Encoding: 189 989533 189
Width: 1000
HStem: 150 100<58.4375 391.562 608.438 941.562>
VStem: 450 100<308.438 641.562>
LayerCount: 2
Fore
SplineSet
50 200 m 0
 50 228 72 250 100 250 c 2
 350 250 l 2
 378 250 400 228 400 200 c 0
 400 172 378 150 350 150 c 2
 100 150 l 2
 72 150 50 172 50 200 c 0
500 650 m 0
 528 650 550 628 550 600 c 2
 550 350 l 2
 550 322 528 300 500 300 c 0
 472 300 450 322 450 350 c 2
 450 600 l 2
 450 628 472 650 500 650 c 0
600 200 m 0
 600 228 622 250 650 250 c 2
 900 250 l 2
 928 250 950 228 950 200 c 0
 950 172 928 150 900 150 c 2
 650 150 l 2
 622 150 600 172 600 200 c 0
EndSplineSet
MultipleSubs2: "'cc01' CART" sinTok combCartExtTok
MultipleSubs2: "'cc02' CONT" sinTok combLongGlyphExtTok
Colour: bf80ff
EndChar

StartChar: sinaTok
Encoding: 190 989534 190
Width: 1000
HStem: 0 100<439.527 560.473> 300 100<438.571 560.473>
VStem: 300 100<139.527 334.886> 402 95<686.404 734 735 791.598> 600 100<139.527 260.473>
LayerCount: 2
Fore
SplineSet
600 200 m 0
 600 255 555 300 500 300 c 0
 445 300 400 255 400 200 c 0
 400 145 445 100 500 100 c 0
 555 100 600 145 600 200 c 0
450 800 m 0
 480 800 500 774 500 750 c 0
 500 745 499 741 498 736 c 2
 498 735 l 1
 497 734 l 1
 497 732 l 2
 496 730 495 726 494 721 c 0
 491 712 488 698 483 681 c 0
 462 601 433 479 417 382 c 1
 442 394 470 400 500 400 c 0
 610 400 700 310 700 200 c 0
 700 90 610 0 500 0 c 0
 390 0 300 90 300 200 c 0
 300 313 326 456 351 567 c 0
 369 643 381 692 398 749 c 0
 399 754 400 757 401 760 c 0
 401 761 402 762 402 763 c 2
 402 764 l 1
 409 785 429 800 450 800 c 0
EndSplineSet
MultipleSubs2: "'cc01' CART" sinaTok combCartExtTok
MultipleSubs2: "'cc02' CONT" sinaTok combLongGlyphExtTok
Colour: bf80ff
EndChar

StartChar: sinpinTok
Encoding: 191 989535 191
Width: 1000
HStem: 0 100<208.438 500> 325 150<673.417 776.583> 700 100<208.438 500>
VStem: 500 100<100 700> 650 150<348.417 451.583>
CounterMasks: 1 e0
LayerCount: 2
Fore
SplineSet
725 475 m 0
 766 475 800 441 800 400 c 0
 800 359 766 325 725 325 c 0
 684 325 650 359 650 400 c 0
 650 441 684 475 725 475 c 0
200 50 m 0
 200 78 222 100 250 100 c 2
 500 100 l 1
 500 700 l 1
 250 700 l 2
 222 700 200 722 200 750 c 0
 200 778 222 800 250 800 c 2
 550 800 l 2
 578 800 600 778 600 750 c 2
 600 50 l 2
 600 22 578 0 550 0 c 2
 250 0 l 2
 222 0 200 22 200 50 c 0
EndSplineSet
MultipleSubs2: "'cc01' CART" sinpinTok combCartExtTok
MultipleSubs2: "'cc02' CONT" sinpinTok combLongGlyphExtTok
Colour: bf80ff
EndChar

StartChar: sitelenTok
Encoding: 192 989536 192
Width: 1000
HStem: 0 100<250 750> 343 120<296.618 383.382 453.745 546.255 613.745 706.255> 700 100<250 750>
VStem: 150 100<100 700> 280 120<353.745 446.255> 440 120<356.745 449.255> 600 120<356.745 449.255> 750 100<100 700>
LayerCount: 2
Fore
SplineSet
720 403 m 0
 720 370 693 343 660 343 c 0
 627 343 600 370 600 403 c 0
 600 436 627 463 660 463 c 0
 693 463 720 436 720 403 c 0
560 403 m 0
 560 370 533 343 500 343 c 0
 467 343 440 370 440 403 c 0
 440 436 467 463 500 463 c 0
 533 463 560 436 560 403 c 0
400 400 m 0
 400 367 373 340 340 340 c 0
 307 340 280 367 280 400 c 0
 280 433 307 460 340 460 c 0
 373 460 400 433 400 400 c 0
250 700 m 1
 250 100 l 1
 750 100 l 1
 750 700 l 1
 250 700 l 1
150 750 m 2
 150 778 172 800 200 800 c 2
 800 800 l 2
 828 800 850 778 850 750 c 2
 850 50 l 2
 850 22 828 0 800 0 c 2
 200 0 l 2
 172 0 150 22 150 50 c 2
 150 750 l 2
EndSplineSet
MultipleSubs2: "'cc01' CART" sitelenTok combCartExtTok
MultipleSubs2: "'cc02' CONT" sitelenTok combLongGlyphExtTok
Colour: bf80ff
EndChar

StartChar: sonaTok
Encoding: 193 989537 193
Width: 1000
HStem: 0 100<340 660> 450 100<340 660> 650 200<458.438 541.562>
VStem: 240 100<100 450> 450 100<658.438 841.562> 660 100<100 450>
CounterMasks: 1 1c
LayerCount: 2
Fore
SplineSet
340 450 m 1
 340 100 l 1
 660 100 l 1
 660 450 l 1
 340 450 l 1
240 500 m 2
 240 528 262 550 290 550 c 2
 710 550 l 2
 738 550 760 528 760 500 c 2
 760 50 l 2
 760 22 738 0 710 0 c 2
 290 0 l 2
 262 0 240 22 240 50 c 2
 240 500 l 2
750 783 m 0
 779 783 800 758 800 733 c 0
 800 724 798 716 793 708 c 2
 743 621 l 2
 734 605 717 596 700 596 c 0
 671 596 650 621 650 646 c 0
 650 655 652 663 657 671 c 2
 707 758 l 2
 716 774 733 783 750 783 c 0
200 733 m 0
 200 758 221 783 250 783 c 0
 267 783 284 774 293 758 c 2
 343 671 l 2
 348 663 350 655 350 646 c 0
 350 621 329 596 300 596 c 0
 283 596 266 605 257 621 c 2
 207 708 l 2
 202 716 200 724 200 733 c 0
500 850 m 0
 528 850 550 828 550 800 c 2
 550 700 l 2
 550 672 528 650 500 650 c 0
 472 650 450 672 450 700 c 2
 450 800 l 2
 450 828 472 850 500 850 c 0
EndSplineSet
MultipleSubs2: "'cc01' CART" sonaTok combCartExtTok
MultipleSubs2: "'cc02' CONT" sonaTok combLongGlyphExtTok
Colour: bf80ff
EndChar

StartChar: soweliTok
Encoding: 194 989538 194
Width: 1000
HStem: -50 300<68.4375 151.562 228.438 311.562 388.438 471.562 548.438 628.056> 425 150<363.417 466.583 593.417 696.583> 750 100<98.4375 685.711>
VStem: 60 100<-41.5625 241.562> 220 100<-41.5625 241.562> 340 150<448.417 551.583> 380 100<-41.5625 241.562> 540 100<-41.5625 156.605> 570 150<448.417 551.583> 840 100<403.745 596.496>
LayerCount: 2
Fore
SplineSet
140 850 m 2xf940
 590 850 l 2
 783 850 940 693 940 500 c 0
 940 324 810 178 640 154 c 1
 640 0 l 2
 640 -28 618 -50 590 -50 c 0
 562 -50 540 -28 540 0 c 2
 540 200 l 2
 540 228 562 250 590 250 c 0
 728 250 840 362 840 500 c 0
 840 638 728 750 590 750 c 2
 140 750 l 2
 112 750 90 772 90 800 c 0
 90 828 112 850 140 850 c 2xf940
490 500 m 0xfc40
 490 459 456 425 415 425 c 0
 374 425 340 459 340 500 c 0
 340 541 374 575 415 575 c 0
 456 575 490 541 490 500 c 0xfc40
720 500 m 0xf8c0
 720 459 686 425 645 425 c 0
 604 425 570 459 570 500 c 0
 570 541 604 575 645 575 c 0
 686 575 720 541 720 500 c 0xf8c0
270 250 m 0
 298 250 320 228 320 200 c 2
 320 0 l 2
 320 -28 298 -50 270 -50 c 0
 242 -50 220 -28 220 0 c 2
 220 200 l 2
 220 228 242 250 270 250 c 0
110 250 m 0
 138 250 160 228 160 200 c 2
 160 0 l 2
 160 -28 138 -50 110 -50 c 0
 82 -50 60 -28 60 0 c 2
 60 200 l 2
 60 228 82 250 110 250 c 0
430 250 m 0
 458 250 480 228 480 200 c 2
 480 0 l 2
 480 -28 458 -50 430 -50 c 0
 402 -50 380 -28 380 0 c 2
 380 200 l 2xfa40
 380 228 402 250 430 250 c 0
EndSplineSet
MultipleSubs2: "'cc01' CART" soweliTok combCartExtTok
MultipleSubs2: "'cc02' CONT" soweliTok combLongGlyphExtTok
Colour: bf80ff
EndChar

StartChar: suliTok
Encoding: 195 989539 195
Width: 1000
LayerCount: 2
Fore
SplineSet
849 850 m 0
 877 850 900 827 900 801 c 0
 900 790 896 778 889 769 c 0
 777 625 694 443 638 289 c 0
 582 135 554 13 549 -10 c 0
 544 -33 524 -50 500 -50 c 0
 476 -50 456 -33 451 -10 c 0
 446 13 418 135 362 289 c 0
 306 443 223 625 111 769 c 0
 104 778 100 790 100 801 c 0
 100 827 123 850 151 850 c 0
 166 850 179 844 189 831 c 0
 310 675 398 481 456 323 c 0
 473 276 488 232 500 192 c 1
 512 232 527 276 544 323 c 0
 602 481 690 675 811 831 c 0
 821 844 834 850 849 850 c 0
EndSplineSet
MultipleSubs2: "'cc01' CART" suliTok combCartExtTok
MultipleSubs2: "'cc02' CONT" suliTok combLongGlyphExtTok
Colour: bf80ff
EndChar

StartChar: sunoTok
Encoding: 196 989540 196
Width: 1000
HStem: 104 96<409.692 450 550 590.308> 350 100<58.4375 207.462 792.538 941.562> 600 96<409.692 450 550 590.308>
VStem: 204 96<309.692 350 450 490.308> 450 100<-41.5625 107.462 692.538 841.562> 700 96<309.692 350 450 490.308>
CounterMasks: 1 fc
LayerCount: 2
Fore
SplineSet
500 600 m 0
 390 600 300 510 300 400 c 0
 300 290 390 200 500 200 c 0
 610 200 700 290 700 400 c 0
 700 510 610 600 500 600 c 0
450 800 m 2
 450 828 472 850 500 850 c 0
 528 850 550 828 550 800 c 2
 550 696 l 1
 676 675 775 576 796 450 c 1
 900 450 l 2
 928 450 950 428 950 400 c 0
 950 372 928 350 900 350 c 2
 796 350 l 1
 775 224 676 125 550 104 c 1
 550 0 l 2
 550 -28 528 -50 500 -50 c 0
 472 -50 450 -28 450 0 c 2
 450 104 l 1
 324 125 225 224 204 350 c 1
 100 350 l 2
 72 350 50 372 50 400 c 0
 50 428 72 450 100 450 c 2
 204 450 l 1
 225 576 324 675 450 696 c 1
 450 800 l 2
EndSplineSet
MultipleSubs2: "'cc01' CART" sunoTok combCartExtTok
MultipleSubs2: "'cc02' CONT" sunoTok combLongGlyphExtTok
Colour: bf80ff
EndChar

StartChar: supaTok
Encoding: 197 989541 197
Width: 1000
HStem: 500 100<58.4375 220 320 680 780 941.562>
VStem: 220 100<208.438 500> 680 100<208.438 500>
LayerCount: 2
Fore
SplineSet
100 600 m 2
 900 600 l 2
 928 600 950 578 950 550 c 0
 950 522 928 500 900 500 c 2
 780 500 l 1
 780 250 l 2
 780 222 758 200 730 200 c 0
 702 200 680 222 680 250 c 2
 680 500 l 1
 320 500 l 1
 320 250 l 2
 320 222 298 200 270 200 c 0
 242 200 220 222 220 250 c 2
 220 500 l 1
 100 500 l 2
 72 500 50 522 50 550 c 0
 50 578 72 600 100 600 c 2
EndSplineSet
MultipleSubs2: "'cc01' CART" supaTok combCartExtTok
MultipleSubs2: "'cc02' CONT" supaTok combLongGlyphExtTok
Colour: bf80ff
EndChar

StartChar: suwiTok
Encoding: 198 989542 198
Width: 1000
HStem: 100 150<453.417 556.583>
VStem: 430 150<123.417 226.583>
LayerCount: 2
Fore
SplineSet
580 175 m 0
 580 134 546 100 505 100 c 0
 464 100 430 134 430 175 c 0
 430 216 464 250 505 250 c 0
 546 250 580 216 580 175 c 0
600 450 m 0
 574 450 550 474 550 500 c 0
 550 512 555 525 565 535 c 2
 715 685 l 2
 725 695 738 700 750 700 c 0
 762 700 775 695 785 685 c 2
 935 535 l 2
 945 525 950 512 950 500 c 0
 950 474 926 450 900 450 c 0
 888 450 875 455 865 465 c 2
 750 579 l 1
 635 465 l 2
 625 455 612 450 600 450 c 0
100 450 m 0
 74 450 50 474 50 500 c 0
 50 512 55 525 65 535 c 2
 215 685 l 2
 225 695 238 700 250 700 c 0
 262 700 275 695 285 685 c 2
 435 535 l 2
 445 525 450 512 450 500 c 0
 450 474 426 450 400 450 c 0
 388 450 375 455 365 465 c 2
 250 579 l 1
 135 465 l 2
 125 455 112 450 100 450 c 0
EndSplineSet
MultipleSubs2: "'cc01' CART" suwiTok combCartExtTok
MultipleSubs2: "'cc02' CONT" suwiTok combLongGlyphExtTok
Colour: bf80ff
EndChar

StartChar: tanTok
Encoding: 199 989543 199
Width: 1000
HStem: 393 20G<93.5 114> 550 100<471.841 679.858>
VStem: 842 98<158.434 273.595> 850 100<183.37 379.858>
LayerCount: 2
Fore
SplineSet
891 150 m 0xe0
 861 150 842 174 842 200 c 0xe0
 842 204 842 207 843 211 c 0
 848 231 850 253 850 275 c 0
 850 427 727 550 575 550 c 0
 437 550 323 448 303 315 c 1
 374 375 l 2
 383 383 395 387 406 387 c 0
 432 387 456 364 456 337 c 0
 456 323 450 308 438 298 c 2
 276 162 l 2
 267 154 255 150 244 150 c 0
 230 150 215 156 205 168 c 2
 69 331 l 2
 61 340 57 352 57 363 c 0
 57 389 80 413 107 413 c 0
 121 413 135 407 145 395 c 2
 203 326 l 1
 228 509 385 650 575 650 c 0
 782 650 950 482 950 275 c 0xd0
 950 245 947 217 940 189 c 0
 935 166 914 150 891 150 c 0xe0
EndSplineSet
MultipleSubs2: "'cc01' CART" tanTok combCartExtTok
MultipleSubs2: "'cc02' CONT" tanTok combLongGlyphExtTok
Colour: bf80ff
EndChar

StartChar: tasoTok
Encoding: 200 989544 200
Width: 1000
HStem: 350 100<308.438 600>
VStem: 600 100<-41.5625 350 450 841.562>
LayerCount: 2
Fore
SplineSet
650 850 m 0
 678 850 700 828 700 800 c 2
 700 0 l 2
 700 -28 678 -50 650 -50 c 0
 622 -50 600 -28 600 0 c 2
 600 350 l 1
 517 350 433 350 350 350 c 0
 322 350 300 372 300 400 c 0
 300 428 322 450 350 450 c 0
 433 450 517 450 600 450 c 1
 600 800 l 2
 600 828 622 850 650 850 c 0
EndSplineSet
MultipleSubs2: "'cc01' CART" tasoTok combCartExtTok
MultipleSubs2: "'cc02' CONT" tasoTok combLongGlyphExtTok
Colour: bf80ff
EndChar

StartChar: tawaTok
Encoding: 201 989545 201
Width: 1000
HStem: 0 100<265.544 441.562>
LayerCount: 2
Fore
SplineSet
210 151 m 1
 252 123 303 100 400 100 c 0
 428 100 450 78 450 50 c 0
 450 22 428 0 400 0 c 0
 301 0 230 24 183 50 c 0
 149 69 134 83 113 104 c 0
 112 105 112 106 112 106 c 1
 111 106 l 1
 104 115 100 126 100 137 c 0
 100 143 101 150 104 156 c 2
 354 769 l 2
 362 788 380 800 401 800 c 0
 422 800 440 787 447 767 c 2
 685 101 l 1
 757 107 814 131 868 176 c 0
 877 184 889 188 900 188 c 0
 926 188 950 165 950 138 c 0
 950 124 944 109 932 99 c 0
 850 31 761 0 650 0 c 0
 629 0 610 13 603 33 c 2
 397 610 l 1
 210 151 l 1
EndSplineSet
MultipleSubs2: "'cc01' CART" tawaTok combCartExtTok
MultipleSubs2: "'cc02' CONT" tawaTok combLongGlyphExtTok
Colour: bf80ff
EndChar

StartChar: teloTok
Encoding: 202 989546 202
Width: 1000
HStem: 50 100<627.09 781.341> 250 100<218.208 372.725> 450 100<627.09 781.341> 650 100<218.208 372.725>
VStem: 49 100<82.8086 178.442 482.809 578.442> 852 98<224.877 317.088 624.877 717.088>
LayerCount: 2
Fore
SplineSet
899 726 m 0
 930 726 950 702 950 677 c 0
 950 672 949 667 948 662 c 0
 948 661 947 659 947 658 c 0
 937 622 924 581 899 545 c 0
 864 495 793 450 701 450 c 0
 608 450 538 506 475 556 c 0
 472 559 471 559 468 561 c 0
 399 616 354 650 299 650 c 0
 286 650 273 648 258 644 c 0
 215 633 194 615 181 597 c 0
 166 576 159 550 149 512 c 0
 143 489 122 473 100 473 c 0
 70 473 49 500 49 524 c 0
 49 528 50 532 51 536 c 0
 60 574 73 617 100 655 c 0
 135 705 208 750 299 750 c 0
 392 750 461 695 525 644 c 0
 528 641 529 641 532 639 c 0
 600 584 646 550 702 550 c 0
 715 550 728 552 742 556 c 0
 784 567 804 584 817 602 c 0
 832 623 841 650 852 690 c 0
 859 712 877 726 899 726 c 0
899 326 m 0
 930 326 950 302 950 277 c 0
 950 272 949 267 948 262 c 0
 948 261 947 259 947 258 c 0
 937 222 924 181 899 145 c 0
 864 95 793 50 701 50 c 0
 608 50 538 106 475 156 c 0
 472 159 471 159 468 161 c 0
 399 216 354 250 299 250 c 0
 286 250 273 248 258 244 c 0
 215 233 194 215 181 197 c 0
 166 176 159 150 149 112 c 0
 143 89 122 73 100 73 c 0
 70 73 49 100 49 124 c 0
 49 128 50 132 51 136 c 0
 60 174 73 217 100 255 c 0
 135 305 208 350 299 350 c 0
 392 350 461 295 525 244 c 0
 528 241 529 241 532 239 c 0
 600 184 646 150 702 150 c 0
 715 150 728 152 742 156 c 0
 784 167 804 184 817 202 c 0
 832 223 841 250 852 290 c 0
 859 312 877 326 899 326 c 0
EndSplineSet
MultipleSubs2: "'cc01' CART" teloTok combCartExtTok
MultipleSubs2: "'cc02' CONT" teloTok combLongGlyphExtTok
Colour: bf80ff
EndChar

StartChar: tenpoTok
Encoding: 203 989547 203
Width: 1000
HStem: -50 100<383.579 616.421> 325 100<535 676.562> 750 100<383.579 616.421>
VStem: 50 100<283.579 516.421> 435 250<333.438 416.562> 435 100<425 691.562> 850 100<283.579 516.421>
LayerCount: 2
Fore
SplineSet
485 700 m 0xf6
 513 700 535 678 535 650 c 2
 535 425 l 1xf6
 635 425 l 2
 663 425 685 403 685 375 c 0
 685 347 663 325 635 325 c 2
 485 325 l 2
 457 325 435 347 435 375 c 2xfa
 435 650 l 2
 435 678 457 700 485 700 c 0xf6
500 -50 m 0
 251 -50 50 151 50 400 c 0
 50 649 251 850 500 850 c 0
 749 850 950 649 950 400 c 0
 950 151 749 -50 500 -50 c 0
500 50 m 0
 693 50 850 207 850 400 c 0
 850 593 693 750 500 750 c 0
 307 750 150 593 150 400 c 0
 150 207 307 50 500 50 c 0
EndSplineSet
MultipleSubs2: "'cc01' CART" tenpoTok combCartExtTok
MultipleSubs2: "'cc02' CONT" tenpoTok combLongGlyphExtTok
Colour: bf80ff
EndChar

StartChar: tokiTok
Encoding: 204 989548 204
Width: 1000
HStem: -50 100<405.528 594.472> 500 100<405.528 594.472> 650 200<458.438 541.562>
VStem: 175 100<180.528 369.472> 450 100<658.438 841.562> 725 100<180.528 369.472>
CounterMasks: 1 1c
LayerCount: 2
Fore
SplineSet
750 783 m 0
 779 783 800 758 800 733 c 0
 800 724 798 716 793 708 c 2
 743 621 l 2
 734 605 717 596 700 596 c 0
 671 596 650 621 650 646 c 0
 650 655 652 663 657 671 c 2
 707 758 l 2
 716 774 733 783 750 783 c 0
200 733 m 0
 200 758 221 783 250 783 c 0
 267 783 284 774 293 758 c 2
 343 671 l 2
 348 663 350 655 350 646 c 0
 350 621 329 596 300 596 c 0
 283 596 266 605 257 621 c 2
 207 708 l 2
 202 716 200 724 200 733 c 0
500 850 m 0
 528 850 550 828 550 800 c 2
 550 700 l 2
 550 672 528 650 500 650 c 0
 472 650 450 672 450 700 c 2
 450 800 l 2
 450 828 472 850 500 850 c 0
175 275 m 0
 175 454 321 600 500 600 c 0
 679 600 825 454 825 275 c 0
 825 96 679 -50 500 -50 c 0
 321 -50 175 96 175 275 c 0
500 500 m 0
 376 500 275 399 275 275 c 0
 275 151 376 50 500 50 c 0
 624 50 725 151 725 275 c 0
 725 399 624 500 500 500 c 0
EndSplineSet
MultipleSubs2: "'cc01' CART" tokiTok combCartExtTok
MultipleSubs2: "'cc02' CONT" tokiTok combLongGlyphExtTok
Colour: bf80ff
EndChar

StartChar: tomoTok
Encoding: 205 989549 205
Width: 1000
HStem: 0 100<200 800>
VStem: 100 100<100 427> 800 100<100 427>
LayerCount: 2
Fore
SplineSet
200 427 m 1
 200 100 l 1
 800 100 l 1
 800 427 l 1
 500 684 l 1
 200 427 l 1
467 788 m 2
 477 796 488 800 500 800 c 0
 512 800 523 796 533 788 c 2
 883 488 l 2
 894 479 900 465 900 450 c 2
 900 50 l 2
 900 22 878 0 850 0 c 2
 150 0 l 2
 122 0 100 22 100 50 c 2
 100 450 l 2
 100 465 106 479 117 488 c 2
 467 788 l 2
EndSplineSet
MultipleSubs2: "'cc01' CART" tomoTok combCartExtTok
MultipleSubs2: "'cc02' CONT" tomoTok combLongGlyphExtTok
Colour: bf80ff
EndChar

StartChar: tuTok
Encoding: 206 989550 206
Width: 1000
VStem: 270 100<-41.5625 841.562> 630 100<-41.5625 841.562>
LayerCount: 2
Fore
SplineSet
320 -50 m 0
 292 -50 270 -28 270 0 c 2
 270 800 l 2
 270 828 292 850 320 850 c 0
 348 850 370 828 370 800 c 2
 370 0 l 2
 370 -28 348 -50 320 -50 c 0
680 -50 m 0
 652 -50 630 -28 630 0 c 2
 630 800 l 2
 630 828 652 850 680 850 c 0
 708 850 730 828 730 800 c 2
 730 0 l 2
 730 -28 708 -50 680 -50 c 0
EndSplineSet
MultipleSubs2: "'cc01' CART" tuTok combCartExtTok
MultipleSubs2: "'cc02' CONT" tuTok combLongGlyphExtTok
Colour: bf80ff
EndChar

StartChar: unpaTok
Encoding: 207 989551 207
Width: 1000
HStem: -28 100<426.467 573.907> 275 100<393.019 606.393> 709 100<230.011 396.711 603.652 772.292>
VStem: 60 100<487.87 645.98> 263 100<145.753 283.401> 638 100<145.753 283.401> 841 99<487.708 645.811>
LayerCount: 2
Fore
SplineSet
635 284 m 1
 592 278 546 275 500 275 c 0
 454 275 409 278 366 284 c 1
 364 272 363 261 363 251 c 0
 363 191 379 146 402 117 c 0
 424 89 456 72 500 72 c 0
 544 72 577 89 599 117 c 0
 622 146 638 191 638 251 c 0
 638 261 637 272 635 284 c 1
568 664 m 1
 624 590 674 497 707 401 c 1
 725 407 741 413 752 420 c 0
 815 456 841 517 841 570 c 0
 841 596 835 620 824 639 c 0
 802 677 748 709 687 709 c 0
 646 709 597 690 568 664 c 1
500 587 m 1
 458 529 418 451 392 381 c 1
 426 377 463 375 500 375 c 0
 537 375 574 377 608 381 c 1
 582 451 542 529 500 587 c 1
433 664 m 1
 404 690 354 709 313 709 c 0
 252 709 199 677 177 639 c 0
 166 620 160 596 160 570 c 0
 160 517 186 456 249 420 c 0
 260 413 275 407 293 401 c 1
 326 496 377 590 433 664 c 1
500 -28 m 0
 427 -28 365 1 323 54 c 0
 282 105 263 175 263 251 c 0
 263 268 265 285 268 304 c 1
 243 312 219 321 199 333 c 0
 103 388 60 482 60 570 c 0
 60 613 70 655 90 689 c 0
 131 759 218 809 314 809 c 0
 361 809 410 797 456 770 c 0
 471 761 486 751 500 738 c 1
 514 751 529 761 544 770 c 0
 590 797 639 809 686 809 c 0
 782 809 869 759 910 689 c 0
 930 655 940 612 940 569 c 0
 940 482 898 388 802 333 c 0
 782 321 758 312 733 304 c 1
 736 285 738 268 738 251 c 0
 738 175 718 105 677 54 c 0
 635 1 573 -28 500 -28 c 0
EndSplineSet
MultipleSubs2: "'cc01' CART" unpaTok combCartExtTok
MultipleSubs2: "'cc02' CONT" unpaTok combLongGlyphExtTok
Colour: bf80ff
EndChar

StartChar: utaTok
Encoding: 208 989552 208
Width: 1000
HStem: 40 150<448.417 551.583> 261 100<399.278 600.722> 599 100<234 766>
VStem: 425 150<63.4173 166.583>
LayerCount: 2
Fore
SplineSet
575 115 m 0
 575 74 541 40 500 40 c 0
 459 40 425 74 425 115 c 0
 425 156 459 190 500 190 c 0
 541 190 575 156 575 115 c 0
234 599 m 1
 256 462 369 361 500 361 c 0
 631 361 744 462 766 599 c 1
 234 599 l 1
130 649 m 0
 130 677 152 699 180 699 c 2
 820 699 l 2
 848 699 870 677 870 649 c 0
 870 437 707 261 500 261 c 0
 293 261 130 437 130 649 c 0
EndSplineSet
MultipleSubs2: "'cc01' CART" utaTok combCartExtTok
MultipleSubs2: "'cc02' CONT" utaTok combLongGlyphExtTok
Colour: bf80ff
EndChar

StartChar: utalaTok
Encoding: 209 989553 209
Width: 1000
HStem: 0 21G<235.5 244.5 755.5 764.5>
LayerCount: 2
Fore
SplineSet
762 800 m 0
 790 800 812 776 812 750 c 0
 812 740 809 729 802 720 c 2
 562 400 l 1
 745 156 l 1
 803 328 l 2
 810 349 829 363 850 363 c 0
 880 363 900 338 900 313 c 0
 900 308 899 302 897 297 c 2
 810 34 l 2
 804 16 789 4 771 1 c 0
 768 1 766 0 763 0 c 0
 748 0 732 7 723 20 c 2
 500 317 l 1
 277 20 l 2
 268 7 252 0 237 0 c 0
 234 0 232 1 229 1 c 0
 211 4 196 16 190 34 c 2
 103 297 l 2
 101 302 100 308 100 313 c 0
 100 338 120 363 150 363 c 0
 171 363 190 349 197 328 c 2
 255 156 l 1
 438 400 l 1
 198 720 l 2
 191 729 188 740 188 750 c 0
 188 776 210 800 238 800 c 0
 253 800 268 793 278 780 c 2
 500 484 l 1
 722 780 l 2
 732 793 747 800 762 800 c 0
EndSplineSet
MultipleSubs2: "'cc01' CART" utalaTok combCartExtTok
MultipleSubs2: "'cc02' CONT" utalaTok combLongGlyphExtTok
Colour: bf80ff
EndChar

StartChar: waloTok
Encoding: 210 989554 210
Width: 1000
HStem: 0 100<197 803>
LayerCount: 2
Fore
SplineSet
649 368 m 2
 500 625 l 1
 350 366 l 2
 348 364 348 360 346 358 c 2
 197 100 l 1
 803 100 l 1
 655 356 l 2
 654 358 652 360 651 362 c 0
 650 364 650 366 649 368 c 2
50 505 m 0
 50 534 75 555 100 555 c 0
 109 555 117 553 125 548 c 2
 287 455 l 1
 457 750 l 2
 466 765 482 775 500 775 c 0
 518 775 534 765 543 750 c 2
 713 455 l 1
 875 548 l 2
 883 553 891 555 900 555 c 0
 925 555 950 534 950 505 c 0
 950 488 941 471 925 462 c 2
 763 369 l 1
 933 75 l 2
 937 67 940 59 940 50 c 0
 940 21 916 0 890 0 c 2
 110 0 l 2
 84 0 60 21 60 50 c 0
 60 59 63 67 67 75 c 2
 237 369 l 1
 75 462 l 2
 59 471 50 488 50 505 c 0
EndSplineSet
MultipleSubs2: "'cc01' CART" waloTok combCartExtTok
MultipleSubs2: "'cc02' CONT" waloTok combLongGlyphExtTok
Colour: bf80ff
EndChar

StartChar: wanTok
Encoding: 211 989555 211
Width: 1000
VStem: 550 100<-41.5625 679>
LayerCount: 2
Fore
SplineSet
600 850 m 0
 630 850 650 825 650 800 c 2
 650 0 l 2
 650 -28 628 -50 600 -50 c 0
 572 -50 550 -28 550 0 c 2
 550 679 l 1
 385 515 l 2
 375 505 362 500 350 500 c 0
 324 500 300 524 300 550 c 0
 300 562 305 575 315 585 c 2
 565 835 l 2
 574 844 587 850 600 850 c 0
EndSplineSet
MultipleSubs2: "'cc01' CART" wanTok combCartExtTok
MultipleSubs2: "'cc02' CONT" wanTok combLongGlyphExtTok
Colour: bf80ff
EndChar

StartChar: wasoTok
Encoding: 212 989556 212
Width: 1000
HStem: 200 100<323 682> 330 150<251.417 354.583 446.417 549.583>
VStem: 223 100<-41.5625 200> 228 150<353.417 456.583> 423 150<353.417 456.583>
LayerCount: 2
Fore
SplineSet
378 405 m 0xd8
 378 364 344 330 303 330 c 0
 262 330 228 364 228 405 c 0
 228 446 262 480 303 480 c 0
 344 480 378 446 378 405 c 0xd8
573 405 m 0
 573 364 539 330 498 330 c 0
 457 330 423 364 423 405 c 0
 423 446 457 480 498 480 c 0
 539 480 573 446 573 405 c 0
373 800 m 0
 373 825 394 850 423 850 c 0
 439 850 455 842 465 827 c 2
 815 277 l 2
 820 269 823 260 823 250 c 0
 823 220 798 200 773 200 c 2
 323 200 l 1
 323 0 l 2
 323 -28 301 -50 273 -50 c 0
 245 -50 223 -28 223 0 c 2
 223 250 l 2xe8
 223 278 245 300 273 300 c 2
 682 300 l 1
 381 773 l 2
 376 781 373 791 373 800 c 0
EndSplineSet
MultipleSubs2: "'cc01' CART" wasoTok combCartExtTok
MultipleSubs2: "'cc02' CONT" wasoTok combLongGlyphExtTok
Colour: bf80ff
EndChar

StartChar: wawaTok
Encoding: 213 989557 213
Width: 1000
HStem: 45 100<421.527 578.473> 465 100<421.527 578.473>
VStem: 240 100<226.527 383.473> 660 100<226.527 383.473>
LayerCount: 2
Fore
SplineSet
92 754 m 0
 95 754 98 755 100 755 c 0
 124 755 145 737 149 713 c 2
 239 163 l 2
 239 160 240 157 240 155 c 0
 240 131 222 110 198 106 c 0
 195 106 192 105 190 105 c 0
 166 105 145 123 141 147 c 2
 51 697 l 2
 51 700 50 703 50 705 c 0
 50 729 68 750 92 754 c 0
908 754 m 0
 932 750 950 729 950 705 c 0
 950 703 949 700 949 697 c 2
 859 147 l 2
 855 123 834 105 810 105 c 0
 808 105 805 106 802 106 c 0
 778 110 760 131 760 155 c 0
 760 157 761 160 761 163 c 2
 851 713 l 2
 855 737 876 755 900 755 c 0
 902 755 905 754 908 754 c 0
240 305 m 0
 240 449 356 565 500 565 c 0
 644 565 760 449 760 305 c 0
 760 161 644 45 500 45 c 0
 356 45 240 161 240 305 c 0
500 465 m 0
 412 465 340 393 340 305 c 0
 340 217 412 145 500 145 c 0
 588 145 660 217 660 305 c 0
 660 393 588 465 500 465 c 0
EndSplineSet
MultipleSubs2: "'cc01' CART" wawaTok combCartExtTok
MultipleSubs2: "'cc02' CONT" wawaTok combLongGlyphExtTok
Colour: bf80ff
EndChar

StartChar: wekaTok
Encoding: 214 989558 214
Width: 1000
HStem: 776 20G<124 143 857 876>
LayerCount: 2
Fore
SplineSet
86 746 m 0
 86 773 111 796 137 796 c 0
 149 796 161 792 170 783 c 2
 398 570 l 2
 408 560 414 547 414 534 c 0
 414 507 389 484 363 484 c 0
 351 484 339 488 330 497 c 2
 102 710 l 2
 92 720 86 733 86 746 c 0
863 796 m 0
 889 796 914 773 914 746 c 0
 914 733 908 720 898 710 c 2
 670 497 l 2
 661 488 649 484 637 484 c 0
 611 484 586 507 586 534 c 0
 586 547 592 560 602 570 c 2
 830 783 l 2
 839 792 851 796 863 796 c 0
363 316 m 0
 389 316 414 293 414 266 c 0
 414 253 408 240 398 230 c 2
 170 17 l 2
 161 8 149 4 137 4 c 0
 111 4 86 27 86 54 c 0
 86 67 92 80 102 90 c 2
 330 303 l 2
 339 312 351 316 363 316 c 0
586 266 m 0
 586 293 611 316 637 316 c 0
 649 316 661 312 670 303 c 2
 898 90 l 2
 908 80 914 67 914 54 c 0
 914 27 889 4 863 4 c 0
 851 4 839 8 830 17 c 2
 602 230 l 2
 592 240 586 253 586 266 c 0
EndSplineSet
MultipleSubs2: "'cc01' CART" wekaTok combCartExtTok
MultipleSubs2: "'cc02' CONT" wekaTok combLongGlyphExtTok
Colour: bf80ff
EndChar

StartChar: wileTok
Encoding: 215 989559 215
Width: 1000
HStem: 35 100<241.01 386.638 613.362 759.679>
VStem: 50 100<253.503 544.69> 450 100<196.598 291.354> 850 100<250.025 544.69>
CounterMasks: 1 70
LayerCount: 2
Fore
SplineSet
210 775 m 0
 238 775 260 751 260 725 c 0
 260 715 257 704 250 695 c 0
 202 631 150 534 150 399 c 0
 150 321 164 253 193 206 c 0
 220 162 261 135 322 135 c 0
 346 135 377 147 403 169 c 0
 429 191 446 220 450 254 c 0
 450 258 452 261 453 265 c 0
 459 284 475 300 500 300 c 0
 526 300 540 284 547 265 c 0
 548 261 550 258 550 254 c 0
 554 220 571 191 597 169 c 0
 623 147 654 135 678 135 c 0
 810 135 850 262 850 399 c 0
 850 534 798 631 750 695 c 0
 743 704 740 715 740 725 c 0
 740 751 762 775 790 775 c 0
 805 775 820 768 830 755 c 0
 887 679 950 561 950 399 c 0
 950 311 934 223 892 154 c 0
 848 82 777 35 678 35 c 0
 627 35 574 57 532 92 c 0
 520 102 510 114 500 126 c 1
 490 114 480 102 468 92 c 0
 426 57 373 35 322 35 c 0
 223 35 152 82 108 154 c 0
 66 223 50 311 50 399 c 0
 50 561 113 679 170 755 c 0
 180 768 195 775 210 775 c 0
EndSplineSet
MultipleSubs2: "'cc01' CART" wileTok combCartExtTok
MultipleSubs2: "'cc02' CONT" wileTok combLongGlyphExtTok
Colour: bf80ff
EndChar

StartChar: namakoTok
Encoding: 216 989560 216
Width: 1000
HStem: 0 21G<200 322.5> 600 200<525.438 608.562>
VStem: 367 100<268.07 491.562> 517 100<608.438 791.562> 667 100<283.122 491.562>
CounterMasks: 1 38
LayerCount: 2
Fore
SplineSet
298 697 m 0
 298 722 319 746 349 746 c 0
 368 746 386 734 394 715 c 2
 432 623 l 2
 435 616 436 609 436 603 c 0
 436 578 415 554 385 554 c 0
 366 554 348 566 340 585 c 2
 302 677 l 2
 299 684 298 691 298 697 c 0
785 746 m 0
 815 746 836 722 836 697 c 0
 836 691 835 684 832 677 c 2
 794 585 l 2
 786 566 768 554 749 554 c 0
 719 554 698 578 698 603 c 0
 698 609 699 616 702 623 c 2
 740 715 l 2
 748 734 766 746 785 746 c 0
567 800 m 0
 595 800 617 778 617 750 c 2
 617 650 l 2
 617 622 595 600 567 600 c 0
 539 600 517 622 517 650 c 2
 517 750 l 2
 517 778 539 800 567 800 c 0
213 0 m 0
 187 0 163 20 163 50 c 0
 163 65 169 80 181 89 c 0
 273 164 316 207 339 253 c 0
 361 298 367 350 367 450 c 0
 367 478 389 500 417 500 c 0
 445 500 467 478 467 450 c 0
 467 350 463 277 429 209 c 0
 411 173 386 141 353 107 c 1
 476 121 549 153 592 195 c 0
 649 250 667 331 667 450 c 0
 667 478 689 500 717 500 c 0
 745 500 767 478 767 450 c 0
 767 326 749 208 661 123 c 0
 574 39 432 0 213 0 c 0
EndSplineSet
MultipleSubs2: "'cc01' CART" namakoTok combCartExtTok
MultipleSubs2: "'cc02' CONT" namakoTok combLongGlyphExtTok
Colour: bf80ff
EndChar

StartChar: kinTok
Encoding: 217 989561 217
Width: 1000
VStem: 450 100<-41.5625 63 237 341.562 408.438 841.562>
LayerCount: 2
Fore
SplineSet
320 225 m 0
 320 254 345 275 370 275 c 0
 379 275 387 273 395 268 c 2
 450 237 l 1
 450 300 l 2
 450 328 472 350 500 350 c 0
 528 350 550 328 550 300 c 2
 550 237 l 1
 605 268 l 2
 613 273 621 275 630 275 c 0
 655 275 680 254 680 225 c 0
 680 208 671 191 655 182 c 2
 600 150 l 1
 655 118 l 2
 671 109 680 92 680 75 c 0
 680 46 655 25 630 25 c 0
 621 25 613 27 605 32 c 2
 550 63 l 1
 550 0 l 2
 550 -28 528 -50 500 -50 c 0
 472 -50 450 -28 450 0 c 2
 450 63 l 1
 395 32 l 2
 387 27 379 25 370 25 c 0
 345 25 320 46 320 75 c 0
 320 92 329 109 345 118 c 2
 400 150 l 1
 345 182 l 2
 329 191 320 208 320 225 c 0
550 800 m 2
 550 450 l 2
 550 422 528 400 500 400 c 0
 472 400 450 422 450 450 c 2
 450 800 l 2
 450 828 472 850 500 850 c 0
 528 850 550 828 550 800 c 2
EndSplineSet
MultipleSubs2: "'cc01' CART" kinTok combCartExtTok
MultipleSubs2: "'cc02' CONT" kinTok combLongGlyphExtTok
Colour: bf80ff
EndChar

StartChar: okoTok
Encoding: 218 989562 218
Width: 1000
HStem: 353 94<141.555 223.174>
VStem: 590 100<334.293 465.707> 765 100<308.479 491.521>
LayerCount: 2
Fore
SplineSet
754 495 m 1
 715 483 690 446 690 400 c 0
 690 354 715 317 754 305 c 1
 761 337 765 369 765 400 c 0
 765 431 761 463 754 495 c 1
324 400 m 1
 470 333 576 247 666 121 c 1
 688 151 705 181 720 211 c 1
 688 222 661 240 640 264 c 0
 606 302 590 352 590 400 c 0
 590 448 606 498 640 536 c 0
 661 560 688 578 720 589 c 1
 705 619 688 649 666 679 c 1
 576 553 470 467 324 400 c 1
685 850 m 0
 715 850 735 826 735 800 c 0
 735 791 733 782 728 774 c 0
 727 772 725 770 724 768 c 0
 817 654 865 528 865 400 c 0
 865 272 817 146 724 32 c 0
 725 30 727 28 728 26 c 0
 733 18 735 9 735 0 c 0
 735 -26 715 -50 685 -50 c 0
 668 -50 651 -42 642 -26 c 0
 522 175 406 273 170 352 c 0
 169 352 168 353 167 353 c 0
 150 360 135 376 135 400 c 0
 135 424 150 440 167 447 c 0
 168 447 169 448 170 448 c 0
 406 527 522 625 642 826 c 0
 651 842 668 850 685 850 c 0
EndSplineSet
MultipleSubs2: "'cc01' CART" okoTok combCartExtTok
MultipleSubs2: "'cc02' CONT" okoTok combLongGlyphExtTok
Colour: bf80ff
EndChar

StartChar: kipisiTok
Encoding: 219 989563 219
Width: 1000
HStem: 100 200<638.358 761.642> 500 200<238.358 361.642>
VStem: 200 200<538.358 661.642> 600 200<138.358 261.642>
LayerCount: 2
Fore
SplineSet
800 200 m 0
 800 145 755 100 700 100 c 0
 645 100 600 145 600 200 c 0
 600 255 645 300 700 300 c 0
 755 300 800 255 800 200 c 0
400 600 m 0
 400 545 355 500 300 500 c 0
 245 500 200 545 200 600 c 0
 200 655 245 700 300 700 c 0
 355 700 400 655 400 600 c 0
750 700 m 0
 776 700 800 676 800 650 c 0
 800 638 795 625 785 615 c 2
 285 115 l 2
 275 105 262 100 250 100 c 0
 224 100 200 124 200 150 c 0
 200 162 205 175 215 185 c 2
 715 685 l 2
 725 695 738 700 750 700 c 0
EndSplineSet
MultipleSubs2: "'cc01' CART" kipisiTok combCartExtTok
MultipleSubs2: "'cc02' CONT" kipisiTok combLongGlyphExtTok
Colour: bf80ff
EndChar

StartChar: lekoTok
Encoding: 220 989564 220
Width: 1000
HStem: 0 100<200 800> 200 100<400 600> 500 100<400 600> 700 100<200 800>
VStem: 100 100<100 700> 300 100<300 500> 600 100<300 500> 800 100<100 700>
LayerCount: 2
Fore
SplineSet
400 500 m 1
 400 300 l 1
 600 300 l 1
 600 500 l 1
 400 500 l 1
300 550 m 2
 300 578 322 600 350 600 c 2
 650 600 l 2
 678 600 700 578 700 550 c 2
 700 250 l 2
 700 222 678 200 650 200 c 2
 350 200 l 2
 322 200 300 222 300 250 c 2
 300 550 l 2
200 700 m 1
 200 100 l 1
 800 100 l 1
 800 700 l 1
 200 700 l 1
100 750 m 2
 100 778 122 800 150 800 c 2
 850 800 l 2
 878 800 900 778 900 750 c 2
 900 50 l 2
 900 22 878 0 850 0 c 2
 150 0 l 2
 122 0 100 22 100 50 c 2
 100 750 l 2
EndSplineSet
MultipleSubs2: "'cc01' CART" lekoTok combCartExtTok
MultipleSubs2: "'cc02' CONT" lekoTok combLongGlyphExtTok
Colour: bf80ff
EndChar

StartChar: monsutaTok
Encoding: 221 989565 221
Width: 1000
LayerCount: 2
Fore
SplineSet
950 352 m 0
 950 327 930 302 900 302 c 0
 880 302 862 314 854 334 c 2
 838 371 l 1
 793 257 l 2
 785 238 767 226 746 226 c 0
 725 226 706 239 699 258 c 2
 628 446 l 1
 548 185 l 2
 542 164 522 150 500 150 c 0
 478 150 458 164 452 185 c 2
 372 446 l 1
 301 258 l 2
 294 239 275 226 254 226 c 0
 233 226 215 238 207 257 c 2
 162 371 l 1
 146 334 l 2
 138 314 120 302 100 302 c 0
 70 302 50 327 50 352 c 0
 50 358 52 365 54 371 c 2
 115 523 l 2
 123 542 142 555 162 555 c 0
 182 555 200 542 208 523 c 2
 252 413 l 1
 330 618 l 2
 338 637 357 650 377 650 c 2
 379 650 l 2
 400 649 419 635 425 615 c 2
 500 370 l 1
 575 615 l 2
 581 635 600 649 621 650 c 2
 623 650 l 2
 643 650 662 637 670 618 c 2
 748 413 l 1
 792 523 l 2
 800 542 818 555 838 555 c 0
 858 555 877 542 885 523 c 2
 946 371 l 2
 948 365 950 358 950 352 c 0
EndSplineSet
MultipleSubs2: "'cc01' CART" monsutaTok combCartExtTok
MultipleSubs2: "'cc02' CONT" monsutaTok combLongGlyphExtTok
Colour: bf80ff
EndChar

StartChar: tonsiTok
Encoding: 222 989566 222
Width: 1000
HStem: -2 21G<486 514> 214 96<411.02 450 550 588.98> 710 100<411.675 588.529>
VStem: 200 100<421.092 600.837> 450 100<6.4375 218.02> 700 100<421.092 600.837>
CounterMasks: 1 1c
LayerCount: 2
Fore
SplineSet
500 310 m 0
 610 310 700 400 700 510 c 0
 700 546 691 580 674 609 c 1
 673 610 l 1
 673 611 l 1
 638 670 573 710 500 710 c 0
 427 710 363 670 328 611 c 1
 326 609 l 1
 310 580 300 546 300 510 c 0
 300 400 390 310 500 310 c 0
50 741 m 0
 50 770 75 791 100 791 c 0
 109 791 117 789 125 784 c 2
 269 701 l 1
 324 767 407 810 500 810 c 0
 593 810 676 767 731 701 c 1
 875 784 l 2
 883 789 891 791 900 791 c 0
 925 791 951 771 951 742 c 0
 951 725 941 707 925 698 c 2
 781 615 l 1
 793 582 800 547 800 510 c 0
 800 361 692 238 550 214 c 1
 550 48 l 2
 550 20 528 -2 500 -2 c 0
 472 -2 450 20 450 48 c 2
 450 214 l 1
 308 238 200 361 200 510 c 0
 200 547 207 582 219 615 c 1
 75 698 l 2
 59 707 50 724 50 741 c 0
EndSplineSet
MultipleSubs2: "'cc01' CART" tonsiTok combCartExtTok
MultipleSubs2: "'cc02' CONT" tonsiTok combLongGlyphExtTok
Colour: bf80ff
EndChar

StartChar: jasimaTok
Encoding: 223 989567 223
Width: 1000
HStem: 70 100<625.784 781.341> 270 100<218.208 375.579> 430 100<625.784 781.341> 630 100<218.208 375.579>
VStem: 49 100<102.809 198.442 462.809 558.442> 450 100<-41.5625 120 320 480 680 841.562> 852 98<244.877 337.088 604.877 697.088>
LayerCount: 2
Fore
SplineSet
100 453 m 0
 70 453 49 480 49 504 c 0
 49 508 50 512 51 516 c 0
 60 554 73 597 100 635 c 0
 135 685 208 730 299 730 c 0
 357 730 406 709 450 680 c 1
 450 800 l 2
 450 828 472 850 500 850 c 0
 528 850 550 828 550 800 c 2
 550 604 l 1
 609 558 651 530 701 530 c 0
 714 530 727 532 742 536 c 0
 784 547 804 564 817 582 c 0
 832 603 841 630 852 670 c 0
 859 692 877 706 899 706 c 0
 930 706 950 682 950 657 c 0
 950 652 949 647 948 642 c 0
 948 641 947 639 947 638 c 0
 937 602 924 561 899 525 c 0
 864 475 793 430 701 430 c 0
 643 430 594 451 550 480 c 1
 550 244 l 1
 609 198 651 170 701 170 c 0
 714 170 727 172 742 176 c 0
 784 187 804 204 817 222 c 0
 832 243 841 270 852 310 c 0
 859 332 877 346 899 346 c 0
 930 346 950 322 950 297 c 0
 950 292 949 287 948 282 c 0
 948 281 947 279 947 278 c 0
 937 242 924 201 899 165 c 0
 864 115 793 70 701 70 c 0
 643 70 594 91 550 120 c 1
 550 0 l 2
 550 -28 528 -50 500 -50 c 0
 472 -50 450 -28 450 0 c 2
 450 196 l 1
 391 243 350 270 300 270 c 0
 287 270 273 268 258 264 c 0
 215 253 194 235 181 217 c 0
 166 196 159 170 149 132 c 0
 143 109 122 93 100 93 c 0
 70 93 49 120 49 144 c 0
 49 148 50 152 51 156 c 0
 60 194 73 237 100 275 c 0
 135 325 208 370 299 370 c 0
 357 370 406 349 450 320 c 1
 450 556 l 1
 391 603 350 630 300 630 c 0
 287 630 273 628 258 624 c 0
 215 613 194 595 181 577 c 0
 166 556 159 530 149 492 c 0
 143 469 122 453 100 453 c 0
EndSplineSet
MultipleSubs2: "'cc01' CART" jasimaTok combCartExtTok
MultipleSubs2: "'cc02' CONT" jasimaTok combLongGlyphExtTok
Colour: bf80ff
EndChar

StartChar: kijetesantakaluTok
Encoding: 224 989568 224
Width: 1000
HStem: -50 242<584.438 667.562> -50 100<257 282 382 451> 440 120<513.745 606.255 673.745 766.255>
VStem: 20 100<75.628 233.915> 157 100<61 251> 282 100<50 269 369 496.207> 429 98<77.3859 164 165 190.771> 451 101<50 132.953> 500 120<453.745 546.255> 576 100<-41.5625 183.562> 660 120<453.745 546.255> 722 100<-41.5625 338.14>
LayerCount: 2
Fore
SplineSet
157 251 m 1x3c
 137 234 120 202 120 153 c 0
 120 114 131 77 157 61 c 1
 157 251 l 1x3c
282 269 m 1
 257 269 l 1
 257 50 l 1
 282 50 l 1x7c
 282 269 l 1
284 369 m 1
 297 622 415 850 674 850 c 0
 716 850 734 814 739 802 c 0
 752 773 754 740 763 710 c 1
 816 680 896 621 942 575 c 0
 955 562 965 552 973 535 c 0
 975 530 980 521 980 508 c 0
 980 486 972 475 964 465 c 0
 943 433 915 408 886 379 c 0
 866 359 846 340 831 326 c 0
 828 323 825 320 822 318 c 2
 822 0 l 2
 822 -28 800 -50 772 -50 c 0
 744 -50 722 -28 722 0 c 2
 722 340 l 2
 722 369 746 382 763 399 c 0
 793 427 840 474 868 504 c 0
 868 505 869 505 869 506 c 0
 856 518 840 533 820 549 c 0
 777 583 730 615 705 628 c 0
 688 637 678 652 675 659 c 0
 666 678 662 698 658 720 c 0
 656 730 652 742 651 749 c 1
 563 743 501 699 457 630 c 0
 408 553 382 443 382 320 c 2
 382 50 l 1
 451 50 l 1x7d10
 451 78 440 106 434 129 c 0
 433 131 433 132 433 133 c 0
 430 136 429 145 429 150 c 0
 429 175 450 200 480 200 c 0
 501 200 520 187 527 166 c 1
 527 165 l 1x7e
 528 164 l 1
 528 156 532 151 535 140 c 0
 542 113 552 76 552 39 c 0x7d
 552 -7 528 -50 480 -50 c 2
 201 -50 l 2
 134 -50 85 -21 56 23 c 0
 28 64 20 113 20 153 c 0
 20 276 99 368 201 368 c 0
 226 368 250 369 272 369 c 2
 284 369 l 1
720 440 m 0
 687 440 660 467 660 500 c 0
 660 533 687 560 720 560 c 0
 753 560 780 533 780 500 c 0x3c20
 780 467 753 440 720 440 c 0
620 500 m 0x3c80
 620 467 593 440 560 440 c 0
 527 440 500 467 500 500 c 0
 500 533 527 560 560 560 c 0
 593 560 620 533 620 500 c 0x3c80
676 142 m 2xbc40
 676 0 l 2
 676 -28 654 -50 626 -50 c 0
 598 -50 576 -28 576 0 c 2
 576 142 l 2
 576 170 598 192 626 192 c 0
 654 192 676 170 676 142 c 2xbc40
EndSplineSet
MultipleSubs2: "'cc01' CART" kijetesantakaluTok combCartExtTok
MultipleSubs2: "'cc02' CONT" kijetesantakaluTok combLongGlyphExtTok
Colour: bf80ff
EndChar

StartChar: sokoTok
Encoding: 225 989569 225
Width: 1000
HStem: 0 21G<485 513> 370 100<178 449 549 823> 700 100<367.15 632.947>
VStem: 449 100<8.4375 370>
LayerCount: 2
Fore
SplineSet
823 470 m 1
 776 609 677 700 500 700 c 0
 323 700 225 609 178 470 c 1
 823 470 l 1
938 420 m 0
 938 391 915 370 888 370 c 2
 549 370 l 1
 549 50 l 2
 549 22 527 0 499 0 c 0
 471 0 449 22 449 50 c 2
 449 370 l 1
 113 370 l 2
 86 370 63 391 63 420 c 0
 63 423 63 427 64 430 c 0
 88 544 137 638 213 703 c 0
 289 768 387 800 500 800 c 0
 613 800 711 768 787 703 c 0
 863 638 913 544 937 430 c 0
 938 427 938 423 938 420 c 0
EndSplineSet
MultipleSubs2: "'cc01' CART" sokoTok combCartExtTok
MultipleSubs2: "'cc02' CONT" sokoTok combLongGlyphExtTok
Colour: bf80ff
EndChar

StartChar: mesoTok
Encoding: 226 989570 226
Width: 1000
HStem: 325 150<448.417 551.583>
VStem: 150 100<-41.5625 841.562> 425 150<348.417 451.583> 750 100<-41.5625 841.562>
CounterMasks: 1 70
LayerCount: 2
Fore
SplineSet
575 400 m 0
 575 359 541 325 500 325 c 0
 459 325 425 359 425 400 c 0
 425 441 459 475 500 475 c 0
 541 475 575 441 575 400 c 0
800 850 m 0
 828 850 850 828 850 800 c 2
 850 0 l 2
 850 -28 828 -50 800 -50 c 0
 772 -50 750 -28 750 0 c 2
 750 800 l 2
 750 828 772 850 800 850 c 0
200 850 m 0
 228 850 250 828 250 800 c 2
 250 0 l 2
 250 -28 228 -50 200 -50 c 0
 172 -50 150 -28 150 0 c 2
 150 800 l 2
 150 828 172 850 200 850 c 0
EndSplineSet
MultipleSubs2: "'cc01' CART" mesoTok combCartExtTok
MultipleSubs2: "'cc02' CONT" mesoTok combLongGlyphExtTok
Colour: bf80ff
EndChar

StartChar: epikuTok
Encoding: 227 989571 227
Width: 1000
HStem: -20 100<403.504 596.496> 542 284<458.438 541.562>
VStem: 150 100<234.289 371.562> 450 100<550.438 817.562> 750 100<234.289 371.562>
CounterMasks: 1 38
LayerCount: 2
Fore
SplineSet
500 826 m 0
 528 826 550 804 550 776 c 2
 550 592 l 2
 550 564 528 542 500 542 c 0
 472 542 450 564 450 592 c 2
 450 776 l 2
 450 804 472 826 500 826 c 0
200 725 m 0
 200 750 221 774 251 774 c 0
 270 774 288 762 296 743 c 2
 366 573 l 2
 369 566 370 559 370 553 c 0
 370 528 349 504 319 504 c 0
 300 504 282 516 274 535 c 2
 204 705 l 2
 201 712 200 719 200 725 c 0
681 504 m 0
 651 504 630 528 630 553 c 0
 630 559 631 566 634 573 c 2
 704 743 l 2
 712 762 730 774 749 774 c 0
 779 774 800 750 800 725 c 0
 800 719 799 712 796 705 c 2
 726 535 l 2
 718 516 700 504 681 504 c 0
500 80 m 0
 638 80 750 192 750 330 c 0
 750 358 772 380 800 380 c 0
 828 380 850 358 850 330 c 0
 850 137 693 -20 500 -20 c 0
 307 -20 150 137 150 330 c 0
 150 358 172 380 200 380 c 0
 228 380 250 358 250 330 c 0
 250 192 362 80 500 80 c 0
EndSplineSet
MultipleSubs2: "'cc01' CART" epikuTok combCartExtTok
MultipleSubs2: "'cc02' CONT" epikuTok combLongGlyphExtTok
Colour: bf80ff
EndChar

StartChar: kokosilaTok
Encoding: 228 989572 228
Width: 1000
HStem: -50 100<404.572 594.472> 500 100<405.528 596.174> 650 200<458.438 541.562>
VStem: 175 100<199.116 369.472> 450 100<658.438 841.562> 725 100<180.528 356.476>
CounterMasks: 1 1c
LayerCount: 2
Fore
SplineSet
750 783 m 0
 779 783 800 758 800 733 c 0
 800 724 798 716 793 708 c 2
 743 621 l 2
 734 605 717 596 700 596 c 0
 671 596 650 621 650 646 c 0
 650 655 652 663 657 671 c 2
 707 758 l 2
 716 774 733 783 750 783 c 0
200 733 m 0
 200 758 221 783 250 783 c 0
 267 783 284 774 293 758 c 2
 343 671 l 2
 348 663 350 655 350 646 c 0
 350 621 329 596 300 596 c 0
 283 596 266 605 257 621 c 2
 207 708 l 2
 202 716 200 724 200 733 c 0
709 358 m 1
 343 114 l 1
 384 74 439 50 500 50 c 0
 624 50 725 151 725 275 c 0
 725 304 719 332 709 358 c 1
500 500 m 0
 376 500 275 399 275 275 c 0
 275 248 280 222 289 198 c 1
 653 440 l 1
 613 477 559 500 500 500 c 0
169 9 m 0
 143 9 120 30 120 59 c 0
 120 75 128 91 142 100 c 2
 204 141 l 1
 186 182 175 227 175 275 c 0
 175 454 321 600 500 600 c 0
 594 600 678 560 737 497 c 1
 807 544 l 2
 816 550 825 552 835 552 c 0
 861 552 885 531 885 502 c 0
 885 486 877 469 863 460 c 2
 794 414 l 1
 814 372 825 325 825 275 c 0
 825 96 679 -50 500 -50 c 0
 404 -50 317 -8 258 58 c 1
 197 17 l 2
 188 11 178 9 169 9 c 0
500 850 m 0
 528 850 550 828 550 800 c 2
 550 700 l 2
 550 672 528 650 500 650 c 0
 472 650 450 672 450 700 c 2
 450 800 l 2
 450 828 472 850 500 850 c 0
EndSplineSet
MultipleSubs2: "'cc01' CART" kokosilaTok combCartExtTok
MultipleSubs2: "'cc02' CONT" kokosilaTok combLongGlyphExtTok
Colour: bf80ff
EndChar

StartChar: lanpanTok
Encoding: 229 989573 229
Width: 1000
HStem: -20 100<264.366 371.509> 50 150<593.417 696.583> 257 101<589.265 712.137> 420 100<428.274 550.473> 720 100<429.527 550.473>
VStem: 141 100<107.946 337.529> 290 100<558.154 680.473> 570 150<73.4173 176.583> 590 100<559.527 680.473> 740 96<-11.4741 97.2798> 760 100<24.0871 206.921>
LayerCount: 2
Fore
SplineSet
645 50 m 4x7f
 604 50 570 84 570 125 c 4
 570 166 604 200 645 200 c 4
 686 200 720 166 720 125 c 4
 720 84 686 50 645 50 c 4x7f
490 520 m 4
 545 520 590 565 590 620 c 4x3e80
 590 675 545 720 490 720 c 4
 435 720 390 675 390 620 c 4
 390 565 435 520 490 520 c 4
790 -20 m 4xbe40
 759 -20 740 5 740 30 c 4xbe40
 740 36 741 42 743 48 c 4
 755 79 760 106 760 130 c 4
 760 188 731 226 699 244 c 4
 683 252 667 257 650 257 c 4
 641 257 632 256 623 253 c 4
 596 246 566 221 546 181 c 4
 500 93 444 -20 315 -20 c 4
 251 -20 204 8 175 55 c 4
 149 98 141 152 141 203 c 4
 141 204 141 205 141 206 c 4
 141 256 143 440 301 554 c 5
 294 575 290 597 290 620 c 4
 290 730 380 820 490 820 c 4
 600 820 690 730 690 620 c 4
 690 510 600 420 490 420 c 4
 439 420 392 439 357 471 c 5
 243 386 241 248 241 204 c 4
 241 159 248 127 260 107 c 4
 269 92 284 80 315 80 c 4
 344 80 367 92 390 118 c 4
 415 146 435 185 461 234 c 5
 462 235 l 5
 494 295 541 333 594 349 c 4
 613 355 632 358 651 358 c 4
 685 358 719 349 748 332 c 4
 815 294 860 222 860 131 c 4xbea0
 860 94 852 54 836 12 c 4
 828 -8 810 -20 790 -20 c 4xbe40
EndSplineSet
MultipleSubs2: "'cc01' CART" lanpanTok combCartExtTok
MultipleSubs2: "'cc02' CONT" lanpanTok combLongGlyphExtTok
Colour: bf80ff
EndChar

StartChar: nTok
Encoding: 230 989574 230
Width: 1000
HStem: 250 100<439.527 560.473>
VStem: 300 100<-41.5625 209.304> 450 100<408.438 841.562> 600 100<-41.5625 209.304>
CounterMasks: 1 70
LayerCount: 2
Fore
SplineSet
500 850 m 0
 528 850 550 828 550 800 c 2
 550 450 l 2
 550 422 528 400 500 400 c 0
 472 400 450 422 450 450 c 2
 450 800 l 2
 450 828 472 850 500 850 c 0
500 250 m 0
 445 250 400 205 400 150 c 2
 400 0 l 2
 400 -28 378 -50 350 -50 c 0
 322 -50 300 -28 300 0 c 2
 300 150 l 2
 300 260 390 350 500 350 c 0
 610 350 700 260 700 150 c 2
 700 0 l 2
 700 -28 678 -50 650 -50 c 0
 622 -50 600 -28 600 0 c 2
 600 150 l 2
 600 205 555 250 500 250 c 0
EndSplineSet
MultipleSubs2: "'cc01' CART" nTok combCartExtTok
MultipleSubs2: "'cc02' CONT" nTok combLongGlyphExtTok
Colour: bf80ff
EndChar

StartChar: misikekeTok
Encoding: 231 989575 231
Width: 1000
HStem: -50 100<423.917 576.083> 350 100<350 650> 750 100<423.917 576.083>
VStem: 250 100<125.684 350 450 674.316> 650 100<125.684 350 450 674.316>
CounterMasks: 1 e0
LayerCount: 2
Fore
SplineSet
350 350 m 1
 350 200 l 2
 350 117 417 50 500 50 c 0
 583 50 650 117 650 200 c 2
 650 350 l 1
 350 350 l 1
650 450 m 1
 650 600 l 2
 650 683 583 750 500 750 c 0
 417 750 350 683 350 600 c 2
 350 450 l 1
 650 450 l 1
500 850 m 0
 638 850 750 738 750 600 c 2
 750 200 l 2
 750 62 638 -50 500 -50 c 0
 362 -50 250 62 250 200 c 2
 250 600 l 2
 250 738 362 850 500 850 c 0
EndSplineSet
MultipleSubs2: "'cc01' CART" misikekeTok combCartExtTok
MultipleSubs2: "'cc02' CONT" misikekeTok combLongGlyphExtTok
Colour: bf80ff
EndChar

StartChar: kuTok
Encoding: 232 989576 232
Width: 1000
HStem: 0 100<250 435 539 750> 170 150<573.417 676.583> 700 100<250 535>
VStem: 150 100<100 700> 550 150<193.417 296.583> 750 100<100 325 437 677>
LayerCount: 2
Fore
SplineSet
435 100 m 1
 310 564 l 2
 309 569 308 574 308 578 c 0
 308 598 320 616 340 623 c 2
 535 700 l 1
 250 700 l 1
 250 100 l 1
 435 100 l 1
750 325 m 1
 435 482 l 1
 539 100 l 1
 750 100 l 1
 750 325 l 1
750 437 m 1
 750 677 l 1
 481 571 l 1
 750 437 l 1
799 800 m 2
 828 800 850 778 850 749 c 0
 850 516 850 283 850 50 c 0
 850 22 828 0 800 0 c 0
 600 0 400 0 200 0 c 0
 172 0 150 22 150 50 c 2
 150 750 l 2
 150 778 172 800 200 800 c 2
 799 800 l 2
700 245 m 0
 700 204 666 170 625 170 c 0
 584 170 550 204 550 245 c 0
 550 286 584 320 625 320 c 0
 666 320 700 286 700 245 c 0
EndSplineSet
MultipleSubs2: "'cc01' CART" kuTok combCartExtTok
MultipleSubs2: "'cc02' CONT" kuTok combLongGlyphExtTok
Colour: bf80ff
EndChar

StartChar: pakeTok
Encoding: 240 989600 240
Width: 1000
HStem: 0 21G<486 514> 700 100<108.438 450 550 891.562>
VStem: 450 100<8.4375 700>
LayerCount: 2
Fore
SplineSet
150 800 m 2
 850 800 l 2
 878 800 900 778 900 750 c 0
 900 722 878 700 850 700 c 2
 550 700 l 1
 550 50 l 2
 550 22 528 0 500 0 c 0
 472 0 450 22 450 50 c 2
 450 700 l 1
 150 700 l 2
 122 700 100 722 100 750 c 0
 100 778 122 800 150 800 c 2
EndSplineSet
MultipleSubs2: "'cc01' CART" pakeTok combCartExtTok
MultipleSubs2: "'cc02' CONT" pakeTok combLongGlyphExtTok
Colour: df80ff
EndChar

StartChar: apejaTok
Encoding: 241 989601 241
Width: 1000
HStem: -80 100<443.938 555.789> 189 100<444.701 555.038> 460 100<189.938 301.789 698.211 810.062> 729 100<190.701 301.038 698.962 809.299>
VStem: 61 100<588.962 699.299> 315 100<48.962 159.299> 330 100<588.211 700.062> 570 100<588.211 700.062> 584 100<48.211 160.062> 839 100<588.962 699.299>
LayerCount: 2
Fore
SplineSet
170 190 m 0xf840
 144 190 120 211 120 240 c 0
 120 256 128 273 142 282 c 2
 472 502 l 2
 480 508 490 510 500 510 c 0
 510 510 520 508 528 502 c 2
 858 282 l 2
 872 273 880 256 880 240 c 0
 880 211 856 190 830 190 c 0
 820 190 811 192 802 198 c 2
 500 400 l 1
 198 198 l 2
 189 192 180 190 170 190 c 0xf840
754 829 m 0
 856 829 939 746 939 644 c 0
 939 542 856 460 754 460 c 0
 652 460 570 542 570 644 c 0xf940
 570 746 652 829 754 829 c 0
754 729 m 0
 707 729 670 691 670 644 c 0
 670 597 707 560 754 560 c 0
 801 560 839 597 839 644 c 0
 839 691 801 729 754 729 c 0
246 829 m 0
 348 829 430 746 430 644 c 0xfa40
 430 542 348 460 246 460 c 0
 144 460 61 542 61 644 c 0
 61 746 144 829 246 829 c 0
246 729 m 0
 199 729 161 691 161 644 c 0
 161 597 199 560 246 560 c 0
 293 560 330 597 330 644 c 0
 330 691 293 729 246 729 c 0
500 289 m 0
 602 289 684 206 684 104 c 0
 684 2 602 -80 500 -80 c 0
 398 -80 315 2 315 104 c 0xfcc0
 315 206 398 289 500 289 c 0
500 189 m 0
 453 189 415 151 415 104 c 0
 415 57 453 20 500 20 c 0
 547 20 584 57 584 104 c 0
 584 151 547 189 500 189 c 0
EndSplineSet
MultipleSubs2: "'cc01' CART" apejaTok combCartExtTok
MultipleSubs2: "'cc02' CONT" apejaTok combLongGlyphExtTok
Colour: df80ff
EndChar

StartChar: majunaTok
Encoding: 242 989602 242
Width: 1000
HStem: 150 100<58.4375 341.562 658.438 941.562> 350 300<458.438 541.562>
VStem: 50 300<158.438 241.562> 450 100<358.438 641.562> 650 300<158.438 241.562>
CounterMasks: 1 38
LayerCount: 2
Fore
SplineSet
650 300 m 0
 624 300 600 324 600 350 c 0
 600 362 605 375 615 385 c 2
 765 535 l 2
 775 545 788 550 800 550 c 0
 826 550 850 526 850 500 c 0
 850 488 845 475 835 465 c 2
 685 315 l 2
 675 305 662 300 650 300 c 0
150 500 m 0
 150 526 174 550 200 550 c 0
 212 550 225 545 235 535 c 2
 385 385 l 2
 395 375 400 362 400 350 c 0
 400 324 376 300 350 300 c 0
 338 300 325 305 315 315 c 2
 165 465 l 2
 155 475 150 488 150 500 c 0
50 200 m 0
 50 228 72 250 100 250 c 2
 300 250 l 2
 328 250 350 228 350 200 c 0
 350 172 328 150 300 150 c 2
 100 150 l 2
 72 150 50 172 50 200 c 0
500 650 m 0
 528 650 550 628 550 600 c 2
 550 400 l 2
 550 372 528 350 500 350 c 0
 472 350 450 372 450 400 c 2
 450 600 l 2
 450 628 472 650 500 650 c 0
650 200 m 0
 650 228 672 250 700 250 c 2
 900 250 l 2
 928 250 950 228 950 200 c 0
 950 172 928 150 900 150 c 2
 700 150 l 2
 672 150 650 172 650 200 c 0
EndSplineSet
MultipleSubs2: "'cc01' CART" majunaTok combCartExtTok
MultipleSubs2: "'cc02' CONT" majunaTok combLongGlyphExtTok
Colour: df80ff
EndChar

StartChar: poweTok
Encoding: 243 989603 243
Width: 1000
HStem: 150 100<58.4375 941.562>
LayerCount: 2
Fore
SplineSet
50 200 m 0
 50 228 72 250 100 250 c 2
 900 250 l 2
 928 250 950 228 950 200 c 0
 950 172 928 150 900 150 c 2
 100 150 l 2
 72 150 50 172 50 200 c 0
650 400 m 0
 650 374 626 350 600 350 c 0
 588 350 575 355 565 365 c 2
 500 429 l 1
 435 365 l 2
 425 355 412 350 400 350 c 0
 374 350 350 374 350 400 c 0
 350 412 355 425 365 435 c 2
 429 500 l 1
 365 565 l 2
 355 575 350 588 350 600 c 0
 350 626 374 650 400 650 c 0
 412 650 425 645 435 635 c 2
 500 571 l 1
 565 635 l 2
 575 645 588 650 600 650 c 0
 626 650 650 626 650 600 c 0
 650 588 645 575 635 565 c 2
 571 500 l 1
 635 435 l 2
 645 425 650 412 650 400 c 0
EndSplineSet
MultipleSubs2: "'cc01' CART" poweTok combCartExtTok
MultipleSubs2: "'cc02' CONT" poweTok combLongGlyphExtTok
Colour: df80ff
EndChar

StartChar: linluwiTok
Encoding: 244 989604 244
Width: 1000
HStem: -11 100<176.124 280.145 719.855 823.876> 127 100<392.853 607.147> 239 100<176.124 276.939 723.061 823.876> 460 100<459.492 540.508> 710 100<448.124 551.876>
VStem: 53 100<112.124 215.876> 325 100<582.885 686.876> 575 100<582.885 686.876> 847 100<112.124 215.876>
LayerCount: 2
Fore
SplineSet
303 164 m 0
 303 205 269 239 228 239 c 0
 187 239 153 205 153 164 c 0
 153 123 187 89 228 89 c 0
 269 89 303 123 303 164 c 0
772 89 m 0
 813 89 847 123 847 164 c 0
 847 205 813 239 772 239 c 0
 731 239 697 205 697 164 c 0
 697 123 731 89 772 89 c 0
534 463 m 1
 523 461 512 460 500 460 c 0
 488 460 477 461 466 463 c 1
 360 279 l 1
 373 264 384 246 391 227 c 1
 609 227 l 1
 616 246 627 264 640 279 c 1
 534 463 l 1
575 635 m 0
 575 676 541 710 500 710 c 0
 459 710 425 676 425 635 c 0
 425 594 459 560 500 560 c 0
 541 560 575 594 575 635 c 0
399 127 m 1
 382 48 312 -11 228 -11 c 0
 131 -11 53 67 53 164 c 0
 53 261 131 339 228 339 c 0
 244 339 260 337 275 333 c 1
 378 510 l 1
 346 542 325 586 325 635 c 0
 325 732 403 810 500 810 c 0
 597 810 675 732 675 635 c 0
 675 586 654 542 622 510 c 1
 725 333 l 1
 740 337 756 339 772 339 c 0
 869 339 947 261 947 164 c 0
 947 67 869 -11 772 -11 c 0
 688 -11 618 48 601 127 c 1
 399 127 l 1
EndSplineSet
MultipleSubs2: "'cc01' CART" linluwiTok combCartExtTok
MultipleSubs2: "'cc02' CONT" linluwiTok combLongGlyphExtTok
Colour: df80ff
EndChar

StartChar: kikiTok
Encoding: 245 989605 245
Width: 1000
HStem: 0 100<197 803> 150 100<457 543>
VStem: 320 360<158.838 249.609>
LayerCount: 2
Fore
SplineSet
457 250 m 1
 543 250 l 1
 500 325 l 1
 457 250 l 1
370 150 m 2
 344 150 320 171 320 200 c 0
 320 209 323 217 327 225 c 2
 457 450 l 2
 466 465 482 475 500 475 c 0
 518 475 534 465 543 450 c 2
 673 225 l 2
 677 217 680 209 680 200 c 0
 680 171 656 150 630 150 c 2
 370 150 l 2
197 100 m 1
 803 100 l 1
 500 625 l 1
 197 100 l 1
110 0 m 2
 84 0 60 21 60 50 c 0
 60 59 63 67 67 75 c 2
 457 750 l 2
 466 765 482 775 500 775 c 0
 518 775 534 765 543 750 c 2
 933 75 l 2
 937 67 940 59 940 50 c 0
 940 21 916 0 890 0 c 2
 110 0 l 2
EndSplineSet
MultipleSubs2: "'cc01' CART" kikiTok combCartExtTok
MultipleSubs2: "'cc02' CONT" kikiTok combLongGlyphExtTok
Colour: df80ff
EndChar

StartChar: suTok
Encoding: 246 989606 246
Width: 1000
HStem: 0 100<250 583 681.145 750> 540 100<372.875 697.799> 700 100<250 750>
VStem: 150 100<100 406 569 700> 583 103<100 168.087> 750 100<100 511.357 609 700>
LayerCount: 2
Fore
SplineSet
250 406 m 1
 250 100 l 1
 583 100 l 1
 560 188 529 249 483 294 c 0
 434 343 362 379 250 406 c 1
250 569 m 1
 328 622 412 640 513 640 c 0
 594 640 675 626 750 609 c 1
 750 700 l 1
 250 700 l 1
 250 569 l 1
686 100 m 1
 750 100 l 1
 750 507 l 1
 671 526 589 540 511 540 c 0
 501 540 492 539 483 539 c 0
 421 536 364 522 315 492 c 1
 416 463 494 423 553 365 c 0
 622 297 661 210 686 100 c 1
200 800 m 2
 800 800 l 2
 828 800 850 778 850 750 c 2
 850 50 l 2
 850 22 828 0 800 0 c 0
 600 0 400 0 200 0 c 0
 172 0 150 22 150 50 c 2
 150 750 l 2
 150 778 172 800 200 800 c 2
EndSplineSet
MultipleSubs2: "'cc01' CART" suTok combCartExtTok
MultipleSubs2: "'cc02' CONT" suTok combLongGlyphExtTok
Colour: df80ff
EndChar

StartChar: waTok
Encoding: 247 989632 247
Width: 1000
HStem: -50 100<356.161 439.095 560.905 643.839>
VStem: 231 100<78.8135 272.001> 450 100<60.7872 132.018 408.438 841.562> 669 100<78.8135 272.001>
CounterMasks: 1 70
LayerCount: 2
Fore
SplineSet
402 -50 m 0
 284 -50 231 56 231 172 c 0
 231 267 268 336 301 380 c 0
 311 393 326 400 341 400 c 0
 351 400 362 397 371 390 c 0
 384 380 391 365 391 350 c 0
 391 340 388 329 381 320 c 0
 357 288 331 239 331 172 c 0
 331 132 339 99 352 78 c 0
 363 60 377 50 402 50 c 0
 423 50 448 74 450 95 c 0
 452 121 472 140 500 140 c 0
 528 140 548 121 550 95 c 0
 552 74 577 50 598 50 c 0
 623 50 637 60 648 78 c 0
 661 99 669 132 669 172 c 0
 669 239 643 288 619 320 c 0
 612 329 609 340 609 350 c 0
 609 365 616 380 629 390 c 0
 638 397 649 400 659 400 c 0
 674 400 689 393 699 380 c 0
 732 336 769 267 769 172 c 0
 769 56 716 -50 598 -50 c 0
 562 -50 526 -34 500 -11 c 1
 474 -34 438 -50 402 -50 c 0
500 850 m 0
 528 850 550 828 550 800 c 2
 550 450 l 2
 550 422 528 400 500 400 c 0
 472 400 450 422 450 450 c 2
 450 800 l 2
 450 828 472 850 500 850 c 0
EndSplineSet
MultipleSubs2: "'cc01' CART" waTok combCartExtTok
MultipleSubs2: "'cc02' CONT" waTok combLongGlyphExtTok
Colour: df80ff
EndChar

StartChar: oweTok
Encoding: 248 989614 248
Width: 1000
HStem: -15 100<371.21 628.79> 160 200<438.358 561.642> 435 100<371.21 628.79> 612 200<458.438 541.562>
VStem: 400 200<198.358 321.642> 450 100<620.438 803.562>
LayerCount: 2
Fore
SplineSet
750 745 m 0xf0
 779 745 800 720 800 695 c 0
 800 687 798 678 793 670 c 2
 743 583 l 2
 734 567 717 558 700 558 c 0
 671 558 650 583 650 608 c 0
 650 616 652 625 657 633 c 2
 707 720 l 2
 716 736 733 745 750 745 c 0xf0
200 695 m 0
 200 720 221 745 250 745 c 0
 267 745 284 736 293 720 c 2
 343 633 l 2
 348 625 350 616 350 608 c 0
 350 583 329 558 300 558 c 0
 283 558 266 567 257 583 c 2
 207 670 l 2
 202 678 200 687 200 695 c 0
500 812 m 0
 528 812 550 790 550 762 c 2
 550 662 l 2
 550 634 528 612 500 612 c 0
 472 612 450 634 450 662 c 2
 450 762 l 2xf4
 450 790 472 812 500 812 c 0
500 85 m 0
 631 85 770 156 831 260 c 1
 770 364 631 435 500 435 c 0
 369 435 230 364 169 260 c 1
 230 156 369 85 500 85 c 0
83 209 m 0
 74 225 70 242 70 260 c 0
 70 278 74 295 83 311 c 0
 165 450 339 535 500 535 c 0
 661 535 835 450 917 311 c 0
 926 295 930 278 930 260 c 0
 930 242 926 225 917 209 c 0
 835 70 661 -15 500 -15 c 0
 339 -15 165 70 83 209 c 0
600 260 m 0xf8
 600 205 555 160 500 160 c 0
 445 160 400 205 400 260 c 0
 400 315 445 360 500 360 c 0
 555 360 600 315 600 260 c 0xf8
EndSplineSet
MultipleSubs2: "'cc01' CART" oweTok combCartExtTok
MultipleSubs2: "'cc02' CONT" oweTok combLongGlyphExtTok
Colour: df80ff
EndChar

StartChar: jakiTok_VAR01
Encoding: 256 -1 256
Width: 1000
HStem: -25 100<623.908 814.684> -13 359<201 295> 88 100<408.993 483.95> 136 100<615.065 697.542> 241 99<430 488.197> 247 100<430.326 507.168> 551 100<588.929 664.404> 653 113<134.826 247.013> 725 100<458.655 583.708>
VStem: 75 100<343.495 517.052> 213 100<489.724 615.232> 330 100<340.234 378.44> 374 100<547.576 643.213> 825 100<511.965 592.038>
LayerCount: 2
Fore
SplineSet
825 817 m 0x02ec
 851 817 875 795 875 767 c 0
 875 752 869 738 856 728 c 0
 841 716 831 706 826 700 c 1
 868 666 925 639 925 561 c 0
 925 485 886 436 827 414 c 1
 839 371 845 329 845 303 c 0
 845 284 842 265 837 248 c 1
 865 220 891 188 907 153 c 0
 915 136 919 120 919 104 c 0
 919 11 820 -25 730 -25 c 0
 648 -25 551 4 476 74 c 0
 463 86 455 88 451 88 c 0xa2ec
 447 88 441 88 433 84 c 0
 390 61 372 13 324 -7 c 0
 316 -10 306 -13 295 -13 c 0
 239 -13 222 41 213 87 c 0
 207 117 203 155 199 206 c 0
 198 226 194 238 192 245 c 1
 179 243 168 239 155 239 c 0
 143 239 130 242 115 251 c 0
 92 265 83 289 79 309 c 0
 77 321 75 335 75 352 c 0
 75 389 81 438 92 503 c 0
 96 527 117 545 141 545 c 0
 171 545 191 521 191 495 c 0
 191 492 192 489 191 486 c 0
 179 418 175 377 175 352 c 0
 175 349 175 345 175 343 c 1
 183 344 192 346 201 346 c 0x426c
 211 346 223 345 236 339 c 0
 280 320 294 273 298 213 c 0
 301 166 306 132 310 109 c 1
 342 141 384 188 447 188 c 0x226c
 483 188 517 172 544 147 c 0
 598 96 670 75 730 75 c 0
 769 75 810 86 819 101 c 0
 820 103 819 107 817 111 c 0
 809 128 795 146 777 166 c 1
 749 146 715 136 679 136 c 0
 659 136 639 139 619 145 c 0
 561 161 535 195 508 235 c 0
 501 245 500 246 500 246 c 0
 500 246 496 247 489 247 c 0x966c
 473 247 447 241 429 241 c 0
 404 241 380 247 360 265 c 0
 335 288 330 320 330 345 c 0
 330 358 331 367 333 379 c 1
 263 397 213 467 213 549 c 0
 213 587 224 626 248 664 c 1
 227 662 202 660 173 654 c 0
 170 653 166 653 163 653 c 0
 137 653 113 673 113 703 c 0
 113 726 129 747 153 752 c 0
 199 761 241 766 278 766 c 0x0b74
 303 766 326 764 346 759 c 1
 400 792 476 825 542 825 c 0
 608 825 655 790 678 742 c 0
 681 735 683 727 683 720 c 0
 683 695 663 670 633 670 c 0
 614 670 596 681 587 699 c 0
 578 718 569 725 545 725 c 0
 514 725 484 715 444 697 c 1
 465 667 474 634 474 595 c 0
 474 580 472 564 470 547 c 1
 518 611 572 651 630 651 c 0
 695 651 738 604 765 562 c 0
 776 545 786 527 794 508 c 1
 813 515 825 524 825 561 c 0
 825 580 800 596 786 606 c 0
 779 611 772 616 765 621 c 0
 750 633 722 658 722 697 c 0
 722 724 732 744 746 761 c 0
 758 776 774 791 794 806 c 0
 803 813 814 817 825 817 c 0x02ec
430 340 m 0x0a74
 447 340 472 347 489 347 c 0x0674
 507 347 524 344 539 337 c 0
 573 322 586 300 599 279 c 0
 612 259 616 249 646 241 c 0x0a74
 658 238 669 236 679 236 c 0
 686 236 692 237 698 238 c 1
 665 265 627 296 599 324 c 0
 579 345 548 379 548 418 c 0
 548 430 551 441 558 453 c 0
 581 494 631 495 688 496 c 1
 686 500 683 504 681 508 c 0
 659 541 642 551 630 551 c 0
 619 551 592 543 550 486 c 0
 515 439 476 406 436 389 c 1
 432 372 430 361 430 347 c 0x1674
 430 345 430 342 430 340 c 0x0a74
742 331 m 1
 739 348 735 373 728 397 c 1
 707 396 689 396 669 396 c 1
 688 376 712 356 742 331 c 1
424 341 m 0
 424 341 l 0
354 477 m 1
 361 506 374 552 374 591 c 0x026c
 374 613 370 632 359 644 c 1
 325 612 313 577 313 548 c 0
 313 513 330 485 354 477 c 1
819 707 m 0
 820 706 l 1
 819 707 l 0
EndSplineSet
Ligature2: "'liga' VAR" jakiTok VAR01
Ligature2: "'liga' VAR" jakiTok_VAR01 VAR01
Ligature2: "'liga' VAR" jakiTok_VAR02 VAR01
Ligature2: "'liga' VAR" jakiTok_VAR03 VAR01
Ligature2: "'liga' VAR" jakiTok_VAR04 VAR01
Ligature2: "'liga' VAR" jakiTok_VAR05 VAR01
Ligature2: "'liga' VAR" jakiTok_VAR06 VAR01
Ligature2: "'liga' VAR" jakiTok_VAR07 VAR01
Ligature2: "'liga' VAR" jakiTok_VAR08 VAR01
MultipleSubs2: "'cc01' CART" jakiTok_VAR01 combCartExtTok
MultipleSubs2: "'cc02' CONT" jakiTok_VAR01 combLongGlyphExtTok
Colour: ff80e6
EndChar

StartChar: jakiTok_VAR02
Encoding: 257 -1 257
Width: 1000
HStem: -25 100<221.139 385.626> 20 100<745.309 915.604> 611 100<353 466.235> 725 100<354.227 517.367>
VStem: 75 100<115.052 307.625> 115 100<461.621 583.261> 268 98<495.064 592.967> 577 100<163.783 312.074> 819 100<554.597 603.251>
LayerCount: 2
Fore
SplineSet
366 536 m 0x3780
 366 511 346 486 316 486 c 0
 294 486 274 501 268 523 c 0
 261 548 256 572 252 594 c 1
 233 584 224 570 219 557 c 0
 217 550 215 541 215 532 c 0
 215 510 227 474 245 447 c 1
 354 481 490 486 613 505 c 1
 609 512 604 519 598 525 c 0
 581 542 553 561 506 577 c 0
 443 599 391 609 350 611 c 1
 353 593 358 572 364 549 c 0
 365 545 366 540 366 536 c 0x3780
353 711 m 1
 408 709 470 696 540 671 c 0
 596 651 638 626 669 595 c 0
 690 573 705 550 714 525 c 1
 744 533 771 542 796 553 c 0
 816 562 819 567 819 571 c 0
 819 574 818 577 815 582 c 0
 803 603 768 631 723 644 c 0
 653 664 590 684 523 702 c 0
 469 716 427 725 397 725 c 0
 374 725 360 722 353 711 c 1
75 249 m 0xbb80
 75 321 110 372 154 404 c 1
 129 445 115 490 115 533 c 0
 115 553 118 571 124 590 c 0
 143 644 187 681 246 699 c 1
 256 778 310 825 397 825 c 0
 443 825 496 813 549 799 c 0
 611 782 687 758 751 740 c 0
 813 722 873 682 902 631 c 0
 912 613 919 593 919 571 c 0
 919 513 880 481 837 462 c 0
 802 446 763 434 724 425 c 1
 719 376 705 335 693 293 c 0
 684 260 677 238 677 211 c 0
 677 196 680 186 685 178 c 0
 698 158 740 129 878 120 c 0
 904 118 925 96 925 70 c 0
 925 41 902 20 875 20 c 0
 874 20 873 20 872 20 c 0x7780
 732 29 642 60 601 125 c 0
 583 153 577 182 577 212 c 0
 577 278 609 347 620 405 c 1
 522 390 417 384 326 365 c 1
 342 353 360 341 380 330 c 0
 419 308 455 286 484 263 c 0
 516 237 553 202 553 148 c 0
 553 118 539 90 517 67 c 0
 490 39 447 14 392 -10 c 0
 368 -20 341 -25 314 -25 c 0
 297 -25 281 -24 265 -21 c 0
 222 -14 177 3 142 30 c 0
 76 81 75 140 75 249 c 0xbb80
218 326 m 1
 191 309 175 291 175 249 c 0
 175 237 175 224 175 211 c 0
 175 186 176 162 178 149 c 0
 187 100 253 75 314 75 c 0xbb80
 331 75 344 77 352 81 c 0
 403 103 431 122 445 136 c 0
 452 143 454 146 453 149 c 0
 452 154 444 166 421 185 c 0
 399 203 369 222 331 243 c 0
 287 268 249 296 218 326 c 1
EndSplineSet
Ligature2: "'liga' VAR" jakiTok VAR02
Ligature2: "'liga' VAR" jakiTok_VAR01 VAR02
Ligature2: "'liga' VAR" jakiTok_VAR02 VAR02
Ligature2: "'liga' VAR" jakiTok_VAR03 VAR02
Ligature2: "'liga' VAR" jakiTok_VAR04 VAR02
Ligature2: "'liga' VAR" jakiTok_VAR05 VAR02
Ligature2: "'liga' VAR" jakiTok_VAR06 VAR02
Ligature2: "'liga' VAR" jakiTok_VAR07 VAR02
Ligature2: "'liga' VAR" jakiTok_VAR08 VAR02
MultipleSubs2: "'cc01' CART" jakiTok_VAR02 combCartExtTok
MultipleSubs2: "'cc02' CONT" jakiTok_VAR02 combLongGlyphExtTok
Colour: ff80e6
EndChar

